<mxfile host="app.diagrams.net" modified="2024-04-11T13:19:28.131Z" agent="Mozilla/5.0 (Windows NT 10.0; Win64; x64) AppleWebKit/537.36 (KHTML, like Gecko) Chrome/123.0.0.0 Safari/537.36" etag="JzQrL2NdcL2582Y28pPu" version="24.2.1" type="github">
  <diagram name="Page-1" id="zOkEtaUX2JTjLpNy-2GN">
    <mxGraphModel dx="2600" dy="928" grid="1" gridSize="10" guides="1" tooltips="1" connect="1" arrows="1" fold="1" page="1" pageScale="1" pageWidth="850" pageHeight="1100" math="0" shadow="0">
      <root>
        <mxCell id="0" />
        <mxCell id="1" parent="0" />
        <mxCell id="avPWlsC1YsPm1SDDJ07k-7" style="edgeStyle=orthogonalEdgeStyle;rounded=0;orthogonalLoop=1;jettySize=auto;html=1;entryX=0;entryY=0.5;entryDx=0;entryDy=0;" edge="1" parent="1" source="avPWlsC1YsPm1SDDJ07k-2" target="avPWlsC1YsPm1SDDJ07k-6">
          <mxGeometry relative="1" as="geometry" />
        </mxCell>
        <mxCell id="avPWlsC1YsPm1SDDJ07k-2" value="" style="shape=image;verticalLabelPosition=bottom;labelBackgroundColor=default;verticalAlign=top;aspect=fixed;imageAspect=0;image=data:image/png,iVBORw0KGgoAAAANSUhEUgAAAMgAAACqCAYAAADoZADPAAAAAXNSR0IArs4c6QAAAARnQU1BAACxjwv8YQUAAAAJcEhZcwAADsMAAA7DAcdvqGQAACCTSURBVHhe7Z0JnM3lGsefbGNNQkaW7KUUZStUKjdblmiTpUvuFaWokBu3UkokLrKUUgqlTdYsKckuSvbd2GbsY9/Pfb/PnP8Y7sz/jGuYYZ7v53M+/ue/n/H+3ud533Oe3/+qgEMMw4iXNMF/DcOIBxOIYfhgAjEMH0wghuGDCcQwfDCBGIYP/zPNu3zFShk5cpRM/3mGnD59OrjWMK5csmXNKtWrPyhtn2stYWFhwbUxnCWQefMXSrt2L0rjeuWlZtVSkjlThuAWw7gyofnv2XdYBo+cKZF7Tsror0ZImjRnEqtYgZw6dUqq16wjHVpWlbvLF9ONhpFaQAaNXhgmnTp3kcqV7gyujTMG2bN3rxw5fNjEYaRKrrrqKnn4wdtk7NixwTUxxArkyJGjkjnz2fmXYaQmcufMKocPHQq+i8FmsQzDBxOIYfiQpAKJ2LpLTpw4KceOnZCtkXuCaxPH8eMnZfO23cF3yce+/Ydl996Duhy5M1oOHzmuy8nNrj0HJNrdmwf3uHtfzH0aF48kE8j+g0ekafsP5eSp0zJzwWrpMXBCcEvCcAwNEpat3iL9hk3V5eRk4OfTZeL0P3W57b8/ly3bz0/oF4s3+42VeX+s0+XPvv5Nnu0yXH6bv1rfGxePJBPI2o1RUiBvTsmUMYOs2RApJQqHB7ckzMDh02X1+u26fHupQtLr1Sd0OTnRey8aLtEHjsiefYekSMHcwS3JB1OQazZGSnH3N6VT+eTrX6X/m02k3oN3BPcwLhZpX3ewEL1/v05xNapTTjfEB/9RP0xZ7Hr6KTL516WybcdeKV2yoKRJc5XMmLuKb1Xk3jtvkpE/zJWKdxSVYjfkCR75v/T7ZIpM+PlP2RYVLSWKhMvYqYvluEvPwq+7Rjr3+FrCwtJJn6GTZca8VVLqxvwyYfoS6Tl4gvy5IkKqlC+hX+YQfT756lf5YPhP8uOMvyRH9ixS8PqcwSskzIbNO/Xc30xcIL+689/oBJE9W2ZND/t/OlVaN31A1m6KlNUbouSIS7E+HPmLLF62SUrfXFAyhqWX6bOXy9xF6+TWm/Lr+dj23aSFUqFMEf0cf63aIuOn/SkjxsyWq9zfJswd8+/e38s3ExZIwXw5Ja/7jH6cPHlKRo6ZK30+nqz3lydnNvnxl7/kkVrl5Y0+Y2TH7v3uM+yScrcV1g7JSBo2bNkl67Ycklq1agbXnGcEobF+9+NC6fpCPenZ+XGZ6UL8jzOW6LbVGjXyxvR2iYggd5Utpo2ye4eGUrhAbhVc1iyZ3Dhkj8xZtFa2bt8rXZ+vpw2y3RsjJGeOLDKo+1Oyct12WfjXRh2zvPTmKD3HgG5NXaO+X7oPGCtRu6KDV4ifU6dPyys9RkvZWwtJf3dcRdeou/T6VrfR6HJck1WuvSaLrF4XqXk+4u3d9QlJly6tvDtwvO43a+EaOeEasceCPzfIoeBYhb/Rj78skSfqVpBWTe6TXoMnamN/rV19efCeUjL821m6nx8TXIqHyD54s5l0aFVTeg6Z5Dqb6yRPrqulcrnictcdxaRr27quQ8gcPMK4WJyXQKq66DCsd0s5fTog23fuk/Dc2eXosZO6DYHcWCSP9m7HXOMN1ZNvjdzn9nc999WZ3TlOSOSOfVL0htwxqdr118pjdSo4UWSVLJnCXGMuLNWq3CJZModJ7muz6U9gZsxb6RptGpdm3K7nK1rwOrmp6PUuFYnS9wmR1kWeUf3byP2VbpZNW3fJte4ax46f0G2rN2x3wo6Jeqtc6tewRjkpX7qIhGVIr731nuiYOfJ1m3a4e71OlyGmc4g5jvtv8fg9LlLkkpxObHwBhXgRXb68OUL+fIe/LSJ62p2DfYk2Nxe/XtMrRLolcq+ULHa9/t04t3FxSbRA6Hnfcz1Zm1c/kyEjpsu3ExfKwiUbpEiBXDprxWCW/0QaKI0nbVr/U7Nf8WCjIr8u4ARFQyT6lHOCoCHD2k1RUubmArpMdFrrGucNrvEtXhrhxHhAo4v32n/gsGTLklH3TYj5bqD7XNfh0rX3t/L1+AXy5Q9zpFD+mHHG6vVRsZFv1fpIub9ySV2GAy73R7D8HYhynkC4J/Yt5o5jVmnf/kNS1o2ngHslOmbPlinmvUvZCuXPpcsJwUwe0cn728CJE7yPuS/GbEQ149KQaIFM+fUvF/Y3a9jv9lJD+fujVdyY4ZQUKxSuDSE8V3aXImWUNa6xJGaAvkZ7a+8/3TXM4H86eT9jAqA3XR+xI7ZxbIvaJ+ldL0qDO3TkqDR9uJIM7fn0WS/GRAlBY3697xhp2rCy9H2tsXRsXUvy5skR2/sjWgboDIS374iWjBnT63r43aV1nJtIlz59Wk13YNPW3Tr9WsxFsDVBATDmgLVO7N69A0IKJZD1bnxEtPGiw9GjJ2TR0o16HsYm6/h7FDojHuPikmiBHDx0TP/TTp06LXujD7so8rMTRJhkzhyctXLpFdBIEtPDbd+53zWErLock6KEx0QI10hvLJJX12+L2qv/knIB+xULNg72+WXuSh1Y03AGuoH6hOl/6LaEOO3Oz6Cb6xAJpv22TBt++HXZ9T3X5j5Wu4ac1g2uf5u/Ro+jYS9dtVUeeqCMHHB/hwzp0+n3IwcPHZW+H0/RdBIxESG8ewc6DtJID85b1GfiAkip9DsO9+JzfTTqFzl4+JhLIXPrIDKbG6cRyYxLQ6IFUvv+MpLL5f9PtB0kPQaOk0cfqiD5w3PIF9/O1inRO4JpxTEXVciZQ1H97lvk9T7faz5/9OhxuaVEPpciHZHcObPF9rKMZ5ix8tItGk05N7gGZnTyh18rzV78SF+kdIxT/OA8ndrUlrcHjJOn2n+kgm9Ys5x8O2mhrHf3QdrEGIcv5R57qKJEuOjQ5IUhLrWcKK+3r69jAho8s1WNXxgs/37/e7mnQgkd6MOBQ0fcWCXm/uDEydOxM12HXCPPljWjE1OM2BPipqJ5pZmLcJ16jHavr+UaN9aoWKaoZMiQTr+4rFS2mI09LiGxP3eP2LxFnn76aflhSCvdcCGQFhw8fDT47mw0RXL/6RcDelzvi8f4QODJDVGHSYn4YMqWiQgjeZg+Z6VMnhMl/fv/J7jmIglka+ReWbF2W/Dd2ZBfe9EmqaGXZoo4Pviuhpmr5Ga5+7tsc3+f+LjBRU4bXyQfl0wghnE5Ep9AEj0GMYzUiAnEMHwwgRiGDyYQw/DBBGIYPphADMMHE4hh+HDW9yBNmzaTNk3u0Q2Gkdrgy+3Ifelk8OCBwTXnCOSJJ5vJPZXPuMoZRmpie2SUhIVllA+HfBBcc45AWv6zjUyZdLaznGGkFqZOmy7jxk+Ufn3fC66xMYhh+GICMQwfLkggmzZtkt9//12XFy9eLBEREbp8qZk3b55s3bo1+O5sfvvtN9m5c2fwnWGcHxckkO+//15mzJihy71795Zt2+L/ifvFhns4cuRI8N0ZeADQv/71Lzl0jiGxYSSWCxLIypUr5aabbpLjx4/L2rVrpWTJklrOeqFwDs6ZWDp27CjFip15bAPHcg4Ei0gKFky4Tt0w/AgpEFKnJ598Up566il5+OGHZdy4cbqeBrhq1SoVyLp16+Saa66RgQMHSvPmzeXxxx/X42Dy5MnSqVMnXYY//vhD/v73v+vy6NGjpUuXLtKuXTupUaOGvPLKK7JkyRJp0qSJ1KpVSz799FPdzw/2/8c//qHLpFktW7bUe+XfKVOmSIkSMSZzhvH/ELLlfPPNN9rYPvvsM+nZs6e88847cuLECYmMjNR/b7jhBlmxYoUcO3ZMhUGjRlCvvfaaHv/XX3/Jdded8ZBaunRp7HsaN+J6++23NV2bOXOmXu/zzz+Xd999V779NsbQzY/ly5dLeHiMMcJ//vMfFdqoUaOke/fu8sUXX8iNN96o2wzj/yGkQN544w3JlSuXjB8/XgfkadOmlXTp0mn0oHfmPQJBHEWKxJgXkNJ4DwAl9SpevLguA2kZx8Hq1au1ijFz5syaFiGyF154QXv8DBkySJ48octPOR8i2Lx5syxYsEDq1q2r6xFN3rx5TSDGBeErkGnTpkmDBg3kxx9/1EEwoihatKi6anjjD0Ag5cuX12XYvXu35M4dY8a2cePG/xEIjfbo0aO6rUyZMrp+zZo1KoicOWMcGTln4cKFddkP7z7+/PNPueWWW1RYHgzOvXs0jP8HX4GQstCjMwh+9NFHVRheg/PGH6RZRAmiigepUtWqVeXgwYMqFq+hIwheCITU6tprr9XoBAgkbm+PQLyIlBCIbMOGDXocU8zZs2cPbolJ7bZv3x7yHIbhh69ASH0YVPN9x7Bhw3Q5Y8aMcvLkybMG6PTaX375pezatUunXOfOnauRhyfn8txpUjOOZSqYwTzRheOZ9fIg3br55jOuI0SGuJEnPhAmaVS2bNk0gi1atEjvh7EN10IccSOKYZwvvgJhUI443nvvPSldurTOMjFTRL5Pg6QBMm5gHFGzZk39zoF0bMiQIdpo6dE7d+6sg2bWs98TTzyhkQjx1a5dO3glkXz58knlypV1mRkyxBMqPUKojzzyiC5zP88//7xemy8HuQ4iNYwLIUX/WJG0CYHGB1HIxhdGUnLZ/Vjx6quv1hmx+F7e2MUwLiYpWiCMV/ieJb6XCcS4FKRogRhGcmMCMQwfTCCG4YMJxDB8MIEYhg8mEMPwwQRiGD6YQAzDBxOIYfhwQQLhh4tUCAKVfQk5ixjG5coFCYTyWH6lCz169Eg22x/DuFhckEC8mhB+dk7BU9z6DsO4EggpkGXLlkmLFi3UKeSxxx6TqVOn6vpzXU2o/fjkk0/UsaRp06axqddPP/0kXbt21WVg/TPPPKPLGDW89dZb8tJLL8lDDz0k3bp100Ipjn/ggQe0CCsUFGK1b99e+vXrJ/Xr15dGjRpplSFQ7fj++++rGwv3T20KVY7AuYl6VExSl4JJBPfWuHFjvfaYMWN0Pz4n+1JbUq1aNXVQSS7/L+PSE1IgVBI2bNhQXU1ef/11NXEgYkRFRWmdeqFChbQ8lvJXiqZwNalXr57a+QC14ueWwmbNmlWXsQai+g8HFBohFkE4mnBN3FNGjhyp+/lBo54/f76W+NKoK1SoIAMGDNBts2fP1nER7iack/LfCRMm6DaqHDkWR5URI0bI119/rcfzORE0RV7w1VdfyS+//CIff/yxdg533HGHitFIHYQUCFWF1HxPnz5dS1wBJxOiB+4k1KIjEETkpVgYO9B7A8fENXVjX6/2nDJbohN1H/TUnqsJ56TiMDE/aSfiEDluu+224JqYOhK49957tbEjRBo51/Bq57n/f/7zn5IlS5ZYkzoqEtmOgLk2+yNYIgpCI5oWKFAg9u9gXPn4CoTSVVILemDKbOmpPVcTL70CGn2lSpV0Gfbu3RvrakK6E5/tD2JYv3699sjAGIZjPM8s9kuM4QIiK1euXPBdzHm4LyIaqRxlwkQxDBy4T+7/wIEDmibdfvvtegznoMbEExb7YTSxY8cOfZHGEVF4zZkzR+6//37dz7jy8RVIr169pE2bNppakcPTq3uiOHeAnj59el0Ps2bNkipVqmi+j5EDjRK2bNkS60KCODwDB6CRxnU1QSChbH8866C4kwOeQHCAZPugQYPk2Wef1ftBlIiTa+XPn1/r5r1j4l4bgSBOoiAR5s0331QjOl6kmPxNjNSBr0Bo9DQm3NHpPYkgNCpM4eIO0Em5cEE8fPiwmrcReTBTQDy4itDgOA/mDxyP/xXH07CJRkAjxdfKg2M8g7mE4Nr0+p7BHGMMopeX+rGMKIkgjEsQOKZ03IsndOB9XEcV79rXX3+93i/T2YgLxxYmARCekTrwFQizPKQXzP6Qgrz88svas9Mwadz0spizNWvWTFMscnoGvAxiiQ68XnzxRW2crKdxkbIhCkRVvXr14JVEPbLuvDPm8W/k/tSdx+3V44NJAoToiSw6OlrPnylTJqlTp47cfffdeu8MrvEH5j2TAYiWGSkP0joG94CoGTPxQkx8FuyEcGTB65f3WB8ZqYMU7WrCuCGhb+dxYEyM86JhJJbLztWEFI8ZpfheZghnXApStECYamWsEN8LoznDuNikaIEYRnJjAjEMH0wghuGDCcQwfDCBGIYPJhDD8MEEYhg+mEAMwwcTiGH4kKQC4dezXqltSoViJ37jZRiJIUkF4pXMpmQo5aXsNxT8RN4wklQg/BSe30mlVKhjofYj1M/oIyMjtVjMMEIKhBoQDA3q1q2rtSEUIFFjQb0FTiRU7nnELcOlBqNJkyZSo0YNLX2lZBf4df3o0aP1KbTUWOBosmfPHt1GtSHVes2bN9fnssc1bcB/68knn9QaEioEE+MsQmETbiXUy+O2Ql09UFdOcRcFXDi1UC3JM+GpBeEz4FzC5/SMJyZOnKi1LFz7ueeesxQtNUE9CGyK2Bz4W406wXcxHDt2LFChQoVAjx49Avv27dNXvXr1ApMmTQq4xhTYuHFj4L777gu4xh+77+7duwPTpk0LPP7447r+1KlTgaFDhwZcw9JzrlixIuAaW8A1soDr0QOvvvpqwDVU3eaEERg/frwuO9EEXnnllUBUVJRer3HjxgHXaPW6gwYNCjhh6X5+fPrpp4GuXbsGTpw4EXDjo0CDBg0CTpS6zYk+0LFjx8CRI0cCTkgBJ/bAjBkzdBvrnTh1mftxQg9s3bpVrz1gwICA6zR0m3FlMWXqT4G2L5zdrnwjCHXjgNMI1j14XFElSDkqj2d2jV9tf9iPKkOKmKgMxPqH6IJbCDXjpUqV0p4ZiDBY61DGO2/ePK0s9CoCqfMg8hAdcuTIoeMFqv2w7OF8lL1yXc5HOucH0WD48OEajSi/5b4pq/XSKyoRiRBMKuB6Qu25dx/cq7cf1yZaEo24Nu4p3mcxrnx8BUK+jhi8ElMaEiW2/fv3j30hHK/GnMZPQ6Kmm/p1bx/KXCl3dYLURk+jdT2zDpYXLlwYa+pAOkTjb9eunbRs2VLTsv3796v45s6dG3s+6t8rV66sxyQEoqXgKm7VISW6NHzOyfldpND6eVJHZre4D4wmqGLkc7uIqQLHX8u79nfffXeWg4txhRMTSOJPsXr27Kkvjw4dOmhq4kH65OEafmDIkCGB6OjoQNmyZQMuegS3nNnPRYxAtWrVNK0BNw4IOOFo2hUX9ndjgkDbtm0DLtIEKlasqOmNR9zrJoQbs2ia58F9ValSJeAij6ZJ7du3D24JBH7//fdA1apVNeVbtGiRppFAenfXXXed97WNy5PzTrGICnGdRvCRoufHV4qXGz/EWnR6EQQXEMwccCR059coweCaXhtIu0ivGATTIzNYJi3DNQVzB7aTHhGpcBUhbQsPD9eowfno7TmfZyGaEJgucB0iAJGgd+/eauPjeW2xjhfOjrgmcg+ADxbuJ0RCLIl4YZHKtYmgXJt7M1IHaV/H9MoR7Rrw2HETpGmTRroBSD+YvfIM1cjhsRylYWPhieMgNqPk7uyLBy65PA4hY8eO1YbHWAHzNho7LxoeXlWsb926tQrHa/Q0VmaTmLFiponZKtIkzodA8P7FHohZNETjBw2e1I97II0rX768jkPuu+8+FT0p4HA3RnERQWfTEDICInWbOXOmfg/CvhyH7Q9jEVI9OgXPZsi4sli/foMbVqyRmjUeDK5J4a4mfjCQJwLEB1HHGrFxvlx2riZ+0NsTjeJ7kaIZRlJw2QoEIzt8feN7meOJkVRctgIxjEuBCcQwfDCBGIYPJhDD8MEEYhg+mEAMwwcTiGH4YAIxDB9MIIbhQ7IIhF/y8kvbSw2uK/y61zASS0iBeEYHiYGio8T8Dqpbt276IP9Q8BP64G8pkwR+EUzxlmEklpACoZqO2o5Q8CNBDB4oofWDBn/uU2bjgwdyUhLrlcEmBfzEPpSjiWHExVcg1GXwjHDKXamd4Be0FEzhUvL8889L3759dR3PQscZhH+pXwfqzXEHodYCJxDSKqCclShDvUdCRERE6HHUnlBLwuOdOQfuKrihENWIQK1atdL9qBuJmzpR/0FZL04kPKkX8UJcgSD8Dh066E/meXot+/MZ+FxEQsNQqAeB+EpuXeMP1KpVK+AanC5TfkvZ7YEDB7QMtXXr1oE+ffpoGSrOJL169dJSW8pba9asqcfBRx99FGjTpo0u43jSokULXU4Izvfaa68FBg8erNedNWuWluaOGjVK3UkOHjwYqF27dmDOnDm6/2effRbrVsI6Sm1xQMFphfVO3HocritOLIGJEyfG7rNhw4ZA9erVAzt27NCSW7bxOYzUx3mX3FLWSgkqlYSUwlJFSK+L+wipFM8aX758uT5PnEo/9qMCkApE9qVoico8nkhL5R54pbl+eOej8g9HEo7h3EQPqgKpWhw3bpzkz59fz881vbHPwIED1ZCBn7xzXQzg8NjiHBg4UB3IWMSJT/fhWpQPO2FpZHLC1lTRMMBXIIwVqLvgwfykRjRIarQ9EA22PE5oZzV8nD8wjeOh+z///LOmap67SGIEQtpGeauXDnFMmTJldBkQB+cnxeP8GLvhSEKtOIK98847g3uK2gfhykJ6RZrnopnce++9KjQoWLCgioqUi/LhDz/8UIViGBBSIF5jRgznDsAZm1SsWFGtOtmOmJhKJe9/++23xaVkauFDD++dJzECwWER8wceAw0cc+utt+oyUe2tt94Sl4KpMyLnR8Cc04si3jPUaejUmiNgBELNPDXq+HJ5JhJQunRpveehQ4fqGOvXX38NbjFSO74CoeGTTtHQ6M2JIsuWLdMGh8EbPTJpFvvRI9Pzk0qxP7NQ9OiYWRMNiDQMtlkf16sqPrzz0eA5B/5YnrsK1+YanAdHFOxJERCRDY8uIgJRhf2IFphAAAJ58MEHNdLg0YUJA/fJpII3jc2MGSmdJ0zD8HU1wf7miy++0AZJisOLWS1yeEzYunbtqikMjdkNpNXdHa9bHEWw2cELl16bMcmkSZPUFI4ZJdxQ/KChcyzjAsYeeOHWr19ft4WFhenY5v3331eR4riISQNpFuMHnA9JkxAAqRWRDHCFbNasmQqAaMNYBNcS3FFIsZjK5pp4+JoxXOokxbia4EhCShYf9N5ELcO41KQYVxNmxkjP4nuRNhlGSiFZBEKqVqVKlXhfjFUMI6WQLAIxjMsFE4hh+GACMQwfTCCG4YMJxDB8MIEYhg8mEMPwwQRiGD6YQAzDhyQVCL+85ecihnGlkKQC4Re1ffr0Cb4zjMufJBVIYoqhDONyIqRAKBeJ64vFo5qp0wDq06dNm6blr9RsUJRkAjGuJHwFQnET5gsURXlQkkq9BhY/VO5R0tq9e3ctWsIuxwRiXEn4CoTacKoBvRJUREHZbPHixTWdovIPHylq0Tdt2nTWvoZxJRBSIIjBczdcsWKFioFSVs9IwTNy8MYfSemEaBjJTUiBFCtWLPguxrHQs+JhXEL9t4eNP4wrEV+BYLGDswjuH4sWLZIxY8ZIiRIldBuC8JxGwGawjCsRX4HgULJkyRKpVauWCgQXEKLGsWPHNM3yBIHvAyIqWbKkvjeMK4VkcTUxjJRIinE1MYzLBROIYfhgAjEMH0wghuGDCcQwfDCBGIYPJhDD8MEEYhg+mEAMwwcTiGH4YAIxDB8uSCC4mOzZs0eXeSA/v/5NaezcuVMrI+ODZyHyXEXDSIgLEgjPLxw0aJAuU5++YMECXU4p8DtMnpFOvfy5IJq6devqM9INIyEuSCBeDQg/dWc5pf3cnafyUs/Ck2/PZf369VpHzwNHDSMhQgqEFIVniD/zzDPy0ksvneVw4lURRkRE6LPJ58+fr49VxgklKipK96GOxIsysHHjxtgnz86cOVNGjBihT5lt06aNfPnll/qc9c6dO+vTZhP7vHJqVrp06aJRjGt5Dwjl/ijwoiyYFJDP0bRpU31CLmYTXnWkYSRESIF07NhRH9RPo6pevbo2ZHplGhwGDpTk0hBJWahH79atm/bMnTp10uOxCGI/DwTDU24BASAKHrv87LPPSt++fdUhpVWrVvLII49Iv379dD8/qHJ89913pXnz5nptnsmOECBulSPrcGfh2ek8WhohWQWkEYqQAhk6dKg2WHp2UhUG4ggBURQuXFifW46Zw9/+9jepU6eOOp3woH4GwLBmzRo1fvDwog4QjRo3bqwP9eQB/zyPnWsVKlRIhUfVYig+/vhjjRwcj5AbNGgQOxbyBIJoEObTTz+t56xRo4ZGFYsgRih8BULjxtandevW8sEHH8h7772njZfGFbd3RiBEFw9E5Nn/eM4oHl7aQxTi/N5D+2nE2bJlizWJwGMLAfrBLBovBObBrBQRDLx7JPWrWLGipEuXTtcD1zeBGKHwFQhjCaLBsGHDdNxAQ/Qaldf4GKDT6LNkyaLrAfcT9qV2nXTKa/T79+9XUSAQxi3p06eX/Pnz6zbWc+64FkOhBMIz1Rn7xOWPP/6Q8uXLq4dXdHS0FClSRMUW16+LMUuaNGkkb968wTWGET++AqGBkbYwXUqjnzx5cmyD9gSyefNmHX/Mnj1b15NaTZ06VRo1aqRTqEQbUid67N69e+v7AgUKaHrF8TRU4H3cWTAv0viRO3duTZkWL16s7xEC91i/fn29PyIXUSNPnjy6jc/B2An71LhiNIyE8BXIyy+/rIPzhx9+WJYuXaoevJMmTdLGTKOnASOQatWq6XsG1gy227ZtK/ny5dNeu2HDhrq+RYsWajRHqoNImOVi2QMx3n777bpMQyZNS0wKxMD8jTfeUAeWXr16aaTj2giVSALNmjXT9A3RvvPOOxqZypYtq9sMw4+QribBzYnqbdk3KXtlUjRvyvZciAxEN4+kvraR+vi/XE1odIlteEndQPnO5Keffor3tWzZsuBeMZg4jIuB+WIZRhDzxTKM88QEYhhBvPF2XGIFkilTRp1JYmBsGKmRgwcPSeY4Ez8QK5DcuXLJbaVKyeQp04JrDCP1wBfe34/5QcqUKR1cE0PsIB1mzZ4rHTr+S9q3ayuVKt0pGcPCglsM48qE5r9y1WoZ/vkIOXTosAz/9CP9ns7jLIEAO/d4t7dsiohI8DsIw7iSyBseLo892lAeql1TMmc+O8X6H4EYhnEGm8UyjAQR+S8P+NG+/1MAZwAAAABJRU5ErkJggg==;" vertex="1" parent="1">
          <mxGeometry x="120" y="30" width="200.01" height="170" as="geometry" />
        </mxCell>
        <mxCell id="avPWlsC1YsPm1SDDJ07k-8" style="edgeStyle=orthogonalEdgeStyle;rounded=0;orthogonalLoop=1;jettySize=auto;html=1;entryX=0;entryY=0.5;entryDx=0;entryDy=0;" edge="1" parent="1" source="avPWlsC1YsPm1SDDJ07k-3" target="avPWlsC1YsPm1SDDJ07k-6">
          <mxGeometry relative="1" as="geometry" />
        </mxCell>
        <mxCell id="avPWlsC1YsPm1SDDJ07k-3" value="" style="shape=image;verticalLabelPosition=bottom;labelBackgroundColor=default;verticalAlign=top;aspect=fixed;imageAspect=0;image=data:image/png,iVBORw0KGgoAAAANSUhEUgAAAMYAAAEBCAYAAAAjAdrlAAAAAXNSR0IArs4c6QAAAARnQU1BAACxjwv8YQUAAAAJcEhZcwAADsMAAA7DAcdvqGQAAC3iSURBVHhe7Z0JnI1l+8evtMiW7FGRJRWSt2ghe3iFSoWSKCrpn4jeUGR5Q7Ysb1Io2YcS3jYi2eKVJdnDCGVfyr53/s/3mnNPB8+cM6NpZsxc3z7n45zznGc50/277+t6zn397ksCHmIYxlmkC/5rGEYIJgzD8MGEYRg+mDAMw4fzku8zZ87InLnzZdy4cbJq9drgu4aRekl3STrJnj2bNG/+rNSuVVMuueSS84XRf8B/ZNbMr6Rx3buk7B2FJV26S4JbDCN1cubMH/LzL3ul99AZUrlKDWnTptXZwtiwMVqeeqqZjB/UVHJmyxx81zDSBrv3HZTHXvpQvpnx1dk5xpo1a+XufxQyURhpktw5rpLbbrlevpk152xhHDt2XDJmuDz4yjDSHrmyZ5ajR4/aXSnD8MOEYRg+JKowTpw4Jdt27tfnvx88Kvt+O6zP48uBQ8dkz/6DwVdpk117D8jhI8f1OfdFeM3fxUhaElUY3y3dID0Hf6HPh4yeJV/M+lGfh2PnngNy6tRpfT552hKZPnuVPk+rvNI9StZGb9fnAz74Wtq+GSVLV/6sr42kI1GFsX7TTilaMI8+37DZe17oGn0eF9w/bvPv8cFXIk/VKy+NHi4bfJX2OHHylPyyfb8UveEa2bp9n0ybs0Le7/GUVClbLPgJI6m4tItH8LmsWr1G9uzYJOXLFAm+cz6HDh+XD6Lm6GPG/DWSKWN6KXBtTt02fur/5M5SheSG63LKfz6aKS2erCoZrrxCt53LseMnVRRbtu2VddE7vf/5t0invpPkjltvkK3b9sm4KQslestueW/MtxK9eZfcXCSf9qDvj/vWC9lOy603X6fH2bR1twz88GsZPmGuLP7xZxVm1qsy6ra4IFR5b8wsGTXpO/lsxjI5fvK03OIdn188aZBDx82RSV8tkSUrvON54s6c6Ur57cBRbzT8TC67/FLvu82Q2QvXSqECuSVb1kwq8I+/WCx9h34pM72/SQHv+w/0rrV0yYJyZfq47/IRen7gXfc7I2fKouWbJKP3t1yx5he5p/SN0uvdz2X/70e8v80OqXT3zXLppZYOJgXzFkdL7nyFEz5ivD/2Wy8POCT9Oz8hbZ/7p3Tu96nGwcTD670GTEPa9MsebZzZr84U3Ot8rrjiMilx07VS4a6b5LUX6+iPK8tWb5asWTLI8jVb5cvZP8qNhfJIp1YPaojW/q2JUq9WGen68sMyLGq2HD9+Srb8ulf+1X2CVK9QQob2fFpuuyW/dBkwJXiGuBniic1TgQzq2ki6v1rPE9QmFecG7/pf6jxGqpcvLn1ff0zF0vKN0XLmjz/kp0075LslG2Tz1j3yynM1pVD+XCoUmPDZIpm1YLX06/S49GxXT8PIH9ZskasyX6nb42Lc1IX6t+Tan3msorw9bJr+/W64NoeUKlZA7ru3uHR86UH9WxlJS4KF8UrzmtLhhdqye+9B7SnpTU96PS7/g48dO6GjR0xIFT6MujRdOvl1x34pduO1Kob1P++SG70Qgl57o9dAq5e/VcqULCTX5Moql3j/NahzlxT2eujrrskml3m9J41lzOQFUs1rxCVvvl7+8BpvrSq3yc9ewyUkCcfp02e8kWqf7D9wWHJkyyy9OjTwRJBXJnoNvH6tO+W2Yvl1KkztqqU80R+UPfsOyUbv+m7yGi2hHtd0Te6rvV78Uu0Qxnv7PVG3rOS4OrNk8cRwe4kC3mfz6neJC0bMid4o8+zjFfW78N0YaW+8IY9cfvllXki1T4oXzad/GyPpSZAw9nqNn/Dn5W7jtFGOmDhXjnhiyJcnm2zwGg7/cxnyeV7U6+0jQQ/t8pD1Xo/8Z36yS8qUKqjPjxw9Idt3/66jAWz0Qqf8nvhouIws8xdvkNZdx+rj5W5jpbDXsNKFaZDwcrMaUsS71pc6j/VGnChthPCzN9LdfXthfQ6nPeFzqGze6EfOdFepwrGNfZMX5nEMRroDB49K6VtjrhcOe9eMiMJBiJQn51XeI2vwHZFTp854o2Tw70FHUTCvPjeSngQJY/CobyR/vuwy+M3G8nrLB6SsFwsXzu/E8Ocooc+9HjMcxPnckaKHhBgxXaN3qDZ7DdQ1rGhPCDmzZ/Fi+Zi8Yb3XoAp4oQYgyrfa15PhvZv9+ejVVHvccFx55eVe/lNFxgxo7vXK10pHL7eBY17Mf9lll+pzILS79abrJb2XJ9BQb/JGFUe0NzJxvQe9nAuRZvCOCYyiC7yQi5woHJu8/clPHOQw66K3a+cQc6v7kBS6PiZ3M5KeBAmD3psph5pPeOHSpC+XSN7cMT2ea9jE4xu3eM+DvX9c7PBEcVXmDLGzd9cHxfSzlzdclSWj5MyWRd+P3rz7rN53/aZdXk8dc+yiXo/69dxVej00rHY9J3iJ+17dFheLlkfrjQPCKQSd2+u1s2SKCVcIyWbMi7ldzG8wIybMk4YP3S1Hj52UbTt/0/AIOF+09x1v9DoC8ihCu5U//arfPeq//9MRLtKIkS/P1RpK8jclXxo8aqYKkPk6jJ4k8JEEbvx9JEgYzzeqIt97iWr9FwbLzPmrpWmDCtqQF6/YJCe8np5klXCr0PW59H9wOEgwaRwtXh8pBw4d1d7zem80IjQpX6ZobMhy8PAxL9f4M0w5evyEFPeSdviXl++sWPeLNGr9vrTqMkaT1evzxYwmcXFz4XzeSHNSGrcZJs93GCHfLljrjX51dNvzT1SWVT9tkydavSev9/7YE8U9UvaOG72R7XcvGc4fO2od8ka77F4+wfckr+jU6iFNnNv+O0rzBe7UkYeE457bi8j9lUtqst9lwGTJ5+Us5bxz8b3J1wjbjOTjrGnnURM+kdVLZ0iHFjWC71w4NGiScj8yZkjvPfxv4/5VSGrphf2gB07sZJZw8KTXKeQPCnKsl3shVkLNuL4/wonrNraRvPR4d7qUKF3t7xMGjYM7V34U8fIK7sD8HfA7BGGeH7m8XIU7TonJnEU/6e8otaqUlH37j+joyW1gvjs9vx+EmdxAMFIef7sw0hLkNdxlInG/t3RR+93hIsYJI8G/YxjnQ+9fvcKtOnXDRJE6MGEYhg8mDMPwwYRhGD6YMAzDBxOGYfhgwjAMH877HWPa5xOkZsXiwXcMI23x5ezVUrNOg/OFMW58lBS7uWjwHcNIW6xZt14aPv7Y+cL4af0G6dypQ/Adw0hbdOnWQ26+qajlGIbhhwnDMHxIUmEsWrRIfv311+Arw0i5xEsYAwcOlHfeeSf46k9ef/11iYqK0uf9+vWTypUrS8WKFaVOnTrSrFkz6dSpk2zbtk23w5tvvil794avsDOMlEC8hPHDDz/IddfF+Dg5yNkXL14s114bU03HZ1566SWZPXu2fPzxx9K9e3dJnz69vPjii/rZgwcPys6dO6VoUbvjZaR8IgqDpcc2btwoN998c/CdGH7//XfZv3+/3HjjjXL69Gn9TLFixbQ088orr5RrrrlGGjRoIL/88ota26xfv14KFCggGTOGN0MzjJRARGFs3bpVG36hQoWC78TA+7ly5ZI8efLIpk2b9L3Qz7DPhAkT5LbbblP/pXXr1p0nLsNIqUQUxk8//aQN/oorzq5RZiS48847dYTgM/D0009LkyZNpHbt2lK1alUNnXr16qXb+IwJw7hYiCgM7iLdcsstwVd/smTJEilTpow+ZzSoXr26DBo0SPr37y81a9aUu+++WxP2nDljaptNGMbFRERh5MiRQw4cOBB8FQP5xcyZM3XEABr9rbfeKtmzZ9cHucW8efNi70gdP35ctmzZIjfddJO+NoyUTkRh3HvvvbJ8+XJ57733NIGmwT///PPyzDPPSO7cuTWxPnc0YJTgti05BpCY582bV7JkiTFRM4yUTkRhkGAjCvKF3r17yxdffKHCeOqpp3Q7t2H5/YK7U6E0btxYTp06pbdqScQfffTR4BbDSPnYJELDCMEmERpGGEwYhuGDCcMwfDBhGIYPJgzD8MGEYRg+mDAMwwcThmH4YMIwDB9MGIbhgwnDMHy4qIRBjTnltH4sWLBADh3yX/POMBLKRSMM5jpOnDhRazvO5dixY9KqVSudAm8YicFFIwxKaPv06SP58uULvvMn0dHRWnueNWv4tbUNI75EFAbVeu3bt5dGjRrJI488Ih07dpQjR47oNgqYXnnlFa3PePbZZ2X+/Pn6/smTJ+Xhhx+WTz75RB5//HGtxZg+fbpuozaDklfqwh977DGZNGmS7ksxUzi+++47PTdQDUihVL169dSyhzDKqgONxCSiMEaPHi1XX321/ktFXv78+WX16tXaSztRUMjUunVr+de//qWGamzDReTEiRMyfvx4bbw9e/bU4xEO4UiIURvbVq5cKStWrJDrr79et8cFn8mWLZs+51iIDf+qF154QUaOHGnCMBKViMKggm/hwoX6SJcunTz33HNa6z1lyhRtnEWKFNHPFS9eXDJlyqTmCZS68n7Dhg11G1x11VX676effqo9febMmTU8KlWqlLqQYM4WDme/gyhxKMF8AXiPklkThpGYRBQGxgYtW7bUsIjwBxMEYEQoWbKkPgeSY0YIarsRRunSpbXhw4YNG7QBkzhv3rxZvaYcv/32m68Lybk4YeB4eMcdd6hIgfNyXBOGkZhEFAbcd9998vbbb0u3bt3Uj5bGyMM1TuBWKu6DJMGYJoQ29lBhACMLcBfpyy+/jCgMwrPDhw+rkyHCIrRzkF9g6MZ5DSOxCCsMkmtGC4wQSJpplDfccIOOBPhGjRkzRo4ePSo///yzDBgwQH1qnR1naGN3Fp+EPIwon3/+uezatUuGDx+uI08kYTBaYLZw2WWX6Wjz/fffq1hWrVolgwcP1tHCjU6GkRiEFUaJEiXk/vvvV1dzkuy1a9fKf/7zH91GiIVXLTkHbuj8joBlDq4hZcuW1d4dEErhwoW18dOzc0eKho6QEAvbz3UYORdEiYkbEM7VqlVLOnfuLN9++63UrVs3Nt8wjMQiSV1CGHG2b9+uwgHuSuGOjvB2796t750LIVKkO1aGkVgki0sIowNrZHBbl7CLO1vkLPjicpfK73GuZ65hJAVJ7itFAs7vHJyWUCw0gTeM5CbZfKVYO4PfPMhfTBRGSsVapmH4YMIwDB9MGIbhgwnDMHwwYRiGDyYMw/DBhGEYPpgwDMMHE4Zh+GDCMAwfTBiG4UPESYSYmLGoPcVHlK7+4x//kDZt2uicJ+oqMEnYt2+f1lo8/fTTWtLKaq2s6opDCAYKzKrFCaRSpUpy5swZ+eijj+Szzz7TYzz55JPy9ddfq2ECdRtxgQMJU9SxyKEOg6WUu3fvruuQMzHx3Xfflf/973+SIUMGLWbieBQ2ffjhh+pa4mrFcTphTfJevXpp7UiHDh10yWaukWulJp1yW77Ha6+9FlurbqQN4j2JcNSoUTrZj3/Hjh0rGTNm1Mo+LGyYOo7hAS4h2NlQrITdDrNnqfumSo+GiWC6du2qx5s8ebLWjSOOcePGaWkqRgvXXnutbo8Lar2/+eYbqVKlijqNUN46dOhQ3TZt2jSt8+CYw4YN07XI58yZo9s4/rJly1QIffv21UIpzs/3adKkidaEANeJewnfheMx3f2DDz7QbUbaI6IwKEdFCNjXXH755WqTQ1krDfyhhx7SmbLASEJvTTESo0vBggV11GAfRgZqKwDLm/r162vDRnBlypRRlxA+Ew6Ehg8V52Mk4LjumFxHly5dZM2aNSoCasopdWUU4Fqw2EHQjFY0eATN/lwDljxUCCIUjnPgwAEtt2XU4ZxG2iSiMAh16FnpSTFRc6ZqCOD222/X50BERqiFIQKNkVCE8AowQ6Aum+2bNm1SETkYYShxDQfHppFi2+OgjpxjYpLQvHlzadu2rY4UCJgQj7CMUQQxMMUd3HU4EfI5BMz7iGPq1KlausuD7xn6/Yy0RURh0PPWqVNHhUHja9eunTZUGlJoPQWhDnE/wqDBUYTkcGYIeMyyr+vpeY5DYXxcQoj7nUUO58aAgWMSjjEKcH0vv/yy3HPPPTpyUQ7LdTgTBUCw7hhADTvCcIIml3KPfv36aT27kTYJKwx631dffVUdxmnEJKt4xyIWem/CIhopLiIYImCY4MKX0Mbu7HMQBAZuxPgk9YQv5CORhMFoQQMmHAJGK8Rw3XXX6WuuixAI15D3338/1rHQ7zrca74PwilatKg+EB82oLxPkt+0aVMdbYy0SVhh0OsjAO7wkEATqjiXEJJurHCI+3HsYHu1atW0kRKfY7MDCIXeGGHQc7M/CTG13iTcbKdhhoO7Ts4lBAifcAthxCLU4zpI/kmaqSfHoYS7S5yvXLlywb1EsmfPrs6HgJC4Tq4BwSFs7IBwP2EUe+utt2JDQSPtkaQ139h3MrqQfwDuhhiu9ejRI851L2jMCMswkoJkqfnGnA3HckYYQjR66DfeeEN/92BU8HsQqhlGUpPkLiGEQcT2nJa7Uy4xNoyUQLK5hJCAE0rx+4WJwkipJLkwDONiwIRhGD6YMAzDBxOGYfhgwjAMH0wYhuGDCcMwfDBhGIYPFyQMaiiY9p3UMEWEYiTD+Lu5IGEwc5VF55MCJhe6ZciYNk4JqmH83VyQMM4t+Pk7oUab8wEmBtRtG8bfTbyEQZ0Djh/UXuDo4YRBAREVfQ6KfXADocBnyZIl0qdPH+ndu7e0b99et7OMcePGjbV2glm21EQAEwpZj69Ro0Z6DgqYeI/p6ExLxwGEIiT+pYgIODc1HS1atNDKQqoEgTCP96ipaNasmZa9rly5UreFg+ulBoPVZLkG1grEzIFjP/DAA7EjJNV+iJVyX/4m7MPESCOVwexax/iojwNduvUIvoohOjo6ULdu3cCOHTsCp0+fDnhCCJQpUyZw6NChwMSJEwOtWrUKfjIQmDt3bqBBgwb6fOjQoYEaNWoE5s2bF/AaTmDt2rWBBx98MODlJgFPOHqct99+Wz87YsSIQJs2bfSYe/bsCVSvXj2wdOnSgNegA/fdd1/g5MmTus8jjzwSWL58eWDdunWBatWqBTyx6P6eCAJVqlQJeI02sGjRosBdd90V8MQV8IQXGDNmjO4XiWHDhgWqVq2q1/nbb78FatasGfAEHNi5c2fA6wgCZcuWDZw6dSowbtw4vVYv39Hz8R04v5E66Ny1u+og4oiBJQ1raVMsREVbhQoVtLyVWbLE/EWKFAl+MsZcwFXj0aOzHjeeTbh2UMFHbkJ9BT04fk08p8SV3ph6bY6ZM2dOrdMoWbKkjgKUouLoQeKNLxQ13FFRUdpbO4cSTzw6+mB+wHk5F6MP58CHKpIDCXDteE6xL/vgRcXIxnLKlONS5cdsYK7F2QNRXst12zrjqY+Iwli8eLHa5TgIJVx+wZ2pc4XhttFwKB0FT4gyaNAgDaMQGoZplMlim8M+1Gi7+m2gIdIIXSMHRIjBAQ2U83qjgr4PrjYbUbEP10tdOjg3kUgQHjIVHggJCckQJ3BMrhUQD7ZAfB9sgPgeRuojrDCInb3QJtZcAIjxQ4VBDw44gPz444+6jVHAC700WQYcRLCmwcmD2J0cgM/T6Kneo+d10CAxOwAapDsXAnIiYZ/QemwcCLHIYcShgYcaIDiHknBwvYw2oSKkZh23EeDcmDEAgsN/avjw4erISA7CaGakLsIKg7ABswAM1+j1SZ4xMqCx0ksTbhDC8KAHpVEjFBo04ZYTFJ/j8wiN269DhgzR59jt0BgREQ2Y0ejf//63JuJAfTiNHcOEUGHccccdZ32G4xH20EAR1bnCiDRiICZGI87lXoceA5sdvheeWNxIwMoH+PtQk24FV6mPsMJInz699vAIgjs89PI0ShoaPTY9Jg2ZONtLTjWfID5HKF4iGzyKqNMId3a4Y8WdJHIW8gLuMtGw8IjFQxaHDozSWrZsqfth8MZdHxoquNAMmx4aJ2ENd7fwf+Lc/N7BuRAcUGNObuRGtbhA0DicOMh9Qt1F+K6EVfnz59dyXJwNCadGjBihricmjNRHktd8JweMUtj6+OESfsOAZKv5Tg4YwbDu8XswWhjGuaSJEcMw4kuaGjEMI6GYMAzDBxOGYfhgwjAMH0wYhuGDCcMwfDBhGIYPJgzD8MGEYRg+JLowqGVgQXzDuJhJdGH07NlTZs2aFXxlGBcniS6M0Ko7w7hYiSgMQqPWrVtrsRBQq8AqrsxK3bJli9ZjUKP94osv6nvURESqfzCMlE5EYVA5R9mnW+yeCjlKWDEawNSAUlcKmrp06aIFRZSExsd8wDBSMhGFQf1z6AiAUHACQSiETRgI1KtXL9aIwMIoIzUQURihhgeAMFwNNUJwC8qDCcNILcRLGM4ihzxj6dKlKgzqmwidnMUMhBoWGMbFTERh4OaBXQ0uHyTZhFaEUuQduHK40cQZojnDNcO4mIkoDDyg+vXrp3kEFjM0fMzHsLypWLGiWsjAtm3bNN9wFjSGcTFjNd+GEYLVfBtGGEwYhuGDCcMwfDBhGIYPJgzD8MGEYRg+mDAMwwcThmH4YMIwDB9MGIbhgwnDMHxIccJg6hYTFN1KrPGF2b2U4RpGYpDihLFr1y5dey9kbmO8mDlzpgwcOFCfs/YeqygZxoWS4oRBsRM1Hgld8LF27dpqzAAsm7xkyRJ9bhgXwqVdcDEIsmr1Gtm3b79Uqlg++I7o6qisnEpowyqry5Yt08Xqr776at3OUr/vvPOOfPHFF1raysqqNGrW9ma1Vxo6a2KzFHCxYsV0TW8WwF+4cGHsOuAsl/zJJ5/oiqvTp0+XTJkySfny5dVxhFVRKZBiH+pAcuTIofu88cYbWgvCqrLUgXAOtn388ccyYcKE2LBq2rRpZy2WHxUVJdHR0VZpaPgye848yZkzR+QRg4ZN4yLuZ+lglgfmX4QyY8YMbaANGzbUBkpDdjpbtGiRNlDWCe/WrZta7SAgmDNnjhw5ckSfAwvYs7IqhNaNv/rqq5IxY0Z5++23pXr16rqMMOel0X/55Zfy3Xff6ZLKLImMIFhXvHTp0irMzp07S/HixeXTTz+NDctYE3zo0KFnCcUw/IgoDBoqdd1PPvmkjhL//Oc/VSwkux988IGu8U0NOJY5rLu9ePHi2P0eeughqVSpku7Hut6MIuDnPBJqsOCEwfFZw5tRizW2KbMFPoN9T9u2bfWzrL7qliXes2ePHitv3rxq5XPJJZeoYOH9999XESNuwwhHvIRBb+3AcI2QhZCIGu977rknuCVmG703sF/oovLUjRcoUEANFfCmcgYL4ISBYRujAYvgY7SAsRultYMHD9byWho6i9E7EwaXh7C/E1OosBAF4RuhEw+EicANIxIRhUEjpHd2kNTefvvtcvLkSW2kND4HuQLxvnMkzJo1a3CLqLsI+xHOsE++fPn0/a1bt6oYEAqNmjwCAzdCIWrKR4wYIT169NDcJXRUcfkJhI44oSKBW265RTZu3KjiwlGRYxtGJMIKg9uejAok3MTpNHiS5KeffloTZPKHBQsW6GfJIaZMmSKPPvqoionG7+4M0VsjmgcffFBvo5I3EIodO3ZM+vTpo8k8oVBob8/nMmTIoOflOF9//bV+DvhciRIl9DmE7kdYlStXLn0OCOOzzz6TEydOqNAMIz6EFQY9LT07IVCDBg1UEOQNziKHXp3EGAcRbpXymh4fYRB+EbqwjWS9Q4cO2tBpwIwcderUkVatWmkizN0oYORwBm4k3n379pW6devK6tWr5YknntCEm2MTjjkhIJxDhw6pAKBq1ary2muvyapVq/Q118qo9Morr5w1uhlGOMK6hDA6MCLQ+PlYXA3r3G2dOnXSPOGpp54Ku18k3KX9lQbNj37kPiTqhhGJeLmEEK+TvEK4xnnuNkKb+OwXCfa90P0Jv3r16qW3gp9//vngu4YRP8IKgzCH26wJgV6ecIvfEJITchgS9lGjRmk+ZBgJIawwuN3KLdKEQA/PbwXJ3Rjvvfde/c3FOSUaRkIIKwzDSKuYMAzDBxOGYfhgwjAMH0wYhuGDCcMwfDBhGIYPJgzD8CHVCoOiJmbU+sGkQ+pDEgITF5ld7OZvGambVCuMZ555RmtAzoWGzcxeZtwmBKbVM9XFSBukSmFQRMUyzK54KRQKpdjOVPqEwMRIprD/lUmRxsVDRJcQpmxjNED9NU4gFC9RC0EDISQZP368Om9QiERjo9oPwwIMEKjBxnxg9uzZWmfNa5g/f74WKGGywEqwmCZQ9xFa8ecHJgoYKmDCsG/fPp2oyHVwjePGjVMXE66DoidcSKgXZzIhDiLDhg3T+hJGDFaYpT6dbVw/djv4UuXOnVtrxYHa8f79+6tDCQVVjBiYLZQtW1a3G6mTeLuE0HBoZBQaUTz0zTffyLx589TVgyIkjA7atWsXW39BI6LqDxFR0Uf4QaUfhULAvpSqPvvss1pQRKMcPXp0rB1PXCAKppFTs01tBe4f2PMA10iVYdeuXbVAioIpN1ogJAqgOCdC6t27t25DvJS6UoLbvn17rS7kuAgC8TijBayDMIGbPHmy7whkpE4iCgOHDho79d307kOGDNES0UmTJqkRAg2fnpRKOxJUQg4ejA6IgRJU6rNdssvIQzUgZgaMIkxrZ7TIkiWLbo+LChUqyMSJE7U2nLptGi3XRq8/cuRItdHJkyePVgMyctGIEQTiQQAYOCAaRjS2IdCDBw/qfny+cuXKek1UC2LLA5TpYu6AGBkdXdWgkfqJKAzCEaxumjZtqj0rDh9AiWmVKlX0uYNemJ6fbXfffbda6gAhDA2akIfip3Llyun7gL9UpAZHD46gKIWlkXfv3l1mzZqlZbQcj3O6enDgPDR+ipUQZuii/G7b999/L9u3b1dhM1rw4DpxP6FqkWnrDvZh+npCp+AbFy8RhUHjpuenzJUGRQhEQ6UHDXXcINmlppveN7SCD/CRovFzC5VGFppL0AhdvXZckKP897//1TJVcgVCJURIMkxjDjU/YBRwriFsc3kNYJRA6IRI+Vzz5s1l6tSpsQ/CP3II9iPfcCAw9kmobahx8RJWGPT8JK40QnpMwhRCKiA8IhwBfi/AnoYQCWiYoY3dCYPiJcSEcIC8AYO2SMIgJGJfRMq5yEtopAiC0YIcgJAK0RHqcY3kNYR4iIHrZzt2nxi3cRxGG0RJ+IfQSbJdzsJ+JNtAzsFohdCMtENYYRD708M6hxCcQEhGuROEawfCefzxx6VRo0YabjVu3Fjj/nTp0sU6DdLweA9hIC4SaO5I8TsDSXqo40dckBsgKIyb/+///k/zAWJ/7kLhCoJgmzRpomEW4DTCNXLdjBhcK2EgIZVzIWEbx+TuFA8sfshjAHdFXEb4Xhi9kVuF+lgZqZ+wLiEO7vvTQ9PgQ2FXenAaWHzu75NPIBKXD3CHi7tGhGkhl3EWHJcRgO1chwvfeB16TgR27vU5wm3jmGzzC5PC7WekTpxLSLyEkVhg9MzPJtzl4U4XgnDW/YRbfhDC4ENlGElBsggDCL+4IwQ1atQ4K3E2jOQmXr5SfwfcSSJ252GiMFIqFkAbhg8mDMPwwYRhGD6YMAzDBxOGYfhgwjAMH0wYhuGDCcMwfPjLwmBGKw9g3hHzi5IDzh3yI34svBfXNsOIi78sDFYrYjIgkwmZnerW4k5KqP+msMjPLofCqtDlmA0jPvwlYTA6MPeJaeMU91CqGrr0cVLBFHSWFHMVg6FwfebuYSSUeAkDDybqMFh0kkIgin4Atw1CFOoV1q5dq4YI1IIzgxaDAhdWURnn6qgBlxBWYAVm2NKoBw0apPshMIqEMF944403tFAoEpg14BwCTGtnMU1qMzgvwrAiIyOhRBQGYQoFSPS6LVq0UJFQbARU4tHoqFmgao9GTdkqEwQpFWX9O6Dxh4ZYiIICKMD25qOPPtKSUuo0aNC8pvCIqelsj8RXX32lgkCkmBtQlko5LsVGlMSaMIyEElEYlHniK4VZACELRgauUSMGV33HiEGVH64f1EdTZUd8z6hBrYWr6AM+S2PFowqhIYbSpUtrnThuIjRqjkvVXHySZncdjBzsjzARGfXprnrQMBJCRGEQ5rz55pvag9MbU3FXsGBB3caIQaPjrg8iuP/++/V9YIRASNRjc9eKWmv3PiWtjEAIht7dNVzCHlZadQtbbtq0KfZcccGogrgQHiGaK08FRGnuHsaFEFYYmKphskbPi1kANdaYDLjQxAmDemnKT7Gecfz44486AuAegvGAKx0lvKEOG58n9vczTXAwsrBvONiH0QExOaE5MGEzdw/jQggrjAMHDmiiTXIN2FhiSEYvjnMHvT+9MQ2YnpscA2j8hDCVKlXS5BkTAkIiPs+Ic66wHKHC4LyMQpGE4axygPPgTQs4k3/44YeWXxgXRFhhIAjCI1w0cNogJCLU6du3rzZiRgR6YwTx2GOPqaMG7h/cXeLBNlwLyUkeeOAB6dixozZ8N0rQ8J37BuEYjdr5UXFMRBdpvXDCLbcPoR53v7AKxTsXax23zTASQsSabzZjToaZGqESr/Fp8gtPEA5GbPyW4fyngFifEYBjJMXvCc65xDASSrKZISSU6dOnx/lbBt65/HZiGInFRSMMw0hKks0lxDAuBkwYhuGDCcMwfDBhGIYPJgzD8MGEYRg+mDAMwwcThmH4YMIwDB9MGIbhQ6ILgxkmrtab6eesmxcJJiVGgs8wjZ3FJs+FSkCWT2ayo2EkBokujBEjRsQaHTDFnLLYcGCowPrdkaCunFVVKZQ6F6aoU/yUHA4lRurk0i4UTgRZtXqN7Nu3XypVLB98JwbqJCj6YdF5qvWKFy+u08qZ9YrRAVPKo6Ki9DXCAEpZly9frsVJrP66dOlSNTnAg4qenVmxlLL27t1bC6KYJk65a1xQkMQxEBvTyseOHSsTJ07Uae6cl2sw/yjjrzJ7zjyvk80RecSgEg5zAeq369WrJytXrtRCJaDhY5PDAvWEOfTYNNQ6depoiSliQRisudezZ0+pWbOmLiM8bdo0df+gkIhKQIqZEFs4vv32WxUlUIO+Y8cONV+gftzW4TYSm4jCoFyU0QJxUD9drVo1NR8ASlMpPW3Xrp26fFCEhCkB626zn3PvwCeKEYGKPKr3WIgeSx7Eg1kCi1RGMj1wx6LqD6HhJMK5XnzxRRWvCcNITCIKg1Fh8ODB0rBhQ2nWrJn0798/tg4bYSACV5XnGi8gHpwBafyUtZYsWVLLY7t27apCAZdIu5ryuCChp66cY+MEQoFSaAUhyb4Jw0hMwgqDnpg6akIoQh9CFnIH5xFFjkCDd4SaGziRIBpGC0aVKVOm6KhDTTZ5Bp+nQUdaZJ5wC7MFzs05sQJ1IJgsWbKc5Q5iGH+VsC0S+xxuhTrzAnprcgwaN42V7aH2N1jluJDICQMnQ6x36NWpGce4DSFgjMbn4+P5hIAQIwk/IuPcQBL+3nvvqbjMm9ZITMIKgx66SpUqUr9+fe3laZA0wgEDBmhjRQQYHDhKlCih7iCIxwmDhJzbqYRR5AXkKuQF+Erh4IG9pruTFRehIRru6lj4PPfcc9K2bVt1F7EwykhsItZ888Oa84biQc9PWIMg2DXUDQSXEMRDWMM2RgbXk+MzxXbCnlBXckYdXmfMmDH4zvm4HwxDQy5CMUTnt80wLpQUZYZAiMbdJj/wsXLeU4bxd2MuIYbhg7mEGEYYTBiG4YMJwzB8MGEYhg8mDMPwwYRhGD6YMAzDBxOGYfhgwjAMH0wYhuFDqhUG6wYyA9gwLoRUKQxqQKgOtPW9jQslXi4hCxYsUBscZsGyoLyzsGFKOiYFmBuwemqBAgW0kIh5idSJ87lJkybJDz/8IHnz5tVp64CpwfDhw/W4uIWwzh5mC267HxQ1LVq0SM0PWJmVykHcS0aNGqV2PbiEUHLLNHfKcVlVFuMFroXPU4HIYv5cR7Zs2fSYTINnX2x5WJccIbnp79SQjB49WubOnatT5jk2U9s53rx58/R41J7zHTF1MFIH8XYJmTp1qgwdOlSdPMqVK6d2N7iCUNlH8dGaNWv0fUwNmjZtqo1t+/btWlnH8sZ58uRRRw9KZIEipubNm6srSOXKlaVTp07Sp08fFVw45syZo8dEZBRE0ZBZmJ/aD64Nax6sfCC0xPatt96SCRMm6DXSiKlbZ0QB+gQKpdgfQTRp0kSvH1G1bt1aSpUqpZY8CHfIkCEqCmrWP/30Uylfvrx+N45HCbCRyvD+Z8cyPurjQJduPYKvYvAabeDVV18NnDhxQl8fO3Ys8McffwS83jTgNXZ9D7zRI+A1sIDXYAOzZs0KeI0+4PW0um3p0qWBqlWr6vMWLVoEvEamz8FrZIGaNWsGX8VN+/btA16jDL4KBOrXrx/wRqvgq0DAG80CnuD0ebt27QJRUVF6LTVq1Ii9dmjbtm3AE4M+37x5c+DAgQP6nM+ULl064DVy3e7lKLHXzzZPMIHFixcHateuHTh16pS+Dy1bttTva6QOOnftrjqIOGJQ0kqYgiHCO++8o9V7hCvn2m+6aj16XnrssmXLxoYYhE6ETIReK1askAoVKuj7QN12aN14XLhjAqMTxxw4cKA8+uij+ujRo4f29uBKYQnV8LXC4cR9jnCMz1EBiDnDyy+/rCMFdj5Zs2bVB+W82AGxqD/HJXyjUnHhwoVqDsf77njLli3T+nUjdRFRGFhf0gCpyyZkIHwBSlIzZcqkz4HGSuMhTqcRhzZ24nUaKmZsiIx6bwf5QCRhELZhx+Mq+SifxSmEEIlYn8fkyZM11EIIhHK4GvI5Grz7DA+cEO+//35t8FzPu+++KyNHjtRG7pwQMW3wRigVDt+HEJHvx/F4Hno83Bnvu+8+3c9IPYQVBo2R+BpIjhk9qP/2Rhxt6JgSAK8RTq1atdTvCYub0MZOzM7nqe1mVNm9e7e+T89Ow3L5QFywPwIlpgf+RZgIlUbMqEMDB86NiQM16eQUvOYzPJYsWaI3CxjdGHHIIbhZQM5B3oAwEBYOitSSc70Ihg4AcZK4hx6PZJ4bElZvnvoI+3+UsIheE2eOjh07qrsH/9K4cQ4hcfXyD+1FaVAvvPCCNlZ6V9fYaWBuxKCh4S9FIs6xZsyYoaKKNGIwAuEo4kAkiJTRq0OHDmrVyV0jRBk6WtWtW1fvXHH9JNPDhg2L3cYdq169eul1MCISpnE93OZFsE8++aTeGMDVBMM4HFEIJ6lN9/Ikeemll/SOWDi/XePiJV4138TYiIFRI9TNg16UsIXbny48Io8gD3G3Xjn8kSNHYsMu9nG3PQmjuMvjRqW4YETg86HuIoAIXVjlznfuZ3nOyMe/jCShvTvXTn7A+3w/jsV3cYbVXDd5UujtWI6DkyKfx0HRRovURbKYIXCblwQe23/EQ07ArVsaIyGKH4w0JMKGkRQkizA4FeLgzhBwV4vfJAwjpZAsLiGEH/yoxx0fHiYKI6ViAbJh+HCWMLirc/jQoeArw0h7HPdyX27hnyWMChXulbnzv5NDhw4H3zGMtMORo0dl8ZJlUrDgDWcLI3eunFLh3nLSrv3rsndvzEQ7w0gLrF6zTtq0bSd33VlaSt1269l3pUB/RR4yTEaMHC1ZsmSWyy79c+Uiw0iNnPnjjKS/Ir00qP+oPNGwvv7mdp4wHKdOndYJc85m3zBSMzlyZD9rSYs4hWEYaRm7XWsY5yHy/wK8mmqSa/1YAAAAAElFTkSuQmCC;" vertex="1" parent="1">
          <mxGeometry x="120" y="240" width="200.31" height="260" as="geometry" />
        </mxCell>
        <mxCell id="avPWlsC1YsPm1SDDJ07k-9" style="edgeStyle=orthogonalEdgeStyle;rounded=0;orthogonalLoop=1;jettySize=auto;html=1;entryX=0;entryY=0.5;entryDx=0;entryDy=0;" edge="1" parent="1" source="avPWlsC1YsPm1SDDJ07k-4" target="avPWlsC1YsPm1SDDJ07k-6">
          <mxGeometry relative="1" as="geometry" />
        </mxCell>
        <mxCell id="avPWlsC1YsPm1SDDJ07k-4" value="" style="shape=image;verticalLabelPosition=bottom;labelBackgroundColor=default;verticalAlign=top;aspect=fixed;imageAspect=0;image=data:image/png,iVBORw0KGgoAAAANSUhEUgAAAMkAAABnCAYAAACq0GabAAAAAXNSR0IArs4c6QAAAARnQU1BAACxjwv8YQUAAAAJcEhZcwAADsMAAA7DAcdvqGQAABXISURBVHhe7Z0HXFb198ePOUDFgQtRQ1FxL1Ss1Ja7UstyYe6ROfqZDc2Rv+yfmjl/WeYqNSVFECc5ysEQzI1mIihORAUFUZYgz//7Oc+99Jg8XCxQkvPudV/c713PffJ8vud8v/ee8xQwKUgQBKs8pf0VBMEKIhJBMEBEIggGiEgEwYBMB+6xcXHk47OJvL3X87ogPOnYFClCLi41aNKkieRcraq21cwDIklOTqY33+pJdZzLUq/OruRUqay2RxCeXJJTUmlPUCgt9QymZUsXUf36dbU9mYhk/v8W0LnQgzRj3BvaFkHIP/y4PpjOxRSmmV9O17ZkMiY5fjyEurZrqLUEIX/RtX1j+uXXPXT37l1tSyYiSUpMpuJFi2gtQchflC5ZjP+mpd3jv0BmtwTBABGJIBiQ4yK5EXuH4uITeT3y6k1KSUnl9exy5VosJSX/GQ/mRSy/Y06TmppGF6/c0Fpmt4/2vXvp2hbhUZPjIvlqkS/5/3aa/3H7j11KcbezNiZMrl3SjALrk2atp+gb8dzOS+j3CBZ77KHDJ85rrcyBiOLvJGmt7BNy6hJN/Mqb16/F3KLeo7+j/32/874YWXi05LhIws5do1rVK3LvV9S2MFUoW1Lbkzkhpy7Scq9AXi9QoAAtnz2UnCqX43Ze4dbtJPp0jo/WIpo4ugu1bVVPa2XOnCXb6HJUrNbKPuH4/+fswOseG4KptZsLzfnUnWxsCvM24dFT8DOFts6sX+9DzzauTA7lS2lbHuTUmSiau3Q7bdxxhIIOh1P92pXJrpgtxd5KpJXeAfSfge3p0IlzqjdNok4vWp9ODjwUpoxpO8XcvK3CCROlm9LJZ9thcmvsTGs27adzl6LJc+sBWqcWu+K2dPduGk1Rxrr5lyNUu7ojlbW3o/R0E+0M+J3mLd3B50SrazWp50RPPZW1/pOTU2nl+kBaorzCzoCTeGJELtUq8r6VSrTXbtyiRav3sEC+Xfkre7fIa3HUoFZl+nz+RmqjRHJFtSEGb9+DtMPvBJUuVYyedixDM7/zpV/3neTQsWGdKlTSrihfNzPCzl2lGQu3ksfGIBVq3eM27uPQ8Qjarq55Iy6BQ6366nOFR8MPXkE0eNAAKlzY3DE9tCdJTLpL42d4Ukdl/As+70s1qlagaQu28L7wc1FU7enyVKRIIQqP+LNHtEbzBs5UQP03akA7er29Kx09cYGffIJdysh+DTxJQ3q9QL27PkNfLtxCW3cdo+nje5Br/aq0ZvN+Pm7NpmDavvcETRjVmeb/tw/9fvoyrd92iPdlxaoN++j02as0a5I7fTqmK81btoMNFOxQosM1h7m/xCKvXLE0devYjEb0fZmPgRDh9SbPXk+tmrvQN//Xj8YM7kCr1u+jhMQUatGkuhJLWZo6thtVrFCar5kZKXdTWfTu6vstnz2MO4vAg6epdo2K1OO1FpSqQqyJo7pQl7au2hnC4+ChRVKsaBHauHQMuare+vzlGCqvwin8Y4MwFoa5Nw4/j7DLkdetYVL/RUXHUZO6TmSrQjMYYK3qDhx/Rygv8m7fNspA7VUPXZw9w8h+balUiaJUxdFe3YcNf+4K70Aa0a8Nz2/bqpAE4j0Zdln7BOtAANPHdVfe7w7dSUhRXqkECxSTBpejbtLI/m2Vt6pIJexs6ULkDfYI8GZhEbhH8/eCEYcqoaWkpHFnsXDaACpezIauXI1jQy+l7qlgFh7Nd1eI8hoO1Kyhs/p+Bei1No3VPaRRTbUtISlFeZB7VKeGI/+/ER4fDy2SPcGnaOTklfSZCjm8VJjh/fNBqlqlPO8zG3lFHoCHn7+qjCxrTwIhVVRhHQwRcKihRIbxjI3yRnVrmo3xrDqujjJM3VjOnL9O1aqUpVAV9uGzvlLhzftTPXjZuOOwElYZPs4at+8k0ydfrqP3/rtaiWyfCnWCKfJqLDmr73H2YjR3BNWdzN8JQoRIXJzN93JaiQSGDeZM7k13lOfo/8ESmvHtViW2ZN6O715LOz4rMPh/xrW61iK6q0TnUK4kh2f4nJpVHVg8wuPloUSCXvaLrzfTf1RoMW9KHxr37qtkr3r5WprRmL1HRYq6HqeMl8ixgj1vtwYGqbrB3YpPVPH3HaquwjUWmzIyhDQAosB1dWBA1aqU4962purBl3015L5l+Nsva0dmzg+e/ux1Fn7Rn6aMeZ3ata6fIdZwde16LpUzPEDExRgqU9pOfU/zk1i+N+UlgEO5Uioc6syTDYnqXhb+uJu3mycvsu4gALylfSk7rUUUfPhMhicOOxvFHYbw+HkokSC8wKKiJA6Jtu46Sn+ER5KjQ2mOxSEOF9X7sZGof2CjXvCqOh4GCMJU7wuBFCpUkM6o8xHq6Jy5oNoq7AD30tOVaK6p8MaBw5JwJaCLkTG87+jJCzRhphd7l6yAuEC6Og7nemwIYpEACF33YADfqUzp4jxBAE9xLfoW1VBexnPLb7TD/wR/FjwcOgu74jbcvqpCyDKqbUQlB3sVvkXxOsI4eGUXbRzHHstgTCc8Gh5KJAgDRqtBNgbuQ8Z9z3F813autMIrgEMkt0bObDCxcQm8bkRrt1rkf+A0GykGrS2a1ODtiUmp5NrA/E4/jA6LbrjXY+J5ZguGi+nl8SNeVQNoH+o3djGt9gniwbXugawxqOfzPJ7qNXIheW49SINVOzY+gfbuD1VjgrvUuO7T2pFEjdRYBJMVn83bwLNZuEebIoXpuaY1aN/BcPW5S2j4hBVKvCYa0L01f3bHFxrSx9M9eXYrKz4Y2pHFMHT8D+S7O4Saqu/coHYV3nc39Z7yaJV4XXi8PPCqvLt7XxrTz40aWRjK3wGXxZNpa9grI89qUPtPwIM8aw/fEFLByHMbTNvG3krQWg+C6WsjMQuPh9Y9ZlGg/24qVsw8dZ9rIkFYtCfolNZ6kOeVF8mtB2QHjp2leDU4zwzMUmEskdvgOQyeA1kDDyNFJHmTRyYSQfi38leR5E68IwhPECISQTBARCIIBohIBMEAEYkgGCAiEQQDRCSCYMADz0m6d+9FzzVyoCqVsn6TVhCeVGYs3EZBgXutP0zs9mYvKl++LJWxt54sJAhPMtt27qLgrETSp+9A+vijseTapLG2RRDyF03dWlGg36/yxF0QsouIRBAMyHWRhIWF0e+//661/hkxMTHk7++vte7nypUrtH+/uTiEIOQkuSISGGtKijn779ixY3T1qrkKiTUuX75MZ86c0VrWOX/+PJ06lfnr9zt37qRt27ZpLUHIOXJMJBj/o7rHnTt36IsvvqAiRcyV6Xv27Ent2rXjdZ2/zBXQokWL6Nq1a1rLOs2bN6fhw4drLaL09HRKTTVXajl9+jTVrl2b1wUhJ8mWSG7fvk2TJ0+mN954g95++22aOHEiJSWZS3h+/fXXNHv2bOrRowctXryY3N3dKT4+nt59913+1axOnTqxcEJDQ6lv3740aNAg6tq1K82ZM4eNHILavn07ffPNN3TkyBG+pjXef/99Cg4O5vVVq1bx/QwYMICWLVvGYZ2IRMgNsiWSgIAAKlasGHl7e7NxIuzx8/PjfQin0F6xYgWNHDmSXnrpJXrzzTdZMBEREexR7OzsWEgQyfLly8nLy4vraMF7dO/encqUKUM//fQTNW3alK+ZGRDU4cOHydnZmUMuX19f8vDw4PPi4uLo4sWLIhIhV8iWSF555RXq378/7dq1i37++WdKS0sjW1tbNlz04PAOEAJA2FOnTh1eh/fQDbdKlSq0du1aCgkJIRsbGxo7diw5OjryMTjeKJX10qVLLDgHBwf68ccf2RuVKFGC9zVp0oQqVaqUcQ+CkJMYiuTmzZs8rliwYAH3/Aih4CFq1KjBhoufzapfvz4fi7EGRKOLxFIwCNe6devG4w+EScePH+ftlsdkhX4cxATvZel1EhISxIsIuYahSNatW0dOTk40c+ZM9iYId4oXL06VK1dmQdSqVYu9CoiMjGQv8/TT5vx43UsAhFevv/46fffdd9SrVy8WHcjugFu/FsZC0dHRVLLkn9XqMaslIhFyC0ORFC1alKdoz549y+MQjCkgEkzxwsB1LwIwNoBg4GEglvDwcDbsNWvWEIrXX79+nW7cuMHnQVz6OfAEWLJCFwlCtYYNG3LYFxUVRd9//z17FhGJkFs8+NMLPhupVcvnyLGiuYJigwYN2Og3b97MMT+mYPHgLjExkQoVKkSurq483gAYgENQBw4c4O2Y1erQoQO5uLiwGDALhdmpevXq0TvvvMPeBR5h69at1KhRIz7fGhist2/fnschbm5udPToUdq9ezc988wzPKmAcRMELQj/lMVLf6DBg/pn/PRCnnjBEbcQGGj+IZ/MgCj0kE4Qcps8+4Ijxj3WFngsQXhc5AmRYMaqatWqVhcRifA4yTOeRBDyKiISQTBARCIIBohIBMEAEYkgGCAiEQQDRCSCYICIRBAMEJEIggG5LpJz587xK/WC8G8lV0SCN3SRjAX27dvHr9lnBaqpIAVYEPIiOS4S5IVMmTIl4zVj5LXjNfasQLYiXscXhLxItkSC3JFp06ZxgQcYPSqc6HW1YOCodNKnTx/+i2oqsbGxXC0Fx+Ac5JXAmwwdOpTz4ZG+iwxFvCKP6yKB6ttvvzWslvLhhx9ywQnkouAa+DydQ4cOUb9+/WjgwIHUu3dvCgoK4u3waG+99RatXr2ai06gqsvJkydpxowZ1LlzZ/4+SEkGCA1RkQXbUQbJ09OTtwv5HOSTWOL+9gDTkaPHtJaZzZs3myZNmmRSxmRKTU01KUMz7dixg/cNGTLENHz4cFNMTAy3586dyws4deqU6bXXXuP1YcOGmbZs2cLrSjQmJTRTZGSkKTQ01NS2bVtTeno677NGWlqaqWXLlnwfuIfo6GiTm5ubSYmPz8U9+Pv787FKIKaOHTvy+h9//GFq1qyZ6ZdffuG2EgfvU0Ix3bt3z9SzZ0+Tn5+fKS4uzqTEYdqzZw9fT4WAfF8qDOTzhPyDa/OWpoSERK1lMmXLk3Tp0oWrmyDjEGVGCxYsyK+v69VSlFCobNmyfKxlzrpljnv58uU5uxEpvUj/VcbOFU4sCzxkBUoGofjdRx99xJ+tf36pUqX4XHgifAayFS9cuMD3CHB9ZFcqg+c2cuRfffVVzo5EZiSyGcuVK0dKRGRvb8/r8DTIo0fGJbyLkL8xFAkKzaEAxNSpU9l4kLoLQ0e1FBR+gNFZVkuxFIblOrKE27Rpw+EVwiEYL9BFYgSOQxpw6dLm301BWVQYNMSJQhAIo1AXDOnDBw8e5PsDOA+pxLoIIWqIBiAPH9epVq0aV2+BCJGPry8odoFFyN8YigTGgtxzVGrEOAMGht4XFVF0w0WOOUBhBpQdRaIUsBQJen6IA4UkVLjDFRzBw4gEvb+OXmQCoJLLJ598wmWLIGh8lr4P59WtW5fXcW/wDLqnw4waRIf7x9gFHhMixoJOAWMvfD8hf2MoEsxSocoJBIAeGsUcEOIg1IEBWlZLQY0uhFKo/m5ZLQVliTBQxgAeg2RcC703QPUU9OD64NkalsYO4AEsBYj9qAuGgT2q2KNgBO4BnkM/D6LA/SHMAxCxXrUFefSbNm3ie0eoBdH5+PjwPiF/YygSzFbBGD/++GMek6C3hjeBQaF6yosvvqgdSdxDw9jQs6M6CsIrhERq8M5hCzzRmDFj2DN98MEHfA5q+aJUqdFzEhg2KjXq4BqolALmzp3LYxFMPTdu3Jg/47fffuNrvvDCCxnVXDBLh7DMcvyjj1VQOA9T1RjzjB8/PqNcqyDkmWopqPNrDdTZQr0tQXgU5NlqKfBK1hajmS9ByE3yhEggAoR01hb9t04E4XGQZzyJIORVRCSCYICIRBAMEJEIggEiEkEwQEQiCAaISATBABGJIBggIhEEA54okeDNYLxhnFPgLWK81Im/Qv4lV0UCo8Xr8Y+K6dOnc2JYToHckwkTJmRkOQr5k1wTCXJExo0bp7VyH3weckfwrldOgRwVXE9esMzfZEskyMNAZRLkXKCKyOzZs9ko8Yo78kJCQkL4OKT6ImcEVU9QhQTpvSNGjOCEKvyMNPYhvxwZinplFFwbx3p5eXE+B9KBUfEE+Sr46+7uzum5Onv37uXjUXkFi56HgpJESL4ySrddvHgxp/nqbNiwgSu3AHwvVFXB/fn6+t6XWSnkX7Ilks8//5yN18PDg7Zs2cL54CgDhB72+eefp5UrV3LcPnHiRGrdujU1bdqUy/K8/PLLtGrVKs47x75Ro0ax8Y0cOZILQUBoyF6MiIjgdWQCIrsRmYUw+iVLlnABCqTS4vpI5EIaMc5FhiQ+a9asWXyP6PWR9GXU66PUEDIrdZCchdfxQUBAABfWQ4fQqVOnDE8i5G8MRQID9/Pz4/xvVFrEwBgigAEBiAFjD2Qs1qxZk3t5YGlga9eupZYtW3LqLOJ8ZAqiiB3qcyFEql69OvfeyJ1H28HBgX8vHq/IY8HPU8NLIB8dHgdVTvbv339fym92DBopx6j/ZZm3jt+Hh7gwdoLne++99zibEmLL6fBN+HdiKBKESehpEaYsWLCAF5Ts0Y0Hxos8ceS/jx49mrcBS6NF7wxx6OdjadasGYsGxyHlVgdtVDfRK0BCgHrhBoRCSCdGcYoTJ07wb79bVkUxMmjkwEMoejovwkMIA/cPj1ayZMmMIhaoCgOkWopgKBL01sgtnzdvXsaCSifwIADVTyAU9M47d+7kbajcaFmVBG1UX7Q8H3/hOWDcSM/VQduyKope8AEFGubPn88LyhNhPIIQDfswNsqOSHBP8Fq4X4BQq0KFCuyh9PvQwzWMR3D/8FpC/sbQAiAQhDYYIGNcgKINCK0AxiUoVgejHTx4MI8hcAzCKHgClPBBz41rIExCGz03jkWYg2MhAr0OFrCsbgIsSwcBhH+osIIxCcYtKCiHai4Qs5OTk3ZU5uDzMbZC2IipYtyvLuS/ijM7ohPyB4YiwTgDosDgGaEOjByDcBgmZpowI4QxA6qkIEyC8WFMgUopmPmCSDAVjB4a52PQPWzYMBYCBumoeKKHNDB0lBrSDRdgfAAR4S+qoaASCz4fVVBQYwsTA/Ay8GxGzzNatWpFjRo14nq/27dv55kzvdoLQr8WLVrwOoDIn332Wa0l5GfyRLWUnAKzZJaDeUsgRMtZLUGwRp6tlpIToAojRJLZAo8mCH+HJ0okGENgejqzBWMXQfg7yNSNIBggIhGEv/CXYfqDIkFYcv78Ra0lCPmLpKRkfv5ma/tnWd0HRNL9rW7001pPGegK+ZLlK1ZRq5bP3vcQ+YEpYKho0JDh7HIGDujHT6MN3hkUhH89t27F08aNm+ng4aO0wXsNOThU0PZkIhIAofy0Zh0FBO57pElTgvC4KFy4CL3SqQN16fwKP1i2JFORCILwJzK7JQgGiEgEIUuI/h+EUDA8y+ncvAAAAABJRU5ErkJggg==;" vertex="1" parent="1">
          <mxGeometry x="119.00999999999999" y="520" width="201" height="103" as="geometry" />
        </mxCell>
        <mxCell id="avPWlsC1YsPm1SDDJ07k-6" value="" style="shape=image;verticalLabelPosition=bottom;labelBackgroundColor=default;verticalAlign=top;aspect=fixed;imageAspect=0;image=data:image/png,iVBORw0KGgoAAAANSUhEUgAAAMYAAAETCAYAAABtH3l1AAAAAXNSR0IArs4c6QAAAARnQU1BAACxjwv8YQUAAAAJcEhZcwAADsMAAA7DAcdvqGQAADRmSURBVHhe7Z0LuE3V+ofHqZQuRMolSqJOSSRHKo5bbsmthONS1JGUInQIIbmFFFEhIg4iUe4iwimikFuOcknucg+RGv/xfnuN/V8019prOzu2tb/3efZjzjXnHHMuz/jG+MZc4/cbf7EOoyjKKVwQ+ldRlDA0MBQlgFNSqb1795kJH040EydOMgcPHQ59qijxyyWXXGJuveVm82KH9iZXrpyhT8MC4+effzY1HqxlihTIaWrdf4fJmT2znKAo8cyxX06YTxasNe9NXGJGjRpu8uW9UT5PDIwePXuZQ7u/M52aV5YDipKWGDJmoTn429Wmc6cOsp84xli5cqWpXv720J6ipC0erHiHmTJ1WmgvLDCOHTtmLrv0ktCeoqQtrsmSwRw9djy0p2+lFCUQDQxFCSDFAmPPvkPm4KGjsv3j9r3mxImTsh0r23buM8eP/xraO7uE35t3Edt27nfd6gnZV9ImKRYYXftPNktXbpIK1uC5weZYEpX899+pgPsSt9v0HG8OHE4IrLPJyZO/mUdbviP3/u23382/eowzL/f/yHy3eWfoDCUtkiKBQStLRbo5Tzbz/Q+7TdYsGc2VGS4NHQ3myxUbzNiPv5TtCy74ixndv6nJdvWVsn822bJ9n0mfPp0886Ll35uduw+at7o3NIVuvT50hpIWSVZgrPrvVtPGtajPdBxlOr820fy0L+HX8R27D0hrmzPHVea7TS5Abswun0di7hdrzWvvzDTL1vxgPpr1tfnK9TTvjlsgx9774D9m2twV5qXXJ8l9Fi373qxZv800bTfcPNXhPbNxyx4577fffzdTP11hmrYfIT3UsHHz5bOkIN3rPWi66yWGmJ5vTjUrv91ibrohu9xn8Oh55qDrOfhcSdvEHBgHDx8z7V4Zbx6sVMS80aWBtO59Bs+QY+s37ZLKdeEFF8j2zXmiB8Y9d+Yzx90YpFXjiqZSqYJm6TebzIlfE8YksxauNp8tWmeerF/GVK9Q2PQYOMXMWbjG9OlQ1/zVBdyE6UvlPAJp4ZL1pvNzNUzfF/9hvly+wUz79Bs5Fo1+735irs58hRnet7Epc++tZpALhr/emM0UKXCDyX1tFvOPqsXMc49XCJ2tpFViDgxSo8nDWppb8l5rftj2k8l6dUbzS2gcIb1EKBjWx9Bj/HL8pDn08zFz+y25JI1JuCaH/Dy/dcc+8/Sj95kcWTOZTBkvM+nSXeT2y5oMV6SXaSqXX3qxOXL0uEvDFptmfH55evfZJabC3283q12PFg3KXvrNRvNozeISxHcXzmuuuCy9uck9+yWXpDObt+41BdwzXeHKVNI2MQfGrAWrzNMdRphub3zsWu2vzMezl5k8110tx76jl8ibTQayG7fsTjIwvtu0w9yQ62pzycXpZHwigeHGJxtcmpTFteZ5rrtGzvt+826TP18OCQ74zu3ndtetXPejufDCC9wg+WPzXJfR8jdz/kpzbbZMcl4kvl612dxZILe56KILQ58Y6am4twTlzn0mX+5soSNKWiamwDjg8vJXXN7d9ukqpm/HuuZfT94vrfRNrkKBBEaeHK4n2WuuvOIykyXTFfJ5JDj/phsSrt2995AE1LXZMpvvNu6UdMnz3WZ3Xlhatn7jDgkMKvFtN+cyQ3v/85S/RrX+HjozmE0/7jGZr/z/Z1u3YYfrvU4kjI3cveilLr9Mf/1XYgyM4yd+dQPbhNnpVOJJM782G37YLRVp34EjkhblzpklIaVy+XpS7Nh90FyV6XLZXu+CgTSMN1NUzvDA2PCD28+bQ7Z5hi0u8PJen1XOX7N+qwz6gTdcnfpOlO1o5Mia2fVCu+RFAcH+9qi5Jq/rIWRstGFnYrAqSkyBwUC7Sd3SpvlLo03jtu+a63NeZe4vXdC8M3a+2bZrv7m3SD5JT/YfPGqK3J4ndFVkSha72aVmq834qUvM3v0/m6KFEqb60nrfkT/hNSlvmC5wFfbWUGAQTHfclttc5sYYuVwL3/yx8qZNz3HmkZaDzYcutWOwnhQPV/6bpGl8h9eHzpQgLFow4Xl5G0WapSiQOO28eo2HzMstKrhWM6scOFP4sW7fgZ9De3/kKpdm0Tv8GRCYv/32W2jvVDJecam5+OKEsYqiBPG3at3N2lVfy3bMg+9YoWKuWLsl4t/vMfzWcKas27A98J78ke4pSqykeI+hKOcrf2qPoSjxgAaGogSggaEoAWhgKEoAGhiKEoAGhqIEoIGhKAEk/o5R+YFqplKJvCbbNWdfRacoqYEu/ack/o6RGBgV769mbsyT21yZMYMcUJS0xuRps/4YGNUfqmN69+xm/vrXm+SAoqQ18t9eRH/5VpRoaGAoSgAaGIoSgAaGogQQU2AwPg+N0VOEEydOpGh5yeXXX38N1IXwOX+KEvWt1GeffWYGDhxoMmTIYPbu3WsaNGhgateuLUsGjB071syfP1+OwUsvvWSuvvpqM3HiRPPVV1+ZdOnSmWXLlpmMGTOa/v37y7H//ve/pmvXrubkyZPmiiuuMOXKlTOff/65GTBggJQRiRYtWrjn+qtZvny52bFjh7n33ntNu3btzF/+8hezePFi8/rrr5tLL73UHDp0yDz99NNSLhW8WrVqplatWmb69Onml19+MV26dJHtr79OePPw73//W57ju+++M6+99pqUzcpS//jHP0zjxo3lHCXtEP5WipZbqPZgbbtu3frQnrWuRbUlSpSwmzZtkn0XGLZbt27WVTj7yiuv2I4dO1rX8suxXr162datW8u2CxD7wAMP2F27dkkZrVq1si4w7PHjx22NGjXshx9+KOdx3FVg2717d9mPxG+//WaLFy9uO3XqJPc+ePCgvfvuu+23334r5bds2dIuWrRIznWBY0uXLi2fuyC0RYoUsXPnzpVjLnhs+fLl3XdcJ8cfeeQRO3v2bHvgwAF53i+++ELO279/v61YsaJcr6Qtbi1wZ2jL2oipFK1xrly5zFtvvWV++OEHc9VVV5kOHRKWYZoxY4Z59tlnpVcAVwHN1q0JZmfr16+X1jZr1qxShgsIuZYVm1wlNFWrVpXzOJ4tWzZz6623yn4kKJfW3wWYueiii6RM9imTbRekssDg1KlT5R5s8zm9U/78+Y0LFCmH3qRy5crS83D84osvlvu7wJFej7KXLl0qvUf27NnN5s2b5TolbRJ1jPHOO++YggULmrZt25pGjRpJqrFnzx5Jj665JsEUDUitcubMKRV2w4YNpnDhwqEjxnz//ffmlltukYrKvz6YXFBKepZUYHBd3rx5zZVXJkxVobxMmTLJ/QkGUrtPP/1UUiXXG8i5wHU8B0EABOxtt90m2+jSOZ4nTx4JJp5p1qxZiX/58uUzN96Y4FyipE0iBgYV9/LLL5dxxZgxY8wNN9xgRo8eLZY2p0Ore8899xiXdklLfN1118nn9BA//fSTtNJUXMrzLFmyxLi0JbEiR8K3/B5adAKMCs+44IUXXjDPP/+8efjhh2VAzTHwgQiMaQhYngO2bNkiYwv+CBKXYpkXX3xR/tq0aSPjF4JDSbtEDAwG08OGDTMupzfbt2+XlObmm2+W9CN9+vRm0qRJUrHHjx8vx6tUqZJYGX3w0Lpfe+21kqrQWjMYX7FihQx+hwwZYm666abEHiQS4RUcfGDAZZddJgNy0h56NzfukFSKt170EL43IhD4nNQQ6Fn4LkBAf/TRR1LGjz/+KIExYcIEOaakXSIGhhvUSktLa8xbn5o1ayaOD958803jBqvSWpMODR48WIKFP94EhUOqA27AbNwAXSrdqlWrpNL6FjwapDR/+9vfQntGUrYSJUrIdr9+/cyaNWvk+ajg//rXvyRwtm3bZsqWLWuuvz7BvI1xDj2fD1iC8f7775ftSpUqmfr165vevXvLeMUNxBOfWUm7nLVJhIwHqOAMbBmTPPLII6ZZs2ZSSUOP8Ac4n9ewinI2OCeTCBlvMICnB6pbt668LSpTpoyMR2jZg/54U6Qo54KzOu2cMQmpV+bMmU2WLFlCnypK6uCcTTsnIHjbo0GhpHbOamAoyvmCBoaiBKCBoSgBaGAoSgAaGIoSgAaGogSggaEoAWhgKEoAyQ4MZsiiyfiz+LPLV5RYSHZgoFVAY5FSMCMFbYYHzTi6a0U5lyQrMJjnxGTApMRFyQHjBILB061bN1HWKcq5JOokQnoGKioiJeSkuG8g6nn//fdFv4DYp0aNGnLue++9J7qHJk2aiBKO4KHCP/fccyJSevXVV0UIhPIOxdzjjz9uFi5caF5++WWZRYsOAvcP3Ec4d/fu3eLisXr1alEF3n777eapp54STQXXMH0dWSplFitWLNE1JBJ8TXQX6DCmTJkiYqZOnTqJS8knn3wi9xg6dKjM50LTzvdBX8IUefTtXgOixC8xuYRAly5drKss4qqxY8cOcfXo3LmzHHvooYcSnTWgWbNm4gDCuffdd5+c51IiOfbmm2/agQMHiuPHoUOHxPVjw4YNcqxOnTrWVU7ZHj58uO3atas9efKkfD5u3Dgp7+jRo7ZmzZp20qRJcp6r3LZ58+bWVVopD2eQpUuXyrFI8Py4hnzwwQeyP2jQIHnOxYsXyz1cQEv5uKHwfPv27ZPzcCPBFUWJf2JyCaG3mD17tngs0RLTQqORQHVHz4Bc1OuiXTkiK+UYLT3p1jPPPJOo8aalp2dZsGCBOHEgTqKXoJyNGzfKdYDkFNkq8lfuiScU/yJWuuOOO0R+StncA7UeLTrHaNW9WUIkkLoibXUBLftcQy9Ab8M9eFa8r5DAUu7IkSPlXjwPZhBK2iJiYJCmUGHDDQyOHDkinxEUOIVQkWDXrl3m8OHDkj5RAXPkyJF4jMpMZcRUDUMCZK0EBBJV9pmC7qeh+8CgfFKn8NSIa9CPowFHd+7121j7cF5S4xKuI7i8vBUJbIECBWQbuDcyWr7vqFGj5DzksMh3+d5K2iJiYFChGVd4qMSYGzCuwA2E3sJX3P/85z/iIkJLSwXEcseDPtylLKKn/uc//ykBQRkXXnihnOt7C95EYc/jeyFfgQGHkUWLFoluPNzkAHgmrklK7Xe6qQLl+H2XNonvFL0ivR+BzbgCfTovHCZPniznKWmHiIFB5Wbgy8CbdKdPnz7SSmM5Q+UhzSB4sMhkkOwrOBXQ+zcBaRPn8dsEqRmDd1xDsLqh0oEbQ8h1PrjQeuMVxXVU2L59+5qSJUtKKsd54YER7hoSjfDrSBMpF5cSIA0kuAhGAoLBOEYQnEdPyHMpaYuIgUHlxAeWt0+0nLj4eQcQHDgKFSokb4cIHrTcpUqVkmM4DIa7eqDxxrsJhxCseDp27Ci9xZdffmkqVqwouT5vuUiVsOABdODY97gBvLzVotKS0gApGuMCDykdQRMNjOAIHh+8PAfjF8YTwHHvGsLYhWB/7LHHTM+ePeUtGw4kStoiLpYaI9UiQIMg3cNCVFGSIu6WGqPye2fB0//CXx4oSqzERWCQEpEqRfpTlOQSF4GhKCmNBoaiBKCBoSgBaGAoSgAaGIoSgAaGogSggaEoAWhgKEoAGhiKEkCKBQZTrjA1YDKgopzvpFhgIFZq0aKFzJxVlPOdFAsM9A7oG3R5MCUeiBoYCJBwy/Ag4MHBAwYNGmRGjBhhHn30UTNu3DgJjKQm7CE8evLJJ0UEBGgy6GUQKilKaiJqYCDYYeq2hzGEX0UVOSsVGyETi897vXY0UMKhkpszZ47ounv06GGaN28u63UrSmoiamAgG/XyT6Dyo4KjxUcDjvsHOmmv345lijeKOHoafKC6dOmSouZtipJSRAwMtM5osn3FRf6J8QCBQUrEWygfCOi/0UfHUslz585ttm/fbvLnzy+uHYqSGokYGFR+7Gq8Au7rr78Wtz5cPug5MBZgH+gtsJ7xGupIIEFt1aqVaMnnzZsnAaUoqZGIgUEPQcqESwhWMwMHDhTbG8YI7Ic7gcSSRmGI0KFDBzFNwMSNBfAZ3CtKaiRiYBQuXFgqL64ZuIRQmfGHAnqKcOcMNNfFixcP7QVDD4H9DY4i0LBhQ+mVCEBFSW2kmEsIv3gzII8EYwpFSc38KS4hxBdjiEh/inI+ERe+UoqSEsSdr5SipDQaGIoSgAaGogSggaEoAWhgKEoAGhiKEoAGhqIEoIGhKAFoYChKAKkqMNB0sAprcmEy4v79+0N7ivK/k6oCg2nozORNLqwMi1QWmBLPwpeK8r+QqgIjVnns6bCiLItlsiQyktnwpZAV5UyIWoPGjx9vBg8ebLp37y5uIP369Ut0+GDl02HDhpnGjRuLocGHH34onwOrnY4dO1ZWWn388cfNBx98EDqSsIorElkP639jusBcxvDAmDJlinnkkUdkbXBWekVqC5z7+uuvi5ECn1NW+/btzbZt20TrsXv3brkHz7pgwQK5Bnjepk2bynFFSYqogfH555+b+fPni6jo3XffNd98841UeNR4zZo1E4ESgcPSw++884757LPPpILPmjXLrFy50rz44oviIsI5K1askBadc6655hop35971VVXiWEbmg404ay7zf0ISMrlc/YBiS3rhZcpU0Z6B+5DsLJoPRryOnXqSLDhb7Vs2TK5BjBgYJ1ylltWlKSIGhi04LSyVCgqGut3k8NT4VDe0ULjEELF5hgVeufOnaK/QNuN9Q7rcqMHp2Xnj6C48sorpXxMEVjnO0+ePKIj94Zt6MnpgU6cOGFWrVola3kTjMAzVa9eXRSE2O542x7SJ8pHcksZCKO8cIpnmj59umjNFSUWIgbGvn375K9EiRKhT4xUVCr5pk2bTNGiRU/J5Wm1aY2puFRO3yuAv463R6fb8eAski5dusQ0il6ENIjUDbM3JLF4WHE9cB7jCY+/jsDB7senYgSXD4whQ4ZIEBPAihILEQODngGHEF/5qbCLFi2SgKCih1tx0kPQixQrVkwqaoYMGUJHjLxG/fHHH6WiElDhgYGBGwYLwHWcQ6o0depUSb+6du0qPRa9ChWe17lY+hQoUECuIRgJBix9eM2LSwk+V8C/PCcp3Nq1a02tWrXkc0WJhYiBQUWlYuE2CFTWbNmySaUsUqSI+fTTT2VAS0r19ttvS8CQchFQpDQ7duyQiouVZ926dcXBkArOIPrIkSMydpk5c6ZUavAtP/ek9Wc8QhDwKpbz6YEoGzdD745ID0RaliVLFkmXMmXKlGiuwPiHQGOA3rJly1MCWVGSImqP8dhjj0lA0Nryhgf7G6DC8baJQTkpD7m+P0YFf+aZZ8RlEGcRHEUaNGggx+rVqydBwz6BU6FCBVOwYEEJGIKOdOnuu+82DzzwgLzt6ty5s9h/MtAm+A4dOpToVAL0IH7/9ttvl8Bo06aN7APlEWz0ZIqSLFyKJFR7sLZdt259aM/amjVrWtdbhPZi48CBA9YNwq1r4UOfnDtc4FkXYHbbtm2hTxQlOrcWuDO0ZW1gj0ELzi/J9AzJgXyfVOdcmjSTvmEOh4s6vQ5uioqSXAIDgxyfH9DCB9GxQDrUtm3b0N65gcDgVW3fvn1NjRo1Qp8qSvIIDAwGt+XKlQvtxc51110nv2ecS9KnT2/Kli0rLwIU5UyJOPhWlLSMBoaiBKCBoSgBaGAoSgAaGIoSgAaGogSggaEoAWhgKEoAcRcYzK7duHFjaO9U/FSX5MLUeZXEpi3iLjCQuqIeDALRE1NdkgvakHBNuxL/xF1ghKv4Toep9F7/kRyYSn8m1ynnL1GXGkM78dZbb8l63OgqcOxAkIRv0xdffCEeUFyO7uGpp56Sc9BtUJGQq2KmwJwlJhYyh8kLj1avXi3XMMkPcwTcRKJBGoM8leehHGbN+jlZ3GvAgAFyDjoOVIIYKqAlQQ2IjgPRU/369c2MGTNMlSpVTOXKlUVxiEECyzUTSMzGZRIkfPTRR+Jswnd47rnnRF8ybtw4WeNciV/ClxqLqMdwld9WrFjRLlq0SPZdimJdYFiXw9vhw4fbJ554wu7atcuePHnSuspju3fvLuf17NnTlitXzi5evFg0EVzjUhEpj+2+fftKGatWrbLly5e3nTp1kuui4SqtXHfixAm7fPlye88999ijR4/a48eP2+rVq8szUr4LOlu8eHHrAtK6cYHoMdauXSvP+NJLL8l1Lrjs0qVL5TrKOnz4sH399ddty5Yt5V4cq1evnt2zZ48c45lLlSol5SvxTZJ6DA/Tz9FMY1+DQm7o0KGiAccxEKUc5ge4hNBSY60DpCso9VDNobtGVYesdM2aNaK9btKkiewjkeX6WDQfmCOg/UbKiq7bO4agLvSqP6SsVatWFf05aQ82P3//+9+lfP+MQG/CmIFnxJ2EsriOsQnwHfGzwt2EWca4kaBLp3wl7RAxMKgIGKphcYO8FK8mKh3OIVTOfPnyhc5M0ECgyaaSERj33ntv6EhCzk/FwloH9xCv1wZSnEjjAQ9vmFzvJKkOlR0NOfdCQ46ZQvi90ItTodGAo1U//RhGDK4xkCD4+OOPzbPPPit/yHDRcHAODUH44v685dLxRdojao9x/fXXm5dffll6CJw+MD/jlSe5dzhfffWVjD3I1wkOLHEAEwMcAqn8GCfgD+UhYAi6pCodb5Gw8OHeLu0SjbgPJuxxwi1xFi5cmFgeARV0jN6PZ3TpoBk5cmTi3xtvvJH4Ktc/J0EUXqaSdogYGAySvcUlrTNqPhw5GEzTitKyAv9im8mgloEwvYN35KBy0nrTinMdx3EJYTBP+aQ1lB0NgouKTCWlh8A4DddBoEzSM8Cjih6FSsy5iKbopYDAxfKTY1gCcYyBOBDMTz75pDwTaR+De57TjSlkwM12Ur2aEn9EfCtFhSBtwc2Dis5bIN48kUbxVglbTnJ3NNXYdZJaUZHoGRhHAL8b8GYKq05uQ6tM5WZcgC7cDaDFOyoaBB4OJNyrZs2aMm6htef+BCoSVqxzGAMRRJUqVZIUipQO7TfPQ2/GGy2en+AgYLAOJZXj+/DWiXEKzJ0714wZM0bGUqVLl5ZxDD2K2u/EP+FvpaK+rk1JsNrEKIGeh1vy6pfXpgyQI0FvoxVSOVuEB8ZZ+4Fv8uTJMtDlrQ8tN4PwBx98UAbCvNEK+mM8oCjngrPWY3AbflTD1Zwf0u688059BaqkKs5Jj0EQYO1J+sS/GhRKauasBYainE9oYChKABoYihKABoaiBKCBoSgBaGAoSgAaGIoSgAaGogQQd4HBNBJ19FD+V+IuMNCQt2/fPrSnKGdG3AWG6ieUlCDqJELWzsadg9SE2bA4b6Cg45Lly5eLkwYiIiSjHGOKOO4h3s3Du4TgtIHqD20ESjxmznINWmuWNeZ4NHD6oLLj3oEeGx03oiQWxqdcVo7109effvppmY+FcApNBovo8z3Qi3AMnTkgXho9erSkXkyHR5OBRsQ/IwpD5nMxA7hixYpyDWIonEVQM6LroDxEWEp8ELNLCC4bc+fOFVcPVnBt0KCBbI8ZM8Y2bNjQbtq0SVZodRXE9unTR67r1auXve++++y8efPsxo0b5bxhw4ZJeU2bNhU3kZ9//lncOCpUqGA7dOgg10WC6ygPJxIXUPbQoUO2SZMmtl+/fuJSQjmlS5e2rrLKuWXLlrWuUrvvsk6ef8GCBeL4gROIq/xS5ubNm8X5g+907Ngx27ZtW/vKK6/IMbYHDBggDiQ8f6NGjeR8XE0oDwcSyuvdu7dt3bq1XKPEBzG7hKCI8zrou+66y4waNUqUdCjo8ILyK7TSqroKKufRStepU0fUb7hwYFyATJTWll4GTQbyUhSBHEvKJYS1vJGd4kpCb0UZWGai6cicObMpVKiQlIWqkCntaNJ5LpxAWGccZR5KP3oVrgUktbNnz5ZWH68rFIWo+QBVIYpAjBF4fr4r56NmZF1z1ICUR8/ly1Pij4iBQRpBSoHyDpeQ/v37S2WhIpG+hOfxuIRgPEAAEBiYF3i8Swj2OVjmhK8ES2XEnSMajBnQb3idNykQz4D9Td26deUPkzVSPc71mnPOwxDOn4PcloBxjYF8js4bIzgqPCkawQGYP5AGUj6SXAKTdBHzNlIvXx6pF2YRSpyS0HH8MZUKh9ShcePGYmjm8nUxKwsHkzXSJde72GLFikkaApiiFSlSRFIeF2SJpmawYcMG61rfJBfLHzp0qKQ3HozTXJ4f2jsVjN14FleR5b5uvBA68v9wX0zZMIMDznXjEUmRwiHF6tGjh6R/bFMe/yrxS0ypFL2FT49wz6DFxtEDhw0GrOHuHLiJMJCmxWaQi1UnYG/DtaRMtPq4hpCe0VPgEkKLm9Ri+fRA9DQe0h/uRy9FD0WqQw8A/o0URgZY+GBsAPQwGD27ADdujCLX0StQBr0Ahg+8JOB8DB3c/4scJ5XiXwwT+N6ffvqplEc5vDDAY0uJTyIGBqZjGK6Rp5NPExRsk2Lh7MEYg7EEKZYbeEvlJ8f3bhtAru5dAnECxJ0QEwQ3AJfxQSyvVXlLFB4YjGcIqIceekj+uAfOIECl96kZLiIEDGkgaRNvlnhG3ER4a0U5jBnY5xnd4FyuZaxCuYxJeKtGusXze38tyuNtFA1BuG+VEl8kqfnmMBUjiGjHToexBlY7DLyBnJ+F6r11ZhD0Jgz2gwg9dpL3j/SMZ/q9kvOdlfOLc2Kfg4sgv4fwewMDY9Ipfp+YNm1aYiU/nXLlyp1i6akofybnJDB4s8OPf6RbmKZhisZYQFFSC+fEJYSUiN6CHJ3XuRoUSmpGa6eiBKCBoSgBaGAoSgAaGIoSgAaGogSggaEoAWhgKEoAGhiKEsB5HxhoRLzI6HSYBRzpmKJE47wPjA8//DDiOn5MSWfdP0VJLud9YERzBeEY+g1FSS5RAwOtQ7du3WTxeVZORZTkYeVTWmp0D+gUmCQIiJvGjx8vq52i2UCQhCAIECmxjz7i1VdfFbkrM2yTgoX36Rkoj4X4w5+DbR8Y3BsBUfPmzeVzprprYChnBLNrIcglBAnrtGnTxJkD14/atWuLS8iECRNsvXr17Nq1axNlr7h2AG4huHpw3erVq239+vVFikp5rsLaTp06yTWfffaZrVixom3fvr1cFwkXFLZWrVoijf3pp5/swoULbcmSJe3WrVtFQnvXXXfZvXv3imNJ1apVxc1j+/bt1gWfSGdVjqrESswuIUg3GbwiLsL1A9kns2SRvbZr104cPvBVQsnHlHIgfUEBh0rutttuE3ESC+YjUWWh/JYtW8o1pUqVkn+TcglBboorB8o/ljdmZi6mBjh0IJ3lM5R0rAbLc6D2Q4ZbpkwZOQ9pqqIkl4iBgUqNNAfLS9dTSDCQEmFdw5TxcLkpaRRSVRdoEgBUeg/ma+jAvUsIGnAPqVVS8lbKQ+kXrprjfpTjxxfcd9GiRae4k/CsmkYpZ0rUHoMW/6233pI3O+if0YAfPnxYzAHCwWIHb6dt27bJK1JcBoGxAa59VF56H1p+D35VnJ9UYJx+PzTgXHfHHXckji8wO+Bz7zIIjDc0MJQzJWJgYG1JhQcUd7hu0FPgloGpGQNbwNNpzpw5ot2mdec87xKCK0jGjBnFIYS0afPmzRIs/BFwOXPmTFK6ilmBG1dIr0BPQc/lxjCJPlIEBj5S6MOx4gSCGPvOpIJOUSIRMTBIe/r27StuGZiP8UMaRmMEB0ZkjBUaNGggb6Z69uwpeT29Awvbe9gvXLiwpEG4alAmjiMdO3aUihxLxcXdg3GCG4CLSwkB0rp1a7HAwQyNXoG0CodznqVx48ZmxYoVktphvqYoZ0JUzTeHSI1IZU53xqD15s/3DklBkNBrYMMDWGwWL15cKnskGOhzX/8c3CuaJJbz+FPZrHImnBMzBH6DIAXj7RZ2l4wxeJM0ceJEqcxBkJ6RiinK2eCcBAZviXDy8y4hvGlibKAoqYVz4hJCEDBeYMxSoUIFDQolVaPJuKIEoIGhKAFoYChKABoYihKABoaiBKCBoSgBaGAoSgAaGIoSwBkHBj+YM7GQf5kzhRhJUeKFMw4MppTzCzagx0b7rSjxwhkHhtdCMPsVY4SkJKqKcj5xoWvppal/f9wEU75cWXP11VnkAKB5mD17tij3EAsxDTx37txyDBcQVkFlxVMWkUd3MXPmTFlq2IuTmDjYu3dv0WiwaD4MHDhQxE6kYFzH50OGDBE1HqIkyuVzVHkFCxaUa6LRr18/0WOMGTPGzJ8/XzTgTG+HrVu3msGDB5sZM2bI8suUz/0oGyGWFz6hHecYq7wy4xedu1/9FQXhqFGjzMiRI2VWMEIsnfEbn7z59hDT7OknZTtqj/H+++9LUCBUwmgAgRHL/YLvMVDjkVYhJb3//vtNoUKFxL4G6x0+J1i8BoPlhkeMGGEyZMgg11MRqWw1atSQwMNWh2BEbITenIodDfTnWPdQJgGKtBX7HAISqSvLFROELD/M2tzemI3vMHbsWAlGljXmGVlFFtOHRo0aibUPIigC5LHHHpNrKINg9+Ur8U3UwMDtg9YcJRyLwdNaUsFo7b3eGrMD1Hj4TrHPmtsIijgPqStGCF7kxDW4hnhZ6o033mieeOIJ0W9T6fiXe6L0o+VPCsqgLLQed911l6xNTkDQs9GqE9gYOeAiwvp/THn319EjEATck56Pa6tUqSL7BC7PjCsK34lA5f8ApxKChdVnlfgmYmDQKpJmIGGlJeffb775RgJkx44dcpyF6KnsLDvs1+8maHD/oGKjB/fGCMC53qCAylmyZMnEoCGIWMkVEDSR7iCXjQbXkKZ55xHvSEKZ9GAstM80d56dBe55duA672TC86Jf9/c+cOCApFgE05dffimWP9WrV5c/ejZ6SCX+iRgYtLbLli2THB0PWHTWaK9JTajUVHAkpAy8w3NujhEkpDUEBhXVs3LlylMCww/YyeNJvcKPEXS0/NGggocP+gkMyqC8559/XvTlpFqkZYyNaP0h/N6kTKR4/jn5PvRkBBdBgvPhxx9/nPg3b9486fWU+CZiYNAroLRDUET6wKCUykVlpWL5SkZFYmBLD8L4gPQDHTfXkU6RlgAtLwNzUhJaXRxDfBlUaHoHb69DzxIeUJHgvPDAoOWnTALj6NGjElzAoByDBAzYCAKC0PdkBBc9iTdm4/v4e/N9Wawf+H7Yi3rnFCW+iRgYrMeN2x85Og4c5cuXFz+nyZMny6CaCskPfHyGnQ2DVFxEqPRcAwzYcRBh3ECFIz2hRacnyZUrl+wD5TFo9xAo/q1QJLgPFTw8MBisExgENGkPAcqLAwKlaNGi4npC8BCcPvXjWcLffvnvBs8884wYzjEW4bvwfdV5JG0QVfPNr9mMF0iVSJtoNb1zx+nQQtNjnO4ThbsHnG7S9mfD16J3oCfw9+b5kyuppRwG9JTjexUlPjknZgjJhfye3zSCIDjpnRQlJTkvAkNRzjbnxCVEUc4nNDAUJQANDEUJQANDUQLQwFCUADQwFCUADQxFCUADQ1EC0MBQlAA0MBQlgBQLDCbsoYJjMmFq5aOPPjKtWrUK7UWGyZD8KWmXFAsMdA0IeJC5plbQkcSi80DbzvdR0i5RXUKQh6KNYGlgdApoHTASQPKKgQBT0b1cdO7cufIv2gx0C5MmTTKjR48WswMEP17lhzaCz6dPny6KPsr008K5D44clMV0da+kY5u1+nACQSPCPb0AKhroM1g2edasWSJaQoFXpkwZKZfFMjF6QG/Beeg/+D4Isj744AN5Jp6N++ObhXkCYieuTWoJZuX8JGaXEKZ9DxgwQCoMJgFU9h49epgSJUqII0ifPn2kMoNX9aF5aNq0qQQUSxCj/cZhA2ERE3kxP8BMADET2mpcN+CTTz4RGS3aakRSVETuT5BxDRWZ8ggIBERJOR8SgDwHz12/fn1x/uAZEUpt375dtOAELPciOLh3aKKxBBHmCVjtYITA+dyb3pB78x2VOIdp51Dtwdp23br1ob0E6tSpY13rLtvHjh2zxYsXt1u2bJF9cJXXukCRbVdx7JIlS6wLHtukSRPrcnT5HFwQ2LVr18pnroJbV9nlcxc81vUwsj1kyBC5zlVo2XeVT/4dN26cdZVRtoEyXPDItdEYNGiQ7dWrV2jP2tmzZ9tSpUrJ9dyf5/DwPV544QXZdr2h7dKli2zzeYsWLWQbuLZq1ap206ZNoU+UeOLWAneGtqyN2GOQviD7xJYGSCP4jBbTu2aQdrgyEjXctMaLFi2SlhlpqT+PVIXe4YcffpBrkMHyh8GCT8WQoKL7RkJKr4RsFSiP9M2XRbn0OK6SyvFIoC/3TiDA+chSSY1w/8A1hHtiiUNq6J8DHTk9H3BvnFHC742One+ixDkJ8fHHHoMWvmTJktZVAtmfNm2abdasmWyfzqpVq6QlBZd62Dlz5sj26dSsWVNaYVpeoEV36Zhse44ePWrffvtt6UlcumQbNmxoXSUPHY0NehsX0NYFa+gTa10qJX8uSK1Lk+y3334bOpLQ282bN0+2q1SpYl0wyHaDBg2sSxVlW4l/YuoxaPVvu+02GV8A5gW0pvQOQA/B+AP8+AKw16GVBVe+2PAwiGebcQJGA7TavPVh3W9M3MjhcRfhHFwLyee5D7k89w0vDzscBuDR4DrMDrDGAe7L+Igezfc2/u0UA3NeLLDPPXFHYewBp9+bFwP0nEr8EzUwwh048HbFWI30AwtO3P/cmEOOhQcGqQkpCCZtDHBJg6iQBANuGy5nlzSKoGCAO3LkSBlIU+HwgcIPijJefPFFMR/AOpPBMQNpjjOoDzdxC4I3Sm3bthWHElI/Btb+LRPfCVcQ13vJc/BcBDOpFedQNs+O4Rv/8pzc2/Ue4nGb1L2V+CCi5ps8mkrjewwPP+ThHIJxsjdqPv1cimSMQEXzFjkeWmyuy5w5s+zjWeVff1IZuZZXu9h8eviMlpzexF8XCzwXroaUzzbPx3PSozBW4D70LBzj7RflM47iO2LbCWd6b+X847w3Q8DLCkfAIHidy0BZUZKLuoQoSgDqEqIoSaCBoSgBaGAoSgAaGIoSgAaGogSggaEoAWhgKEoAGhiKEoAGhqIEoIGhKAGccWBs2bLFPPDAAzLJjnX5QtLxVAUzZt99993Q3ql07txZtNyKEsQZBwbaDBR3zFZlJVNWRE1toKWI9FwYMaTGZ1ZSB0kGBi4frHY6cODAU5byDddgsCJrtmzZRFuBdBVJLDCdm32mfntw+mDqOVPXOR+REGXjzMH5SFK7detmZsyYEboiOkwhR2zEWt7jx49P9LWiLLQb/hnRe6DPwDUEARNyW3QiihJE1MDAbqZLly6mSJEi4rbx7LPPSmUDHxiIjPiMyom1jBcXUfnQeL/33nuiywCC4bXXXhOtBdeT5mCLg3gIBR8iJpR9uJAQHF73HQmcQFiymEC899575X7cG4UeqR66D3o11urme6ABR/eNawkeWGqDo0QiamCg0EP9Vrp0aamsqNeQtDKu8KYBqNpYIpgxBuegdCO9Qq5KJUcy6gVMBAM9S6ZMmeQY2zgD4kWFGQGVFbsa7ocQystoI4FslmdAYcc64ZRFkNIL+cDlWQYNGiRBR/CgQixQoID2FkpUIgYGlR+vp+7du0tlR27qzc5Qv5GykKOTRlHZqOwejqHco4KGS0EJJr+APNtly5ZNDBoWpscMDVDRoeZDcx0NZLNVqlQJ7SUscwz4P/nAZVnktWvXin2oh++mgaFEI2Jg8MZmypQpktJgQNCpUydJTTAKoDWmgtNTEBjhkk+CgfOyZs0qKU64JabXfwNleE05gRSe8xMkOXPmTHKxeoInPB3C9IBnIX3yPQb/Yvrm0zmCgmfWwFCiETEwqOBUHnoCxhEjRoyQMQSV1bfGQCUjAKhwgHEyLh+MI9BKe+30mjVrxFiAMimPa3xgkP5wnteHU34sHrM8A8EGjCsY6HtZq39GehFSMp+WzZkz55RBuaIEETEwKleubObPny/5O7k7eTnjCwbZvjWmgtO6s82A9qmnnpJjdevWlTL4nYNU7PHHH5egoHWnp2FcQsD5oGG8gVWPJ9YWnRRvwoQJpk2bNuL4QdAyRmHQzlsp3D94ccDYh8+xA509e7YEIGMYRYlEVM03+TnpChWMHuDgwYOSktA6s8/4gDSICk9lZGyA7ysDXg/jEc4nteKtVLgrh3dG5zoegzdawOtdKrl3IYkGLiPcm3TJp3S8wqVM7uXh2SmP5z79mKLAeWGGQFBi6hwE6ZHvlRQlpVCXEEUJQF1CFCUJNDAUJQANDEUJQANDUQLQwFCUADQwFCUADQxFCUADQ1EC0MBQlAA0MBQlgD8tMPr16yf6bkU5H0mxwGAGLXprZs4Ck/yqVasm25FAD87Ck4qS2kgyMNBG4MAxbNgw0U14lixZIuIj3D1YD++NN94QAwKWDSZIEAQxxZtAmT59urhzsNC8NzhAFzF69Ghx72BNvWjgGILCj3JQEyKi8jCFnHui68ZQgenswNRzeizuN3z4cDmHZ8FSB0OGmTNnynnAPMqFCxeKDxViJ6baK2mbqIFBhWR5YbTdaDLoEbw1Dq19r169ZHo4wh8+R9+N7oIAoTKif0Co9Pnnn5uiRYvKKqkNGzaUird//37RXSByiqaNoNJyH8wW0F6gq0AUxcqqvpfC4gcXE9R87dq1k+t4hjfffFOCEUEUQYOgiYBEdNWjR49EYweuIXBYspl7IGoi4JQ0DNPOodqDte26detDewm4lty6yhPas9ZVGOsqlnUV0t533312ypQpoSPWtmjRwk6cOFG2XUDZZs2ayfbDDz9sXaWTbXABYV3LbV2LLeUlhespbJEiReyqVatk//Dhw7K/a9cu63oFu3z5cusqsRxzvZutWLGibLvexVaqVMm64JP9bt262VatWsmzQ/369a3rrezcuXNtnTp1pCzgeL169eSYkra4tcCdoS1rI/YY7pikS5iheZcQ7+yHKo+ewi+AD2isvRw1XBNOK00ahkQWcwV6DZR/SGBjka+SvnFPWnkgjUIxSC+AcRsGbUhqkbbS8nt3QcrHhserApHg4maCupDvRmqG4wm9GR5YXM+C/fRo+FP5lExJm0QMDPxoGQO0bt3ajBo1SgzLqNC4hFBZsbbxUtJ9+/ZJapQ3b17ZDw8MUijKIv0hnenfv7987nXjScF5+fPnD+0lVHB/XcuWLSUNI2UidcMix9vzcJ03WyDlwgDBByJjGgKGIHU9j6RjjJH8H8rBwoULy7lK2iRiYFCxyLmzZ88uFQs7TVxCGDdQ8X0LDpgb0FKjB6c19oGBAyBBRCtdsGBBU7t2bbG48df4ShyN8AoO3uGDgTTbuAtSyekBGD9QJs/Aff11HAOCGng+H8SYvhEomDPwh3cW5SZl3aPENxEDo0KFCsbl3+IQQstMpWKwymdUuvBWHB8nBrsMaLHMAXyheDPUvn17GTjjLs6AndYZKI+BOQESjdPvRY9By0/FxWyNZ+MZx48fL04jvCUj3WLwTKoElEEweUO2cBcS0kS+0wsvvCDl0EsmZfSmpAFc6yoEDb537twpg94jR47IPgNeBr8udUoc1Hq2b99uN23aJANhl7OHPrXW5ep25cqV1rXCp1xDmatXr7a//vpr6JNguGf4OW58kzjYZhC/Zs0auS8wgOZlwS+//CLnebiXGxOF9qxs++8ElM/3dD2JlKmkTcIH3+fUDIEBLi19JB5++OHEwbOi/NmoS4iiBKAuIYqSBBoYihJAYmBciN3msYTViBQlrYHpd7qwV/SJgVG2TCkzdWpsy3spSrzx+ReLzQ03JPzOBYmBUevhh8zkqdPNFBccofG4osQ9/NY2e85c83LXnqZ9uzahT8PeSsHq1WtNh44vmT17fjIZM2Y4xbVcUeKRg4cOmzyup2jUsIEpX65s6NPTAgOYarFv/37z889HQp8oSvySPv0lJkf27KE9jzH/B5Num2qm3BhMAAAAAElFTkSuQmCC;" vertex="1" parent="1">
          <mxGeometry x="390" y="232.5" width="198" height="275" as="geometry" />
        </mxCell>
        <mxCell id="avPWlsC1YsPm1SDDJ07k-16" style="edgeStyle=orthogonalEdgeStyle;rounded=0;orthogonalLoop=1;jettySize=auto;html=1;" edge="1" parent="1" source="avPWlsC1YsPm1SDDJ07k-10" target="avPWlsC1YsPm1SDDJ07k-15">
          <mxGeometry relative="1" as="geometry" />
        </mxCell>
        <mxCell id="avPWlsC1YsPm1SDDJ07k-10" value="" style="shape=image;verticalLabelPosition=bottom;labelBackgroundColor=default;verticalAlign=top;aspect=fixed;imageAspect=0;image=data:image/png,iVBORw0KGgoAAAANSUhEUgAAAMYAAABRCAYAAACJ+NmmAAAAAXNSR0IArs4c6QAAAARnQU1BAACxjwv8YQUAAAAJcEhZcwAADsMAAA7DAcdvqGQAABB+SURBVHhe7Z0JfM5X1sd/lkSCCIKQkIRIgog9Ri2ttpTSjo6ttkFNS+udvnhffUunrVanqKVVo7SljMa+tpa+xlZLiKX2WCKECJKIJYlYI8z9nTz/x6OepGamKuR8+3ma///+t/uP87vnnPvce1PgtgGKotxFQdtPRVEccOoxMjNv4ubNm7Y9RXl8cXEpjMKFC9v27nCXMOJPJiAiYhaWLlsu4lCUx52bWVkI8KuIDz4Yhvr16thKHYSRlpaOdn/oiNbNQtC5bT2UL+spJyjK40xW1i1s2H4EIyetwmefjUXD8AZSbhfGxyNG4VpqHIa+0VoOKEp+YuEPO7Ej5jL+NmG87NuT7yNHjuCZJ0Jse4qSv2jTPAwbI6Nw/fp12bcL48b1G3Avcm8Soij5gaJFXVGoYEEJrYh21yqKE1QYiuKE30QYN29mYcfeOLubepDsjj6BK1dvyGfPwXhb6cOF7+34/ukZV7Fz/3Gpo5I3eWDCSLt0FSdOnZPtlAuXMHfZdhQsWED2c2Lf4QTb1r/H5SvXMeDD2WBH2+4D8Zgye4PtyMMl/vR5DPtsibz/OfO76DP4G6xcvx9Xr6kw8ioPTBhzl25FdMwp2a5QriTGvdsFBQrkLIy4kymYOuc/M+SjJ5LhW74UihUtgphjiQgJrGA78nA5Fp+M4Mrl5f1XrN2LsGoV8Zc3fw+vUsVtZyh5jUIfGLixaNFiNKrtC+9cvtiL2nUUw8d/h39s2I/la/egmjG80iWLI/lcGoaOWmBawwyMnLRcWsWFP+wwHuM8ypUtgU3bjojR0lC/XbQZE6avwtLVuxG54whCg31x3Iji3TGLcP5iBhKTU9G4fpDtifeSdesWZizYhHFTVmLVxmjxDOG1qsDFpRA2bY+RcOXpJ6obD7UNbq4uWLpmt2yfTrqIBrUCxDgHGq9SNaCc1J18/LelcHUtDB/vUug7ZLqEfiMmLcOyNXtQvaoPFpl3Gf3lD1i9KRrPNgmVZ+XGYSPK98Ytxrzl24xAk3Ax7TLKlvYwAjmLeSu24+y5dJw9n47f1Q20XaHkBaYt2II+r/Qy/74u9+8x6PYnR6zDgD+1whd/7YmWTUPFOMmR48mINYbvbUQwc3w/dGrbUAx0+tg/oWmDYGw38XVp0zpu23MMm4wYJv+1F6aO7oNmDUMQtfMoatfwQyWf0vhz7xb4377Pyz1z4qd9x03ukIAvPuqJSeY+FBNFRmJNPYIrZ3uJI3FJyDQG/uGgP+DzYd2xJvIANmyLkfh+l8lD6MXIrVu3pU7lvEog8exFxJjrChUqiG8/7Yv6Nf3x9sh5qGd+zp3YX85n45AbfO+PJnyPft2bI+Kzfsb4q+D7VbsQXKU8urZrhFIliuL9ge3w36+0tF2h5EXuWxjubq74+7jXUMS0rDRwxvNWYBRrjCkspCJaPRmGwoULGaEkobJfWRmgxXif+8GVvVHU3VVa7o2mZadB/r5lXXRsG+5wTnnbHXPmd3UC8cmQzjiRkIId++LgYp5nRWhyj0BvEUvGlWvo3/NZFCniIqGVj3dJXL+RaUK2s/AuU0LKyJnki8jMzIKfESYF7ufjhRdb1BXPkpV1G02MsMNrV5H8wKOYO0p5FpXrcmL91sPwMp6oTg1/2W9cL8h4udsIMu92/XomTp45j6AAbzmm5F3uWxiL//8nvDJ4ChYs347DsYnScgZUKivHGCaFVask28Sx5U5KSTP/vy0tdO3qfhjxfx2xxXiJTv2/wKwlUSKKZBNaZBunl1yTEwxx/jJmIQZ9NFtaf4Yp0UdOoYoRIQc9xptkPzigvGn1E1HTCNXTw912JXAx/QrKGK91IuE8Av3L2UqzxcTrKWjWu47xXlYnwVGTG4QG+8g268n7+lcsI/s5sceEdvVrBtj2gGtGjGxM6BFjTShFURYv5mY7quRV7ksY9A6fm7xg+P+0xzt/fhG9OjU1pg57C88wqmaIr2yTWGNsQcZDEIYmFImVeNcN9cewgS+ZUOiPmPndZrmW5wca42QIkxurI6NxKvECJpprGYq0bh4mXZ5sjeMSzqGMieM9TajCxNvVIQ+gOC+kZph8wRcnT58zQrgjjG2740wLbnsPU4+QwOxtCoHC4L0Jc4Jbpqy0ZzHZzwn2QHmWuCPIH7ccyn63ggWlXuotHg3u22OQhKQLxsAuI8Ik0CdOpaBUyWJINS0xW/yQKnd6gM6ZUIYhDlt4xvoMoyiu/3r3W+l9IqnpV01L6mJacQ9J2l3N9o0buQ91L2D+oxCY3DMkYs7D57i7uRijTrQLlWI8Fp8i5/CeX89ej3Yt60kod9PkAKxfyoV0/GPjfgnrLBFTpNZ7WF6sss1D8J5V/b3tAs8Jdkjs2Htcwra9B09i9vdRdnHxd2FtK3mb++qVcjW5gr9vGUyfv8mEQbFo16q+CQk8JaENNSELY+dnTTJu4WbievbI+Pl6iRHXCfVDZRN2sXty6twNWLLyJxyMPYPBfdvIOaWNwDZsjZHvPXLrqeE9ziSnYsaiSGO4l9C321NIOpuKhDMXjDiKSEhU1bTI241h9uncVHrA5izditAgH/Tu2Ew8kn9FL6wzrfiKdXtRw5R7eRZH04bBIq59hxLQyeQ8BU3rfto8h0Js0iC7h4xhVnkTDvKa3AgLqSSeJ2LxFhEhhVbbvD/DRH75+ET9qvK7U/Iejr1S9mHnXbv2wIA/hqNW9Tu5wm+NhDxpl217d8MQ5mHPEeGv6pAJh3IiyOQu7HBQHk2adhqDyI3rULSo+78WSj1obt26JeGXsw+P5QWc1c36ZDcxyuNAnvIYivIwybMeQ1HyCioMRXGCCkNRnKDCUBQnqDAUxQkqDEVxggpDUZxg/x6jfYfOqB7goSsQKvmWqfM3IypyvXyPYRdGh45dERwcBG/vOyNPFSU/MX1GxL3C6NajN94aPAh169SWkxQlv1EvvAkiN6zRb74VJSdUGIrihPsWRvbI13snEq1duxaHDx+W7VmzZiE9PV22HwR8flZWlm3vDiy3RYSK8qtw38IYNmwYGjVqhHPnshdRs/jqq6+QmpqKixcvYuLEiSY+y32xgP+ETp064fXXX7ftZUPBPv3000hL49xyRfl1uC9h7Nq1S/5MQOPGjXHgwAFbKXDt2jWcOHEC1apVw6FDhxASEoJChQqJ13BswdmiO3obtvrWvuUFuPy6o3FTgOfPn7ftARkZGbh06RISExPtHoqcOnUKnp6eKFkyezkcPpfXsQ6Oczis59y4cUOEbNWPgj579qxsO8Jz4uPjnXoo5fHnF3ulaFDdu3fHoEGDRCCkf//sNZaio6MxZMgQLF++HN988w02bdokRkrjo8FOmjQJlSpVwtChQ1G9enX07NlTrqNnoaHzWt6rdOnSYpwnT57ECy+8gGLFimHr1q2IjY3F+++/j+bNm2P37t34+uuvRZwsHz58uNxrzZo1WLlyJcaOHYukpCR5Fl+J0xMpUpYXL15c7kMhUzCsW4MGDVCrVi25luKmJ2rfvr3Ua8SIEdIQsB5XrlzBhAkTUKFC3ljVUHlw/Eu9UvPnzxejYBgVFBSEgwcP2o4AMTEx4i0IPQZb7TFjxmDy5MliwFOnTpVjNDJea2F5Fxowj/H+NPpRo0Zh5syZ8PX1lRCtR48eWL9+vVxDLxEcHIx27dqJAK2QzrEO+/btExFNnz4dU6ZMEQ8TFRUlx/gchnms25dffilipoD53DfffBPr1q2T80aOHAlvb28sWLAAM2bMwFNPPSWiV/IXuQqDxkfjHjhwoOxXrVpVvIQVhjgaJQ23b9++cHV1lf1SpUrJX8NkiERPwGsJr6UwaOT0EmzBe/XqJcfY4lNAzz33nOzTW1WsWFG2eX8eK1GiBFq1aoWFCxdKOQ2eIiNPPvkkQkNDERERgWnTpkk4xPNZh7i4OLz66quyygefU6ZMGbz88styXWZmpjyHQlq9erUcW7FihYjn6tWrOHPmjJyn5B9yFcb48eNx+fJlCXfatGmDN954Q0KNhITsVckpDBolDZAiqlGjhpSTlJQUaXl5Lo2TxkZolLxHYGCgGHWVKlUk1CEMkSyhEQqIxwmfZXmdLl26YNGiRRIaWeJkPsAwLDIyUp4bEBCA5ORkESRFwTrQE5GjR4/KNdZSONZz+HwPDw8Jn5jL8EMvyBBLyV/kKAzmE1u2bMGyZcvECPlZsmSJ5AoMp9iaW4ZMwyKWJ+ExGihb/uPHj4sILCNctWqVGK2bm5sYNe9n4dj6E8tgKQAKrHLlylLO6ynCOXPmSHJM0bF+TZo0Ee9Gj8K6sNzLy8v+HKsOfI4zAXLZHAqDnuW1116TD0O3Fi1a2M5U8gtOhUHD/uSTT9CvXz+UK1cO7u7u9g8NjOEUW2i29DQ+GhYN8NNPP5Xt0aNHIywsTAyYyTiN+scff5R8hSGKZfw0WEcvQ6ExFCL0QPQsTN6PHTsmP60wjXTt2lXyCKvlZz33798vOcXcuXNFxEy+6bl+/hwKw9pnGEUPQm/EMuYdzC0YurGT4J133skzK5Qovx13Flxb/B2aNH4CFcqXl5yAxsDeKLaijrBFZe7AcIVxOY2J3aMMY2i47OWhhxgwYIAYpo+Pj/QQsVeJYU2zZs1EXAxrLly4IK08wxyKkfkGvQyvYzcqn8GeI277+fndlcBbYRHzCn9/f9SsWVM8y44dO0R4vXv3ln3eiwIODw+3h3Os7zPPPCNei3kFf7KzgOfyOxHWlb1ifObbb78t5crjz1dTpqHPKz3vXnBNBxEq+R0dRKgov4AKQ1GcoMJQFCeoMBTFCSoMRXGCCkNRnKDCUBQnqDAUxQkqDEVxggpDUZygwlAUJ/xqwuCQq5xGoXJ+A0fWWsPSFSWvk6swrBU4HKezEo525VRXDunmqFiOcOWH8xY4oYlzu8eNGyejWwmHonPuhDUfQlHyOrkKg8PPOYOPw8gdoVC4UACHcXMhAU4d5aIEnDfNiU1cTIDDvzn3mliz7BTlUSFXYdCgObOtSJEitpJsOHGIcyPoAX5+DucucJ4GPcrp06elTIWhPGr8ojCcGTRn5NWunT1vgzPdHM9h+MUyTmGlOIgKQ3nU+LeF0bBhQ9nmOZy2+tJLL8ksPs6E43RQLn3Ttm1bCbM479txLrei5HVyFQaXjfm5MDgPm3OkOaeb3oHCYKLN5Ww4z5rTTLmaSLdu3STUYthVtmxZ+0qBivIokKswaNBc7sYRJtcUC+d3UzhMzjmHm/PAOVeW68tycWcLDaOUR5FchdGhQwdZW2rx4sXYtm2brMrBbte33npLjjOXoIdwXMj5+eefl3WcuCogUWEojyK5CoPrM7333nvYuXMn5s2bJ2UUB8VA2GXLXMIRlg0ePFi+4yBcC6pp06ayrSiPCrpKiKLY0FVCFOUXUGEoihNUGIrihLuEoaNflfwMv5ezBrrahcHxTQcOZK9arij5jdS0NHEMbm7ZY/7swni5c0fMmj1XvrBTlPwEBTF23Odo92Jbu8ewd9fyxwcffozNUVvRxYiEQzh0+oTyuJOWlo4l3y2VkRvf/n0qPDyy/4iRXRgWkZujsNl8LmVk2EoU5fHF1cUFrVu3RHiD+nZvQe4RhqIo2l2rKE5RYSiKE1QYiuIEFYai3APwT9DeFREf/juKAAAAAElFTkSuQmCC;" vertex="1" parent="1">
          <mxGeometry x="122.31" y="770" width="198" height="81" as="geometry" />
        </mxCell>
        <mxCell id="avPWlsC1YsPm1SDDJ07k-12" value="" style="edgeStyle=orthogonalEdgeStyle;rounded=0;orthogonalLoop=1;jettySize=auto;html=1;" edge="1" parent="1" source="avPWlsC1YsPm1SDDJ07k-11" target="avPWlsC1YsPm1SDDJ07k-10">
          <mxGeometry relative="1" as="geometry" />
        </mxCell>
        <mxCell id="avPWlsC1YsPm1SDDJ07k-14" style="edgeStyle=orthogonalEdgeStyle;rounded=0;orthogonalLoop=1;jettySize=auto;html=1;entryX=0;entryY=0.5;entryDx=0;entryDy=0;" edge="1" parent="1" source="avPWlsC1YsPm1SDDJ07k-11" target="avPWlsC1YsPm1SDDJ07k-13">
          <mxGeometry relative="1" as="geometry" />
        </mxCell>
        <mxCell id="avPWlsC1YsPm1SDDJ07k-11" value="The Weeknd" style="text;html=1;align=center;verticalAlign=middle;resizable=0;points=[];autosize=1;strokeColor=none;fillColor=none;" vertex="1" parent="1">
          <mxGeometry x="-440" y="785.5" width="90" height="30" as="geometry" />
        </mxCell>
        <mxCell id="avPWlsC1YsPm1SDDJ07k-17" style="edgeStyle=orthogonalEdgeStyle;rounded=0;orthogonalLoop=1;jettySize=auto;html=1;" edge="1" parent="1" source="avPWlsC1YsPm1SDDJ07k-13" target="avPWlsC1YsPm1SDDJ07k-15">
          <mxGeometry relative="1" as="geometry" />
        </mxCell>
        <mxCell id="avPWlsC1YsPm1SDDJ07k-18" value="Starboy" style="edgeLabel;html=1;align=center;verticalAlign=middle;resizable=0;points=[];" vertex="1" connectable="0" parent="avPWlsC1YsPm1SDDJ07k-17">
          <mxGeometry x="0.4801" relative="1" as="geometry">
            <mxPoint x="-1" as="offset" />
          </mxGeometry>
        </mxCell>
        <mxCell id="avPWlsC1YsPm1SDDJ07k-13" value="" style="shape=image;verticalLabelPosition=bottom;labelBackgroundColor=default;verticalAlign=top;aspect=fixed;imageAspect=0;image=data:image/png,iVBORw0KGgoAAAANSUhEUgAAAMgAAABhCAYAAACTS+64AAAAAXNSR0IArs4c6QAAAARnQU1BAACxjwv8YQUAAAAJcEhZcwAADsMAAA7DAcdvqGQAABXlSURBVHhe7Z0JWFXVFsdXqKioOI+gIirmUA6IKZgjPtMsJUUk09Qc6pWlmamZzyyzfOSYn2aWJWLpcyh7aeaQI6FogvOAAuKEEwIyKnLf/i/Ovl4JjtBrIFi/7+Pznmnfc3H991pr37MWD1kUlI1zMefp5s14Y0sQCi8lS9qTU61a5OhYzthzP/cJJGRvKC1atIiioqKpZvUKxl5BKLykpWfQteuJNGbMaOrv25ceeugh40gWVoFcuHCR+vs9S2+M6EreXo2pePFifIIgFHYiY67T+A/W0ejXxlLPHt2NvVlYBTJx0mSq5ZhKwwe05wOCUJTYGnycVm8+Q8sDvzT2ZGFn/EsXL16kFk2cjS1BKFp0eqwRHT5ynFJT04w9WVgFknEng+xLSFglFE2QUhQrVoxsUnLGKhBBEH6NCEQQTPhTBJKefoe+Xr+X7t7NNPYULXaHnqKI6Cv8Oik5jf67NYwOHo3mbaFg84cJ5GLsTQo/fo5fJySlUnxisorxcn87xH4bfgo3tgoXn63cSfEJyXQ3M5MmB6xVv5cYKlXS3jgqFGTyLRB4A8yCGRl3jT1Zxq1/bsQnUaYyhBXfhNC1G7d4X9VK5ejF57oYZxMlp6TzeXoMnHPoRAxtDznJrx8ErotPTKFEJbzs4JjtvQF9bwD3n/09MjMtFHstge8L2J5/+3YG3UxIsR7LCxjvyvUE/j3h+nMXb1ADl+oUezWBjkdcpEn/7EWNG9Q0zhYKMtbvQfz9n6PXBnnQo41r84GcWPXffbRm435yrVOVImOu0ZgXupNX64YUc+kGvTo1iFo1q0vnL8WR+yMu9JUKqRoqoxjm14H2hZ2lyhXLkv/TbWn6x+vZGB3LObCXmfRyL7Iog3orYA2VVrOqp3sDen3EE8Y7/pr9hyJpzuebqa5TZboQG0cPu9akicrg8DEC1wZTaPhZKu+oxr4ST+NH9aDmjevQPrVv0fKfyK1eDTodFUtXbyTSB2/6UvMmdfje3537Lc/oGKO9hxsFrgumjV++Tj/uPELL1Jj1nKtQ5Plr1MWzCY18tpNxJzlz42aS8hJryL5EcRZqmxau9N3WcJozxZ8mfPAf5U1TqE6tyhQweQA5li1tXCUUBNr7BtCeXT+Rg8O9/5c8e5DUtNt09NQFWvj+YJo5yY9eGtSVlq7axccioq5Qupop/Z5qS0tmDqOnu7WkkvbF6dOZQ1lAMEo31xq050AExcWn0OIPhtJHykAm/vNJuh6XxIYKo3lliLepOMCioJ/o1aHd6IMJvvTlrBHk4lyV4m+lsHhPnLlEC97Lur/Bz3jS9Pnf8TURkVdYlEN82/M1vj09aMW3ISyIfy/ayKJY8N4gmvfOQNqx9wQ1UveKRw5mf7aJAt7yoxnqvZbNHkHF7B6iO3cyeMzcWLZmD3m5N6T5056juVMx3kmeKOoqkfXs0py6ejblzy/i+HuQZ4GULmXPBvzLkWj6ShnXXuUVypUtxccilAA8Hq3HhgVOK8EgpChmZ8dx99lzV3n2dnGurMKN6/RJ0HYOQTC7d/FszOecUUmsW73qfL0ZzdycaWHgNtq9/zR7noE+7ahyhbL0g5rth/t3sj4i00h5FszmICI6lny6u1Ot6hV5O+FWKlWr7EjX4m7R4ZPn6SklaIBrnWpUsn6Opuq9Ply4gcKOneNjLwzoSCWUZ8iNlNTb9MOOw9TLO2s8ezVJQPj6c52KvEwN8/AZhYJDngUye8km+tesdZSQmEa1VXiToHIA19pV+Rg8CIxJA8FAEAAhVxmHkhxiudapxh7GUQnr5beX07vzvuUZ+eLlOGWAdlSz2oMfkBw7vDuNGtiZtu05Rj4j59P+w5Ec819WIZVr7SrGWURJKmdwrlmJX0dEX70vdER4CI8G4VZR+REEprmuRNOoflZ+AO/Rp3srClL5lP8ri/h8M05HXaaqSngVyzsYe0jlSWnUUE8ckbHW18LfgzwJBGL4dvNBmj6+rwqj2nAIgfgfRoYw5bSa/Zs1cjLOJvYGeqY8rWZNLZb023eoRtXyatb3pBXzRylvdI7OKmOFATd0yQprzIAQENcjbHtnrA8N699BebO9fKx0qRKUYbOMvGX3UWrXqgGHhheUAHGvAPd75pzyVmr7jhqrVMkSvB/EKO+GFSZ4H7wP7se7fVOa9fYA6tDGjdar34EZyKnKlSlpbGVthx2L5hALXgseq77K34S/D3kSCIzIobQ9bd55NCtJVrE5VnWSktNVqJRISUmpbAQahBqX1IyOlSrMmggxcP6zoz+hrWrmhyHiX+QptdUsn5KaTreS0yj6wnVjhJxZrhLmqbO/UTN1LP8E/xJBLVT+Yqdyg/YejWiuSt4xy6/74YDyLFEcfp3J5iVgpKnq/uD9EEolqvwF54ccPEMLVSIPb1eregX6cNEGmrd0M0Wp5PyIyr3CT5znXMkMj+auLArkHfg9BSzeyONhUoB3QbhV0v6eIIWCT7F3FHixdu06atvciaqr/8zsIP7Gfz7i/qtKEEN8H1ehQnWVFF+mxg1qKOMrRy2b1TXOJg5t9h+KUrNlNcpUM3bLZi4cPnV4rBHt3HuKQtUxhFYTVJJevpwDOancALM8RNTE7Z4nys4jjZ35eZnvt4UrIVyjx9WsjtwCM33blvVZNHvUPZZxKEXjR/bkRPhmQjKLUIdNCUoQlcqX5fstq85zV7nT0VPnlTfJ5PvA0mzPzs15PAh8k8ptzl+Mo749WnMybwbEgM8aqvKz5JTb9I8OTamuUxUVfjpRXHwy52DIzYSCydLVP9Owoc+rPPPeJJavZd4/mqOnL1JUTM5xfj0ltmYm4vktbAs+rgRamlorkeD7kfEzVlHHtg+zGHICyTqEnBNuKizTyb3w9ySnZd4CJRB8qYa8ICdKKC+GVaHfEzzuMWPB9yoEK8szfEfl4bB8jZAtJ5BDZShPkxN/xP0Jfy4FXiB/BXg+DCteMHDkWULR5f/6orCwgufDEGaJOIScKPICEQQzRCCCYIIIRBBMEIEIggkiEEEwQQQiCCZYvwfp49OPypexowqO955EFYSixI6Q4xQSvDPnLwp9/QZSl86dyMXl3jNVglCUmDR5Kv28O5dv0p99bgiNf2MstWzRnA8IQlGjlYcX7dm5Vb5JF4S8IgIRBBNEIIJggghEEEwwFUhcXBz/WYS0tDQKDw+nK1ey2mdqkpKSaO/evXTw4EE+R4Nrbt68SdHR0XTgwAHKyMjgWnCcGxoayq81OLZv3z7atm0bjycIBQnTVawFCxawQVerVo1Kly5Nu3fv5n3NmjVjo546dSp16dKFbt++TYcPH6alS5dS2bJlaeTIkVS8eHGqWrUqxcTEUOXKlXkMEBISQn5+fjRgwAA6e/YsTZo0idzc3Pj84OBgHqN27aJVkyIUDHJaxcJszvgPfN5yMCzc2Mpi9OjRlpdfftmSmZnJ2xMmTLAsXryYX+/atcuiPAK/Bj4+PhZl/Hxux44dLStXruT9x44ds7Rp08YSFhbG2ytWrLBMmTKFz+vXr59ly5YtvB8sXLjQEhAQYGwJwp9Ly9aeluTkFGMrC9MQ69SpUzR48GBrOx54gzp1sjp7wDucPn2a3n77bfYCV69epZo1a9KlS5c43OrTpw+fFxUVRU2aNKEWLVrwdnx8PNWrV4+9B44dOnSI5syZwz/wQjguCAWFXAVy/fp1unHjBhs3QK4QGRlJDz/8MO3YsYPGjBlDNWrUoOHDh5Ovry/nFU5OTiyaBg0aUMmSWf2hIiIi+BrN8ePHWSAQh6urK7m7u1PLli35B6HX888/b5wpCH89uQoEho1cADkFOHcO7TeL876tW7dSr169qFu3buTi4sJ5SsOGDfk4vE7jxo35GgDBNGrUiF9DRCdPnqT69etzTgPPpMIx6tSpE7Vv3573YRxBKCjkKhAYetOmTY0tojNnzrDxoi8VkvRNmzZRUFAQTZ8+ncUDj4NzbK+DICAQvY1VMCT08DStW7dmrzRz5kz67rvv6KWXXmKhCUJBItdVLJVcc5iEcAkgJLp16xY9+uijvA0vEhsbS48//jhVr16dwy6EUljihQepVKkSCwDLt127dmXvgmXjEydOkJeXF4+BZd3t27dz3oFxmzeX58CEv46cVrHkYUVBMJCHFQUhn4hABMEEEYggmCACEQQTRCCCYIIIRBBMEIEIggkiEEEwQQQiCCaIQATBBBGIIJiQb4EsW7aMH2T8o/ijxxeE/JAvgeC5xuXLl/OTub8XeOL3008/NbaIKlasyNWKglAQeKBA8Eg6GjSgQwkqDLGNSkC8xo8mMTHR2vXk2rVrvI2yWjwSD1CGi/JaFEzduXOH96WmptK6deu41Pby5ctcK4LSXN3gAYJE4RYeodfXANSeJCQk8L3geHJysnHEHN2hBZ8F9wYw7v79+3mfLdgOCwv71X6haGH6uDuKn8aPH0+enp5s6OXLl+eiqBUrVtDEiRO5EGrQoEF87vz589n43nzzTXrxxRfJ0dGR6zzQ4QSVg1OmTKHHHnuMRQExLF68mMefMGEC15OgOhHC++STTygwMJDbBaGDCupRIBwUXn388cfsXV577TW6e/cu16tgvPPnz7Nnq1ChAt9LTuBjdu7cmSsX4bWOHj1KTz/9NBd7oZIR9S26Y8uHH37In/ORRx7hyQF1KrhPoXCT764mr7zyikUZDr9WM63Fz8/PMm3aNN7u06cPdzHRKFFYvvnmG+5W0qlTJ8vSpUuNIxbuXLJnzx5+jeO9evWyqFmbt9HZRI/z+eefW95//32LMnqLt7e3JTz83v2MGzfOogyYX3fv3v2+7ifK0C3bt283tnLm0qVLFnd3d0toaChvr1271qIEY1Hi4m10WgkKCrIoUfN5yjvxftzLxo0b+bVQuMlXVxN0Jzly5AhXDALkHVWqVOH68vT0dLpw4YK12lCNw6ETKgoRZqHy0MfHh48BnAevoYyfS3TRVA5eAx4HM7hu6qDHQMiFWnfbCkN0TIG3QFUiQqwXXniB98Mb4D0f1EsL3gr34eHhwdt4X3gtZ2dn3kZIiPcsV64ce5mhQ4fShg0bePwePXrwOULRI1eB6O4j9vZZfz8cIkBrHwgE7X8QbqEhHEBsn5KSwiESjBzGqsMd5Tlo1KhRPE7fvn05zAG1atXiMAb5hj5XCwTiRN26LRAVmj0g1MK1SOYBcgTUydeta/53TbLX2GMcLUyAUmB8Xjs7O5o9ezZNnjyZwzzcM+5LKJrkKhCIoVSpUsYW0S+//MJtf9AFUbfs0f2y1q9fbxUTDA+xu+b777/nHlmI92GQMESMAaO2NVLM4HhPiAB5BrY1EAeEhpkdxmrbNUU3k3jQyhoEoq+D2JHc624rWFRAoo82RhAnjsN7oXMkPCg6SgpFk1wFouJ8NiJ0LkFSPnfuXG4a5+DgwP/CuJEYz5s3j1eBtLHBEHUvLQAxbN68mVR+wh1MYOBI3uGFAFaTcD3Gg8iQeKNHFvZ/8cUX3D0FPbiQ+EM42cfHPdp6gtywFYhejdMhohatrfdAE4o1a9awF0FbIqFoUuwdBV6sXfcteXm2o5pqFgUQAmJ0zKgIaeAF0HkE4ZPORRD7Y4ULMztmXOwvUaIEx/m6nxaWbeGJMEs/+eST7EkwNowdrX8AVpHwHvA8yAkwxhNPPMFfGCKfGTJkyH25EMbHKhmAUbdq1coa7uVEZmYm30/btm3ZcyGXgch0Dy4s9eK9cQ/e3t4sUogG57766qsPDN+EwsHiJUtp2NDBbH+aQtHVBPkPvk/JDX9/fzZ2QTBD2v4IggnS9kcQ8okIRBBMEIEIggkiEEEwQQQiCCaIQATBBBGIIJggAhEEE0QggmCCCEQQTChQAgkPD+dH5/MLnhRGcZcg/N4UKIGgLhyVfvkFdSm66AqP59s2eBCE/wdTgaCICIVLaJCA+g08Nm4LnnNE6S3qO2yPYRvltPjB4/K2oGQW+zXoTqK7kuiKQg3GRnGWbfEUGjigngPXoFgKJbF45B4ViHhE/euvv+b3QJEVHmu3BaW62fcJghmmT/OiU8nBgwe5Ths/CIHQwwo1G9i/cOFCrsLTQpo1axbP5KgXR01FmTJl2CBRnITrUHGImhDUpqNOBIwYMYKeeeYZLtBCYRI8AMZ86623uI4dgsGfh542bRrXfaCAauXKlVwXghJa/AVdHEOXFBRV4f1QZ4LjEM2wYcP4fVCaizrz1atXc92KIGQn30/zosoPhU2oGpwxYwb/0X8Yom7vM3r0aG7CgCo8GD9yAXgSXNeuXTsKCAhgkWGWx99Ch2dBkZWu5MO58Bqo5tOeBuLDOahaDAwM5HZBvXv3ttZ74HyIYM6cOTR27Fir14HRo2gLhV0QDKoHde8rADFDLCIOIT/kKhA4FhgfqvlQtQcgFoD6dBi57jqCHAAGDS+CBg4oTurXrx8fw7XaKFHTDu+gqw0RtiF8Q8Ue3gtVijgf74MeWp999hl99NFHFBwcbB0D4kOXEXg0oK8DKKvVIZqtQJDA4/WAAQN4WxDySq4CQbyOGV8bH0DsDwNE6ANB2IJcAg0XYKRon4MyWg3GwnXIJ3SZK4BxQ2gIh7RxwztAlFu2bOHtnj17cpshnAfRQiAo/dXo6+ClkJPgNcD7IIfBfnixcePG3VdKKQh5IVeBwPDgCXTnEsz0O3fu5DwBeQbKXDUQTkhICIdV+joNjBQ5CAwXeQBEBGDs6HiC8ApoQ8dsj/HQOAEhHdoCwfPgGLqewEvppg1I2OEZIGKMjTp17WkQ8kGoX331FXssJPKCkF9MBYIk97333uMQRxss9iEJRpiFrh/o/vHGG29wgozGCZjh4U3QkWTXrl3cohTH4CXQ/O3nn3/m7zqQn0A8esbXAkEIBi+CTipIqJcsWWL1Dhgb7YZ0OyIIB+EYenThHHiabdu28TGAMAvXv/7668YeQcgfuXY1WbVqFXc1wcoRVpEgCvThhUeBgaL7B7wGwqfBgwdbG8IhoUdvW6xsIYTy8/OjDh068DF4C1yPJBzJNMImd3d3DscQ/nh5eXFDOLwnGtfpFTEIB91NkKtg5Up3GcF7YEyIplKlSuxBsLyrcyPcN1bL8DkE4UHk1NUEoQ6TvTdv7969LcpLGFt5Q4VGFg8PD+5n+1ejPJXlqaeesigRGXsEwZw89+ZFzoBlVx3+5BWEQPAKth0Z/2yQl/Tv35+Xo/G9DHpwCcJvJccvCrELSTnyhvyA7zXwk9/rfm9w/3pxQRDySp6/KIRx/RYjx3cYf7U4gIhD+L24TyCZmexMBKHIoaMmO7v7J1erQLAaFBp6wNgShKJF7JUrKvop9qv82SoQfz9fWrlqNV02/qagIBQVUlPTaNq7M2jwcwONPfewJung0yVf0JeBQfQP7y5UoUJ5tUdieaFwk5CYSD/+uIVat25FH/17Bj+BYct9AgERZ85yqIWlXkEo7EAQ3ZRDcHa+/y+aaX4lEEEQNET/A4RScSOmKH/GAAAAAElFTkSuQmCC;" vertex="1" parent="1">
          <mxGeometry x="119.01" y="880" width="200" height="97" as="geometry" />
        </mxCell>
        <mxCell id="avPWlsC1YsPm1SDDJ07k-15" value="" style="shape=image;verticalLabelPosition=bottom;labelBackgroundColor=default;verticalAlign=top;aspect=fixed;imageAspect=0;image=data:image/png,iVBORw0KGgoAAAANSUhEUgAAAMsAAAEYCAYAAADyJgIGAAAAAXNSR0IArs4c6QAAAARnQU1BAACxjwv8YQUAAAAJcEhZcwAADsMAAA7DAcdvqGQAADWvSURBVHhe7Z0JvE3l94dXZFZUZJ4KpfmfoYSEzGOikrGIJD9JpZGMTZJSIUWlgaQyz2TOPEaZr1lmmcX+v8+6Z98OXezDNVx3PT7nY++zx3PO+91rve/d67uv8BxiGMYZSRT63zCMMxA4shw+fFiOH7cgZFz+JE+eTK644orQ3L+cUSy/Tpoi33zzjcyaPV8SJ7ZAZFzeePxzQaH0gyXktddekWvSpg0tOYNYxowZJ53fekueqV1MyhS7RZImvTK0xDAuX/btPyw9v5ssU+auk5HDB8uVV0a3+1OGiqNH/5H2HTvLWy9WkUql7jChGAmG1KmSyQtPlZbr0iSTib9OCb17GrHs3LlTyNruzJct+g3DSGBUKnGrjBo1IjR3GrEcPnLEdXSShOYMI+GRNk0KOXL4SGjOho4NIzAmFsMIyEUTy9bte2TF2q2hucubv/cdkoXL1oXm4p5Ff6yXvfsOypEj/8icRWtC715cGGSdvWi1S+eP6vz+A4dl3pK1ep7xlQsqFsRx4GB0DvjbvFUyf0mUTp+KPX8flLUbtofm4i8r1m6R8VOXhubilmPHjsvz7b/T7/WP1ZulW58xoSUXlx279knrzj9I4kSJVCCNWveRoeMWuAuHieWM8KO+0WWQ+/Ki/zJatczd8kilQjp9KvoP+U1+X74hNBd/ufu2nPL8U+VCc3FL1MYdkixZEsmQ7mr5c9VmufnGTKElF5eVUX9Jzmzp5MorE8u4Kb9L5gzXSNvnqkmWjNeG1oh/nPKPkuvWb5CGDRvK4F5NQu/8l3/+OSZ9fpgik2f9KalTJJUcWdNLy4ZldRTt51Fz5a8de2XZys1yY/b0MteF4HXuh82TK4N83L6uPNfuO2nzXFXdT7cvxsiu3ftk34EjUqxQXmlUq7h8/v0kGTh8lmRMn1aa1i0pRQrk0XVjY9Svi9y6syXJlYnkCncle7b+g3Jr3iya/vw0ao7MWrBakrsGxbGfqvWA3onQ+/tf3fqJZc36bbJ8zVa565bs8kKT8nolXLh0nXz81Tg5ePio3HRDRvfKJAfdlbtejSLy7c8zZMKMpXKF+5f26pTyXMMyki3zdaEziZ13egyXkvflk9tvyibPvPGV1KhQUH4cMVuXcT6F786t06eCn6j/kJky4teFkjplcrkubSp58emKkuaqFDJ68mL3+RfLB20el47dh+hw/8FDR2TLtj1yS54s0sKdH5/p9fd+lJru4nRnvuy6z25fjJbbb84mpYrcIi3e/Fa/92HjF+gtTXwPi5dtkCHj5kmK5Eml6xuPy7XumKeD7/GDz0fLrr373e99vWS6Pq3s3L3fnUNm6Ttwiu6Xz/lKs0qhLS59Jsz4Q0bP2Crdu3+o8+cUWabPW6lXs56d6ssn7rVu0w4ZNWmRLiM/nblglbuilpVn6peSMsVukwcK55Nebz0hu/8+4BroFkl37VXSo98Euc017J7u/c/efiI69Vq/XR4uX0C/4L5dGp5WKBu37JRP3T66vlFL99GgZlH5dcYyXdam609yyDX4j9rVkbda19R83m+kM+evcqngSmnZqJx88W5Dmb1wjUydvUJ/4JffGSiNH39AvunWREq78+75zQRJc3UK3X789KXyaYf68vm7T0rJIvlk+tyVur9TQUOfOnu5ZEifRlau+0tWuSsuIu79zpNSq8q98m6Pf8fxT8WS5Rtl0m/LpFub2vJpx3p639KAoTN12YrVWyRvrow6/adLw/i8rzSrLJ+49bhAjZy4UC9qnOf1112t68G0OSsk3TWp9fue/3uUHHbb9e3SSMXz+nuDJEuma6T/x884kaR2x/4jtFXs8Bk7fzxUxdjvgyZSseSdmhVwcSKDyOqiSavG5eOVUGLjnMRyf6GbpOOLD2tfhIaUTP/KH51mrXBX68erFpbs7qrLlQ1xcJX2l+XJmUHfvypVcpnqfrjVriGldNHppacryI05rtd95sqWXpIkOf2dAyynEznSXV35/567bpRmLrJEub4OkezJR4ppJOEOhIJ33iCr1m3TxrPaXQmbNSit0YHj/nPsmLtqJ5VxU3+XHJmv1XXhnrtucMuOS16X3qRMkcxdsXfLrzOXqZArlrxLHq18j653Krbt/FuOHP1HGwwNO49r2KSffHbOPVWqZKE1T83tN2V1gq8rG7fuklkLV0sil8r69/kRFW+6MaMcOnRUNm3ZrZ89Vcpk7rdIIjmzpHNR5qhexJIkSeyidBrdBoFs3b5XcrvfYKXrT13nRMPnQISky3fdkk0euPdmnb86dXK55gxRhd/+qPtOixXMq/N8d1e4c8zrfm++J/pseZ1w4jtnLRZGXlq/NUBe7DRAps5a7iLMFte/2Cg35EivIx+b/trtwnzW0NrRnXu+PFjO1TA03eLJMpqikKo0aNVblq7cpO+Hr3M6uFr2cFFtw+adUqt5T00vEAMNhBQgXGycc4Z0V2meT2NlOezac0AjSu6cGZ2Qt8gdoVQF9rqGRT8rt0stSO3ebv2IS+vWSI2mH0u/QdP0qno6uEjkcfulgfMd3H1rDm2EsIrv5AyNiMbWyaVXzdv2kwnTlur3vHDZernBnQ/H1u/VCXC5a5C5XB/BFwTs3ntAo/faDTskd44MMcddvmazZHZpEqJavnqripG+BRD5bsnz7+/2p/sdcmZNF5qLnfm/r5P8rl/mg+B4ccwNLvJzsQo/r/jKWYtlhAvvu/bs1xSn+ROlXfjO567s/+gXtNL9gFyt/LDPVY/GTDSBcCHwI9WsWEh6dm4glR/8P3n7k2H6Po3WX/9M0HDIs798v5FL/6JkokvDjrlGRgP1OXb8uMxwqRdXPa509EMQDKxet1U7yPQBGFWiEfmMdZ3TnC7C+ffG3en6Nm1aVHXnW1/6D5spy1waejqWu8btC4LPdHPufzvgq12UQ0inY/q8FbKAPhT9PNcfrF4uv+zbf0hTHPolx93novPMccIvDIxArYzaqn2UqA3b3HeUPrREZNb81e7CcL1OIza+Cx+2yXtD9Ply0WOIP2vGa3T+VERt3O7S1JShOZFfXdrGORGx+a35jL5Q4zPnlIbRId/pOuZ84b2+negaWVJJ6sI9V9NbcmeO+YJ2uHXoYB88fESvlKQOXA0nTF+mOTs/ynF3ldzr+jJZQj/M9l37NHUgSpwKrqx0Tsm5gUZEysQPRYd9zuK1mo6xjy9dJzNLhrSuf5TVpUM0iH8b6cq122LmaVQz5q7Qq/KCpVHy0+i5OsKEiJq9/rVeeWHP3oOS9MorJf21qXX+VPBdsG9N/Zw4/FQU2Bcp1OlgIIF+yF87/tZo+enXE1xad0zTR/975KJAf2Xjll0a3TkWAyQPFr1NO+Zc5Ymc23bu1cGYUZMWazoIeuEInQO/AwL0xcMy0mg/6pyKm936c913zUWRAZ2+P0yJuUDQp70cUjBI/KYjNH0Ce/bulSFDhkitygVC75wI+e4a1xH/+qdp+kM85TrE6zbtlK3b9uooE1c+1gH6JYyWDBkzz/2At2ojZEQos2u8/MCf9BsnYyYv0ZEXRm/It+n/DBg2S3JkvU4bf2wgxpxZ02tn8nv3mumumPVrFJECd+RScdIw3+s1UoaPX6g/OqNk7Jc0Jv8dObUfAX+41I8oxvlyJWaA4Rd3rimSJdXoSep0R75sKowvBkyRQSNny5I/N0jLp8ppv+p0zFq4xn3mW7RPxPdTrWx+PW8a9CyX61cvVyDU14sdzpG/TTCihPD5nvm+aYQIgVEn0kkGVB6vVlh+HjVH+v08XT9vk9ol9LfI4dKoae4CMGTsfHfBuEZyZLlOCtyZS1M0vjMGU4icW51QuD29lPuNYFXUNrk2TSr97KeD9JTM4etBU91F5bDOc070Pflj7N235YiXQ8Zr3Pe9asN+qVChvM6f09DxhYCcmRQqNm5wQonLmz05zpjJi6Xs/Xfo1ZpU5tFmn8gnHeppqhcbfh8rNujnnKm0gav9tp37QnMnkiZ1iphIezG5kL/BpUScDh1fCLgCn+pFVVtckshd8cdPWybN3vha08OnWveRJx+5/5RCgZPPKfwV5PxIS2Pblhf9kUsBRrpiOz9ecf0bXMpc8pHlQsPXwdA2UYUUi4EKI2ES7yLLhYb+BB1y+j0mFCMcE4thBMTEYhgBMbEYRkBMLIYREBOLYQTExGIYATnt31lq164rj1T4v9A7hpGwWL1+u+z/J5V81quHzp9WLI/XaSA1qlcLvWMYCYs1a7g59JD06vmxzp9WLI0aPyNjRg4JvWMYCYux4ybI0GEj5KNuXXTe+iyGERATi2EEJGKxkLX9888//ymn5Q5Z3jeMy5WIxTJr1iy59957Zdy4caF3ohk+fLi88cYboTnDuPyIWCx//PGH5MuXT7799tvQO9H8+eefctNNN4XmqLs/pI+t4P9wjh49qlFp3759cuDAAX3v2LFjsmHDBjl48ES3Qt7fuHGjbN8e/10pjfhPxGJBFA0aNJBdu3bJ4sWLQ++KLF++XG6++Wadphy5Ro0a0rFjR3nkkUfkp59+0vcRSLFixaRr167y7LPPSpUqVWTixIny6quvSvv27XX+77//1nWJYI899pi0a9dOj9elS/SIhGFcNBg6jo2odeu90uUqh+b+5aGHHvLWr1/vfffdd97LL7+s77n+ile8eHHPCUin27Zt661YsUKXLVq0yCtZsqROz58/38ufP7/nRKbzH3zwgVeuXDlvy5YtOl+nTh3v119/9TZt2uSVLl3aW7Vqlb7vBORVqFDBc0LVecO4EIwZO95r3qJVaM7zIoos+/fvlx07dkjmzJmlcuXKMnPmTHENXV+pUqWStGnTavFU06ZNxYlF+vTpIyNHjpSrr462RCKFo79z22236TzbEYEyZIg2tmCAIGvWrDJ27FhJly6dLF26VIYNGyZOQJIyZUpxItL1DONiEJFYEMCNN94oiRIlktSpU0vFihVl4MCBmpr5KVjv3r3lf//7n4oqd+7c2g/hfyBVu/3223UamKf/Azw6PCoqSrJnz64iQSybN2+OeZUpU0by5o12PDSMi0FEYiEyhDfYRx99VH755RdZuHBhTOeeaMKomEup5P7779eG7gsCUfnTiGjdunUx2yFEIlaSJEkkceLEUqhQIXnqqaf0xXHYH8sN42IRsVjy5PnXpJuU6a677pIBAwbERJbrr79eRowYIb/99pu888478tdff2nHno6764PILbfcousxTfp13XXRDvThQnR9HN3n7NmztaPfrFkzmTBhgi4zjItFRGIhheKKH07jxo3l8ccfj0mvPv30U40a9DPq1asnbdq0kSNHjsju3bvVLYb0CoggbOuTMWNGqVo1+hEUpUqVklatWunfbkaPHi2tW7fWlM8wLiZ2I6VhnAK7kdIwzhITi2EExMRiGAExsRhGQEwshhEQE4thBMTEYhgBMbEYRkBMLIYREBOLYQTExGIYATmvYsHx5RS3nsmyZcu0eMww4gsRi4Vb5amNP5nvv/9e6+qBSkcqIkuUKCGlS5eWatWqaV1KuCPMjz/+eEINv2Fc6kQsFiIC1ZInQ8PPlSuXTrPOgw8+KJMmTVKBUJvCbfyvvfaarF27VtcJr640jPhAxGKhkYdbHvmsXr06pjDsZCEkS5ZMowy1+FROUmu/cuVKE4sRrzgrsZzcyOmbrF+/Xu68807to1D1GL4OxV9EF/7HrAJhpUmTJqYQzDDiAxGJBRMKXidHFkzwcHbBbGLr1q2yZ88erZCsXr26pmPFixfXfsxnn30mV111laVgRrwkIrGQQmEaQVQIh1GtggULqg0SUSVTpkxqtPfDDz/IRx99JMmTJ5fu3bvHiMzEYsRHIhILadPevXvVP8yH/gcjW35tPkLAweXKK6/UFwYVOXPmVP8vn5PTNMOID0QkFtxYcHN56aWXZPr06WpK8fzzz2u0wdcLEMLJaRoWrt999532bXiFW70aRnwhIrGQZnXq1EkKFy4sgwYNkjFjxqhIOnTooFEEbr31VilatKhO++DWUqRIEbVFwgycv7vg5mIY8QlzdzGMU2DuLoZxlphYDCMgJhbDCIiJxTACYmIxjICYWAwjICYWwwiIicUwAmJiMYyAmFgMIyAmFsMIyGUhFmr9eUy4YZxP4qVYjh07puUBPlOmTNH3DON8clZi4UblU/mB+ZxpeVDYDwVm4ftDHBMnTgzNibz++uuSJUuW0Fw0cXV8w/CJWCxz5szR59I3aNBAny7Mc/B9eJx3jRo11PaIdSgEg99//11eeOEF9Q578sknpW/fvjGNmfX99QDvMaIGdS9YJ9WqVUufetyoUSPZsGGD+pa9+eabMnfuXH0y8tSpU6VFixa6LfUyPAa8du3aUqlSJRk4cKC+bxhxgmu0sRK1br1Xulzl0Ny/uKu45xqzTq9YscK79957vSNHjnjLly/3Klas6G3dulWX9erVy2vbtq23Y8cOr2TJkt6iRYv0feZLlSrlzZo1y9u+fbuXP39+zwlDlx09etS77777vLVr13oDBgzwWrVq5R0/flyXjRgxwhs/frxOO5F6TrQ63bNnT+/dd9/1XPTxatasGbPOqlWrvOLFi+s+DeNsGDN2vNe8RavQnOdFHFneeOMNdWgZPHiwGlXwPHuqJL/44gstH77++ut1PSIBEQCTPSeAmOfkX3vttWrGt3HjRvUOy5o1q6RIkUKXRUVFaTVmtmzZ9DVv3jyt7yfKlC9fXpzoZN++fRph/NJlv4yZtAxjDPzJ4IYbbtAo5FdwGsa5EpFYKCN++OGHNU2iQ43/F+6UNHBSLV8QkChR9K7xE8O0IpyDBw+qSNasWRNjzAc0/Lx58+q2lC7jDMMxqlSpIr1799bUzUUz3TZ16tS6je8U4x+fc/Hxz8Ew4oKIWhONF4MKXniCIRjfeCJx4sQnNE6XNqkLDFd2TCp8iB5EBgz5sHLNnTt3aEn0EDBiAbbBkK9169by7bffauTCnwxx+FFl586dsmvXLo0iJx+fPg1CM4y4IiKxcDWng+/6A/L555/LkiVLNA1z/QK55557pH///hpJWPb111+rbStGFbhRIgzSro4dO2onnu148R5R4auvvtK0C/Ft2rRJBwgWLFggu3fv1oafPn169SvDwO/w4cMqFISD2BAkx8fID+cYBhpIF4lghhFXJHb9ijdD0yewZ+9eGTJ0uNStUyv0jsQ0SNc5F9eZ174I4iHNwnWShsroWNKkSdUFhj4ENkn0U4gMmIczuoUjDOkSUcR1/GXGjBm6Pf0dxEV/hWU487sOu/ZT2rVrp17JGPjRV0KgiId18Slj6Jh5ohCp2iuvvPKf9M8wImH16jWuTa+Q8uWibb7M3cUwToG5uxjGWWJiMYyAmFgMIyAmFsMIiInFMAJiYjGMgJhYDCMgJhbDCIiJxTACYmIxjICYWAwjIOcslkOHDmmB1yluMbsocDf0unXrQnMnMnv2bC0/5kZMzpv6fpxhuCHUME7HOYuFO427det2QtHVxaZr165aNxMbPDWZykvKDN59912tg1m2bJkKDKi1OdW2RsLmrMXiF3RdiCcPU2QWNHKxLufEbfuxwa3+PGqcqkzOG5FTiowBB3z88ceydetWnTaMcCIWC7UsFGY99thj0qZNG70i+5WL06ZN0/efeOIJqVmzphZhAfUoOMFQn8JyqiypUwFEMGTIEHV54YULDOvD5MmTtf6FbR966CE9ts/QoUO1xLlhw4bqJoNAgCIz6mgoJkMAOL3Mnz9fl5FqUeUJfjkyNGnSRKNL27Zt9bw++OADLVh77rnndLkPpT8UuBkJFOpZYiM2d5eDBw96lSpVUlcXGDVqlFegQAFv0qRJ6q7SqFEjz/UJdNnEiRO9KlWq6PTcuXPVxeXnn3/W+bFjx3plypTRadfovcaNG3t///237sM1XM81SM81cD2W63voejNmzPDKly+vbi87d+706tatG7OsX79+XrNmzXSa/RUrVsxbunSpzjshehUqVNDpvn37eh07dtRpJ2h1gsFZplChQp4TqLdw4UJ1qAHXj/GKFi3quUil87jTcHzfica4/DkndxfyfSoY/br5ggULamQgspD79+jRQ6skqabkCk/ZMHDVx0yCCAGkSmnTptVUDiMK/MQoWWYf3bt318jFFZzKzB07dmh5MdGCUmKizjXXXCOfffaZpksciw66fyzSKyKXn4bhJENnHvzUy0/VmPYNMFKlSnVCtKFqE9cZ9s1n5LzwJ/OdaIyER0RiodG6CBGaE+0o0+hpWIMGDdJGjlHFtm3bdF2MJIBGynb+IAANlEZJ48cS6a677tL3wW/0lBtjUPHTTz/FvMqWLauNlX4FKRZpGmKiXBmXGSCduvfee3UaOIZvz+SLBZ8AjkOJsv8ehJthcK4IjoGA6dOnq7AphzYSLhGJhWhBHbyPS8O0cXHlfe+99zSnf/nll7UPwdXbv7qf3OHGpILtfPH4riwMQ+P1xf4Y0sXYon379vrCgILOOcO+X375pfTs2VP7H3iV7d27Vxs8x6TBh3uF4Vjp0jJxaZ5GCaKiLwqOHy6W8GngnDl3nC9ffPHFmPM1EiYRieXuu+9WuyKu5pjaYY/qX4lJv+jsM/RKakX0SJkypTqxYEl0slholNddd52OTLEfokjnzp1VLDRK14/QTjqNHPcXBMhVHiGwnGiC7xjpEZGMiMM8EOUQEAMCnC+CQiAcC8eZ8HQLgfifAVulI0eOqGgBwwsGJUgh/XWMhEtE7i54fZHC0LhxpaQxuQ6+Oqv83//9n44gMQLGKBXiwIyP/+lnVK5cWRs5/QcaP6NbCIz0jNEwHC5pkK1atdJIg1gQH4JxnXV9n+X0LeiHuE697oeRt3Tp0qkoOBYCpK/z9ttvq7gYsaNPwh8pScdo+AiE8yYNI12kL4WI6BeR7nFRoF9EdOO8unTposuMhIW5uwQEoZDmkcIxDG4kPMzdJQD4K+PVTJQiShoGmFhigRStQ4cO+kdK80s2fKwlxAIDAThdGkY4JhbDCIiJxTACYmIxjICYWAwjICYWwwiIicUwAmJiMYyAmFgMIyAmFsMIiInFMAJiYjGMgEQsFmpBmjdvLpUqVZIqVaqc4NJSr149rQfhf0qMqVPxobalTp06Uq5cOalfv74WYAF1Jk2bNpVPPvlE3V0o36WGhRoTnGCokaFKkWKvV1999QSHF7blWBSIGcZ5h3qW2IjN3WXz5s2ea+zezJkz1WVl2bJlXokSJbzdu3frMhxcunfvri4tOLrgmnLo0CF1ZnnooYe8tWvX6nZOUJ4Tju4Th5jixYur48vRo0e94cOHe9WrV/e2b9+u6+LGUrBgQW/Xrl06jUOLT+vWrb3PP/88NGcYccs5ubvwjHuqFTGpoGyY29epyaeUmIhDJSIeXLi0UP5LdSHVkESKBx98UEuM2Q4jC/53x9cIQ1Uky9mGWhKqKKklobKSqkf2yzGpzKQkGaiS5JhEK8O4EEQkloULF6pbCjZE/gsDCBo2xg6UFvvuLDRqbJNo8GxHabC/DSXBiAPY7o477tBpXzzhbi8uasXU7/M/pcKsR+09JniUAxvGhSAisWDm8OSTT2pNOq933nlH/8+YMaM2cr9Rg293RMNmOxxawrdzKZWuR3TwxYI7C9EHDzGfkSNHxuwXu6NNmzap8yVRyKVv+r5hXAgiEguRgzRp//79aklERx/vLgh3TIFwuyMMIL777jsVA75eWLJikIejCy4sRCBAAJhRjB49WiMK27C+LxaiVo4cOdSMAgML9m0YF4qIxIJzJGkX9ekvvfSSOj9i6EA0oB8SLpYMGTLERAxKdPHsws6IUS8MZVhOSseIWrhzCo78RCU8wqhWJCqF2xBlz55dSpUqpaIyjAuKS5NiJbbRsPMNI2ouxQrNeToy9uijj+qoGOBfjP8xvsiGcb45p9Gw8w2eYp06dVJXSyIXgwH0dfg7CtEJV8rXXnvthD6NYVwoLimxkHbhJskfI3GRpH9Ef4ah6PLly8vnn39+go+xYVxILimxAP0Xho6xI6LDD7hQMs/fWgzjYnHJicUwLlVMLIYREBOLYQTExGIYATGxGEZATCyGERATi2EExMRiGAGJl2LhrmfqY2KD50JyI6ZhxDXxUiw8t/Kjjz4KzZ0Ij+HmFn/DiGvipVgoGKPEODYqVqyojwQ3jLgmIrF4nic//PCD1K1bV2vfeUApTy+Gjz/+WL744gt5/fXX1b2lV69euj5Q3chTg6ld4RmN4Vd+isReeOEFdYuhKIyo4cOyxo0bax0M61BwBoiFR3lTX1O6dGn58MMP9X3ACYbt8AWg7JgbMzlfanAoYQbOi/fZL24z3M3ME5WBx5AjNipCWe471JDe8RkaNGigN3r26NFDi9mMBAT36cdGbPUs8+bN81xj9/bs2aM1Jj/++KPXu3dvXVajRg2vWbNm6sLi+hRe1apV1bmF2hOmhw4dqu4tf/75p/fAAw9o7Qqv8uXLe1OmTPFcw/OcULxSpUp5Bw4c8NatW+e5KOE5Yeix2rdv77Vt21anWccJ1du5c6eud88993hbt27V7XCUcQ3fGzNmjL7vGruejxOv5xq6nuvXX3/tNW3a1NuyZYu6z7z66qveBx98oMucQHRb4Pyc4PQzdejQwXOpnx6fz8S5LF68WNczLk/OqZ6Fst5t27bJjBkz9OpMlOCK7RqcREVF6ZWcO4NTpkwpt912m5pLOMGooQV3ElMtyTKe2cgVnKs71ZTME314nj4Rg2knQqlWrVpMaXLLli21xoXjO7HqNM+qv/baa/Ux3DyXn449++AuZcqcuZ2f5+9zTN7jxbp9+vTR6ED9DPtjPcqXgbue8Tij5BlvASci/UwYY8ydO1fWrFmj9TRUe/IZjYRDRGKhcbz33ntqrEdK5a7QKhrSHhoWJcc+fqnx/PnztZ7+rbfeinnReBEQyxBZ+DLKhmn4s2fPVhskHxoo25GCsV/KkgFBYpWEyMJ9AJgO355zpDYGkR48eFDN+/xjIujbb79d10Mc7JsU73//+19M6odYKWcmZSOtw4rJSGBofImFM5UVu76KpkOuwXsuQniuvxFa4nlOKN6DDz6oqRHpEqZ6Pn6JMNSuXfuEMuLwZWXKlFETPx+Oc+TIEU2n3FU99K6nqeDTTz+t06RqX331lU6zPdv4cCzXV/IWLlyoaWE44cf1IWXs1KmTGvmFw7qu3/affRiXH2edhpFqPfPMM3plBtIZ0rJ06dJpxxm3Fq76rjFpmsNVmCs+adbw4cPF9Sf0RSfZ9V90HywbPHiwmlLQgW7RokVMB59l48aN0/0NGzZMBw7oUHOMW2+9VdcBIoZvaMEyIgspFGYY/vtsx3kzT/TbsWNHzHH4n8486xApMQTks7nvRo9NlJk6dapGIM4fWNePbEbCIbBYyOUZHaLRkIZQK+86uZI1a1ZNeRhBouwXj2MaK8ICtiF9YxTpiSee0CFfSoShWbNmml65q75Oly1bNiZ1wuoIIdBvYfSsb9++eg70HbBW8qGasmDBgtqwccdEEPRD2BepGSAcxEfZMqkcqRbnSunywIEDtb6f0mVGxhA950waxrnhw8zxED6i4jMsWbJEP7+RwIgOMP8lqLsLvsZFihTRUSnDuJyIc3cX/s7C1Z0IYxiXM+csFlIVHCLNHdK43DlnsdDBN3siIyFwzmIxjISCicUwAmJiMYyAmFgMIyAmFsMIiInFMAJiYjGMgJhYDCMgEYuF8tu1a9eG5hImFKdxc6aRsIhYLNzS/s0334TmIofb3GlslyJUQXL7/Zng6WPz5s0LzRkJhYjFwvPrqS05W/r376/1IZcaiBhTjESJTv+VICb/seVGwuIKbj0OTZ/AuvUbpFHjZ2TMyGh3Ex9umsSJhbuMqUOnvJiaEO48piaFRkQZMU8lph6FOnfqRKhZwf2FqEQJMvUuRBhuwJw5c6bWpFAjz6O+cY4Bnnc/Z84cLQr79ttvdV3KeSlFphaFY1FfQ5lw69at9dHjfByKzXjEHqlSkSJFtDyY2pZJkyapOV/SpElVsNTrEyWo6cepBkeYwoUL63P6OS41L5w/tf7U/FPTQgpKbc7EiRO1zoZtKBbjM1DuzPMwKYojXe3Xr5+uxzlR849nAUyZMkWXUfTGvqkF4hn/1AXxvbEt9TUNGza0++4uImPHTZChw0bIR926RL+BWGIjtnoWd1XV2hVcUXBiwT2lT58+3rZt2/R/niwM7dq187p166a1Ljt27PBatWqlJcJsV6BAAW/79u1attukSROvbt26nhOAOrOwnhOT7gO6dOmiL3ANx3viiSc8JzDPNWTPNSIt+3Xi8vr27es5Qel6bN+4cWOtr3Gi1fd79Oihy5wItBR69uzZes6s9+mnn+q54N7StWtXPQ/OuXTp0roeZcQ4v7Rs2VL3MXLkSD1vcBFW3WkWLFigJdSULjsR6PeE082HH36oTjAuvdMy50WLFqljDOdAWTb7HjFihB6b6bJly3pOdLpvvhOOw7kZF4dzqmdxDVCrFbnC+uYQXGW58zh9+vR6RQW3X11OxSLuK67B67pEhBw5cqhZBVdO1nENQqsnufITifLkyaP7AMqEqXykCpLSZaJRpkyZ1NCC7Yk4TPMepQJc4XGFocqRKEXK5BqpVjYC+yDC8XxKzpnKSs6ZqEh/BdMKzoNzJmr4VaBc/YkC4H9uf5rqyTvvvFO/E86B/TnxqJEGFZdsx3GIWERFPgsp38KFC/V7omrUT2uZx6iDEm6+k549e8Y8V9O4+EQkFr/GnXSIhkeK4NexkMf7Ne+kRDQ80gvKcmmIEN7QKN/lkd2U+wJuMBs3bowRC42K9dkn6RpCwE4JODbvIwh/nhSIc6ChkcpQlsyLFJG6e39/NFof/5x9Mfrn//PPP0u9evU0HcMvAA8A0iTwPwPHISXz90dD9/dH5x+hYvjnnwcXCgSVOXNmcdFM0zNKphE3x+d7JE2lJLtmzZrSsWPHmJp/49LgrMTiT4dbqIZ3eok+iAS7Ifoi5PHgN35g+1y5cmlkAKIWV3Su4kDfgqsy67AdNkb+VTZcmIDnF+vRuKizp14//IWfGUKk/+E3etalv8E5U+1Jx54+DNGwc+fO2heiVp9OP30c1vMjJtNEDsRK4wcaOX0fzhPj8goVKvznPEqWLKnrInqiLa6d9K8w5gAiGb4G33//vV5M6DMZlw5nJRbfVC9fvnyhJdEuKyyj89q9e3dt6DRAUhBfAC5fV8M6Gh1X8nCXFhoY6xNtaHg0VCICAvEbqA/b+sdmX4iFiMQLUfhpF6Z4iNaPKiz3U0XcXjgv0jHOi2miAefNPvmMvBhYYF3cXGjAREAE6Z+DH1n5/KSYGGLwuTDq47NwbIRCSsV+GShgXeCiwotjY387YcIEXYdzZD/+92ZcGkQkFhoGDQRnyfz582s/BRi9YZrGTf5OAyFfxwmFv8swagZcbWk0jEQxghVugsd2RCFGuRhxYwStaNGiuowGGr4u/RU/fcNCCUdLrvAIk4jA9uyHRkrjRIRc9e+//37dBrBDKlGihH4mGjcRDiM9ogvpIy/cNnGmIV3ivPncRAeOjxD88wNGAIsVK6bTrMP58/k5D6IVI3wcq3r16np+zDdv3lyX04di/ZEjR+qoGaNgCBKnHOPSIeKhY8NIKJw8dBxRZDGMhIyJxTACYmIxjICYWAwjICYWwwiIicUwAmJiMYyAmFgMIyAmFsMIiInFMAJiYjGMgEQsFm6A5IbCuITyX25ENIxLmYjFQgUhd/bGJTzT0a/pMIxLlYjFEl4AFldQGxLX+zSMuCZisYQXYlHE1L59e61EpEbDT6WoIgx/mi81J1QcUlxFrQt2SNRzUDOyePFirfegFgb3FR6vjQMMTjGU9VLdCBRi8X79+vX1aclDhvxbOjB//nx1cMEPgKpM3wSQ6stXXnlF6+Q5Fo4thnHWUM8SG7G5u/hPJsZhBeeTihUrqmMJDiTdu3f36tWrp+sNHDjQa968uU7DlClTvBo1aug07ii4qjgBeRs3btT3/WUdO3ZUF5SpU6d6rsF7TlDel19+qc4nrVu3VhcUXFScYNV9BVcVnFhwS+E9XFV++eUXzwlG91e1alVv7Nixuj3rcn6uz6XLDONMnLO7C/Xo+H65RqwuKhhTUPpLBSDuJZTlUiMfm0uLO57WlTuxaHkx1Y14ffn19EQtKizx+vJdYKgu5H2iAhGMasjs2bOLE4g6pBB5fEtZ1nUCielTUWFJ9GMdKjG/+uorLeM1jLMhIrH4KRiNklTLL6MF3FewAkJMuLnEJpa//vpL69h9lxZAXOyT7WnYCMUH0WEAgVBYTpkvqRYvUi8MLqiNp+YfFxYXoVQQpHpAKTBeAbilvPvuu5rKGcbZEpFYwjv3uKMgDB/sfwoVKqTTiIU+CCAG+iWIBTFgwkANO3DFxyeLZTRqauWppwdq3BEWy4gcuGDS1wl/8R5Qu49gunXrpjZGjNgB0Ykog4CIilgQGcbZclaRBYgOY8aM0Wn+7oIdKSkUEQCnFlIurvA9evRQcwgiBFHAFwHr4ZPFNMsYEQu3O0JY+GwhLgSDyQUCZb8//fST7pdpzDD8Dj2RhvQOZ5Q+ffrI5MmT9X0iHoYavs+YYZwNEYmFNMb3CsNIz3WmNcVhxInRKAREY3/66afVPbJWrVqajtFfoBETbViG6Rzrsy7bpEmTRu2Pwn19Sdnuu+8+nS5evLj2URAjxyOK4XxCOohROV5bjK7hivLAAw9oesi2gwYN0vUYQcNeiFE0wzhbzN3FME6BubsYxlliYjGMgJhYDCMgJhbDCIiJxTACYmIxjICYWAwjICYWwwiIicUwAmJiMYyAmFgMIyAmFsMISMRi4b5L7hA2jIRGxGJZsGCBfPTRR6E5w0g4JH7Tf5TwSezZu1eGDB0udevUCr0jMm3aNC3Pxa2FWhSKsnBk4THcAwcO1IpGnu5LnQmPtqb0l+W4slAIRk19x44d5YcffpBMmTJpDT4VjFQyYrRHfT4FZjfccIMWcAFVllQ4jh8/Xp9bz/6pqDSM883q1Wtk+fIVUr5cGZ2PqNXxCGyqFamBp8gKEfCceAq6Xn31Va2DHzZsmK5L48bWiJJfCrPatGkjXbt21cddsy3PfQciFeKhuhK7JATnG04MGDBAxcn2LKNakvJhw7gYRCQWogkVjJhKJEuWTA0h8A3j2fhUQfIM97lz5+q6RAgqFHlevm9egasL67G+Xz5MOTH7w2yC0l/q6mfOnKl9I8qOESHbU2lJlSTP1TeMi0FEYqEuPmvWrHLVVVfJokWL1DSvadOmUq1aNX317dtXa+YpP6Yu3ndqwaWF+nssjPx5Ui1AVOXKldNpoDYfownq9ikFRlg+HI/9G8bFICKxhLu7YDxBbT11+P5r8ODB6u2FTRLmEUQKONmeddmyZZIrVy6NHiwjavgQmfASIx0Ld48BfMIKFCgQmjOMC0tEYlm/fr0a7AHpFKZ6/jAyHXF/rCDcBQaIJCeLhdRq48aN2leh3wLsa+TIkdpHIQrh2I+YgKjGoIFvf2QYF5qIxFK4cGH58ccf1fYIfy869vgI01dhRAz3Fdi8ebP2VXxIqYhCQJpFVPLtj3B32bNnj+4Dh0sGABAkI164tjz//PO6X3yPeZHOGcbFIGJ3F4aAGRrmBWxOX8LvsEcCAwQMGdOJR0SY7/n79TmX/RvGuXDO7i5c8cMbNNNn25BJ13wfMvZxslDgXPZvGHFJxGKJSxgtCzfWM4xLmYsqFv624g8YGMalzkUVi2HEJ0wshhEQE4thBMTEYhgBMbEYRkBMLIYREBOLYQTExGIYAYlYLNzD5T/1l4er8jKMhEDEYuEWep4JCdyST+29YSQEIhZLeK1K586dpXbt2jptGJc7EYvFr5YkFUMs/N+pUyfZu3dvaI3oykj/0dsUbXXo0EGfXty7d28t6ALex9ACEwoiFPZKfnrHdtOnT9cnIj/77LNqhOFXEvAocOpaMLBgvzxzHygi45b/l156SZ+ePGfOHH3fMOKKiMRCLYtfIkxjnzVrliRPnlwtkrA0Aho1Li48wx4rJIq3ihYtKi1atNDKyl69eul6bMuz6levXq31+0Qs348MxxjMKigIa9SokVokTZw4UY+P6QUuMy+//LKWGL/44ota79KuXTsVG/MPP/ywCpjn8xtGXBGRWCgDpr4kS5YsJ9TjYz5BdSTgzIKvWNWqVVU0PO++RIkS6jFGZaXvzoLouEW/Xr16Wi1JmTFRhwiBTxiNnVp8lvE8fbZDiNu2bdPt8SArX768Vm5SNIbrDFDPj4h+/vlnu6PZiFMiEgtXfxo9BWDhYqEeHyFx5Sc6tGzZUhs96zDvu7+QOuEMAyxDRD5EKkqNiUbsB2H525GuYbqHKPAbQwiUGlPeTFQBzPtwlMEuqVu3bnp8w4hT3NU6VqLWrfdKl6scmoume/fu3vvvv6/TrmPvzZgxQ6cHDx7suf6LN2LECM+lW/re+vXrvfvvv1+nT+bw4cNeoUKFdB2fsmXLenPnzvWGDRvmuX5K6N1T4/oqnhOM17dv39A70ezYscNr1aqV5/o7oXcM4+wYM3a817xFq9Cc50UcWYgm/K2FSECUAdKwqKgo+eyzz9QKCdKlS6dp05IlS3Qe55bXX39d+xX0U4gUpHOwe/duXU5kwQiDbbBCApxgcKUEIglOMYC3GMcnstCf4QVYMDkhxkQcw4grIhILXsOIhXQHn2Lf8A6x0KiLFy+ujR3o+CMORqYaNmwoTZo0UdtW3kcs9EX8mntGtOizpE6dWmvyqaAkzcLphRG3ypUr63qkezi+0OmnH4PwHn30UbVNwgKW/g/WsqNHj9YBBcOISyJ2d4kUrvD4I/t9jqD4dwekSpXqBCML+jNEHd4/eX9YLKVIkcIMLow44ZzdXSKFBk2nPhKhAG6URJqTHV8YXLj66qtj3R/HMaEY54vzLhbDuFwwsRhGQEwshhEQE4thBMTEYhgBMbEYRkBMLIYREBOLYQTExGIYATGxGEZATCyGEZALIhbq6SkRNoz4zAURS7gjjGHEVyISy+zZs2XYsGGhuWiogacUmIIwluHU8vbbb2t9i0+4WHjgKs4vlBh/8skn+qRi4PZ6au8pKqN2n/JhnnLsQw0Nri4YU0yaNCn0bnRRGeuyP9xd2I9hnA8iEgsVjb/88ktoTmTVqlXaQG+88UZt+NTGUwNfrFgxLfjyn5Hv1+tjKkGBVpo0aaR+/fpqPkHjB8TVv39/fd1zzz26jEIvmDt3rrq5YHCBSQUWSFgdbdq0SfdDVSb/U5yG0YVhnBco/oqN2Grw3VXfK1euXGjO81q2bOm5xq3TTkj6OnbsmL4qVqzoLV261HNXeq9AgQLevn37PCcMz0UBXR8OHDjgOWHo+v369fOc0LyjR4/qsqFDh3p169b1jh8/7tWpU8ebOHGivg/z5s3zNm/e7L322mte7969Q+96notSXtGiRUNzhnFunFMNPuW7RBcqGBcsWKBeYXh0Ud6LtxelvJT18sKzizp5LI/YjspG7IwwzPNdWygJTpYsmVY/+m4vfvEW6RhlxEQLyo6JVj5YJGFzxP5IA/394Y5J0Zj7XKE1DSPuiEgsSZIkkWzZsqkQfMsjGjcpGCkRgsG2CCM81qOUOLy/gp8Yy0nleA0ZMkT7H+wDUeXLl0/XA8TCdn6psF8ZSZkyYkUQCJe0zd8fQhw/fvx/qisNIy6IeDQMc4rvv/9ehUAfAvAMy5UrlzZ6GvA333yj/RgIFwsRxqVQOn348GF5//33VWREJjrw4WLBxQX3Frahhp9jAEbkuFwiiKxZs8bsj3106dIlxmzPMOKaiMVCakRHnqjigxOL767y1ltvSZkyZbRTjq2rb/cKWKsyctWsWTPdhpp50incXrAwwvIViEC8fMcXDPeaNm2q6d2oUaOkTZs2uh6dfkbO8EMmBcOlMn369LrMMOKaOHN3wQGSCMDIFFd9rvT0R05OiRhiZpQModCPCQqOLuwT+6Vwswp/f5hYEO0MI644b+4uNHyu6r448AeLre9AqkY0iUQoQIRBiCe7uvj7M6EY55s4E4thXO6YWAwjICYWwwjIKcWSNEkS2ff3Pu1AG0ZChOcFMUjlc0qxZMyYQXLmzC6TJk8NvWMYCQcGiceMHS958+QJvXOGNKxundrSsfM7Mm36b/YIByPBsGbNWnmzXSeJilon9es9Hnr3NH9n8Zk8ZZoKZvPmLRGbextGfAM5XHVVaqlR/SGp9VhNyZAh+g/lcEax+NB3sf6LkRDgHsjYAkNgsRhGQseGjg0jICYWwwiIicUwAmJiMYxAiPw/gzITCaV8oV8AAAAASUVORK5CYII=;" vertex="1" parent="1">
          <mxGeometry x="560" y="760" width="203" height="280" as="geometry" />
        </mxCell>
        <mxCell id="avPWlsC1YsPm1SDDJ07k-20" value="Function number 1: User input an Artist, output if there artist have songs in the all time list, if so, how many songs" style="text;html=1;align=center;verticalAlign=middle;resizable=0;points=[];autosize=1;strokeColor=none;fillColor=none;" vertex="1" parent="1">
          <mxGeometry x="-770" y="200" width="620" height="30" as="geometry" />
        </mxCell>
        <mxCell id="avPWlsC1YsPm1SDDJ07k-21" value="Top songs&amp;nbsp; similar songs have high danceability base on artist and album name,&amp;nbsp;" style="text;html=1;align=center;verticalAlign=middle;resizable=0;points=[];autosize=1;strokeColor=none;fillColor=none;" vertex="1" parent="1">
          <mxGeometry x="-800" y="240" width="450" height="30" as="geometry" />
        </mxCell>
        <mxCell id="avPWlsC1YsPm1SDDJ07k-27" value="" style="edgeStyle=orthogonalEdgeStyle;rounded=0;orthogonalLoop=1;jettySize=auto;html=1;" edge="1" parent="1" source="avPWlsC1YsPm1SDDJ07k-25" target="avPWlsC1YsPm1SDDJ07k-26">
          <mxGeometry relative="1" as="geometry">
            <Array as="points">
              <mxPoint x="-680" y="570" />
            </Array>
          </mxGeometry>
        </mxCell>
        <mxCell id="avPWlsC1YsPm1SDDJ07k-28" value="The Weeknd" style="edgeLabel;html=1;align=center;verticalAlign=middle;resizable=0;points=[];" vertex="1" connectable="0" parent="avPWlsC1YsPm1SDDJ07k-27">
          <mxGeometry x="-0.1917" y="2" relative="1" as="geometry">
            <mxPoint x="1" as="offset" />
          </mxGeometry>
        </mxCell>
        <mxCell id="avPWlsC1YsPm1SDDJ07k-45" style="edgeStyle=orthogonalEdgeStyle;rounded=0;orthogonalLoop=1;jettySize=auto;html=1;" edge="1" parent="1" source="avPWlsC1YsPm1SDDJ07k-25" target="avPWlsC1YsPm1SDDJ07k-44">
          <mxGeometry relative="1" as="geometry" />
        </mxCell>
        <mxCell id="avPWlsC1YsPm1SDDJ07k-25" value="input artist" style="rounded=1;whiteSpace=wrap;html=1;" vertex="1" parent="1">
          <mxGeometry x="-770" y="280" width="160" height="80" as="geometry" />
        </mxCell>
        <mxCell id="avPWlsC1YsPm1SDDJ07k-30" value="" style="edgeStyle=orthogonalEdgeStyle;rounded=0;orthogonalLoop=1;jettySize=auto;html=1;" edge="1" parent="1" source="avPWlsC1YsPm1SDDJ07k-26" target="avPWlsC1YsPm1SDDJ07k-29">
          <mxGeometry relative="1" as="geometry" />
        </mxCell>
        <mxCell id="avPWlsC1YsPm1SDDJ07k-26" value="Check if artist is in all time list, if so many times" style="rounded=1;whiteSpace=wrap;html=1;" vertex="1" parent="1">
          <mxGeometry x="-440" y="520" width="160" height="80" as="geometry" />
        </mxCell>
        <mxCell id="avPWlsC1YsPm1SDDJ07k-32" value="" style="edgeStyle=orthogonalEdgeStyle;rounded=0;orthogonalLoop=1;jettySize=auto;html=1;" edge="1" parent="1" source="avPWlsC1YsPm1SDDJ07k-39" target="avPWlsC1YsPm1SDDJ07k-31">
          <mxGeometry relative="1" as="geometry" />
        </mxCell>
        <mxCell id="avPWlsC1YsPm1SDDJ07k-29" value="Input album" style="rounded=1;whiteSpace=wrap;html=1;" vertex="1" parent="1">
          <mxGeometry x="-440" y="650" width="160" height="80" as="geometry" />
        </mxCell>
        <mxCell id="avPWlsC1YsPm1SDDJ07k-31" value="Recommended similar songs base on the vibes" style="rounded=1;whiteSpace=wrap;html=1;" vertex="1" parent="1">
          <mxGeometry x="-760" y="650" width="160" height="80" as="geometry" />
        </mxCell>
        <mxCell id="avPWlsC1YsPm1SDDJ07k-38" value="" style="edgeStyle=orthogonalEdgeStyle;rounded=0;orthogonalLoop=1;jettySize=auto;html=1;" edge="1" parent="1" source="avPWlsC1YsPm1SDDJ07k-29" target="avPWlsC1YsPm1SDDJ07k-39">
          <mxGeometry relative="1" as="geometry">
            <mxPoint x="-440" y="690" as="sourcePoint" />
            <mxPoint x="-600" y="690" as="targetPoint" />
          </mxGeometry>
        </mxCell>
        <mxCell id="avPWlsC1YsPm1SDDJ07k-39" value="Star Boy" style="text;html=1;align=center;verticalAlign=middle;whiteSpace=wrap;rounded=0;" vertex="1" parent="1">
          <mxGeometry x="-550" y="675" width="60" height="30" as="geometry" />
        </mxCell>
        <mxCell id="avPWlsC1YsPm1SDDJ07k-42" value="Open AI API, for artist description&amp;nbsp;" style="rounded=1;whiteSpace=wrap;html=1;" vertex="1" parent="1">
          <mxGeometry x="-440" y="400" width="160" height="80" as="geometry" />
        </mxCell>
        <mxCell id="avPWlsC1YsPm1SDDJ07k-43" value="" style="endArrow=classic;html=1;rounded=0;exitX=0.5;exitY=1;exitDx=0;exitDy=0;entryX=0;entryY=0.5;entryDx=0;entryDy=0;" edge="1" parent="1" source="avPWlsC1YsPm1SDDJ07k-25" target="avPWlsC1YsPm1SDDJ07k-42">
          <mxGeometry width="50" height="50" relative="1" as="geometry">
            <mxPoint x="-580" y="320" as="sourcePoint" />
            <mxPoint x="-530" y="270" as="targetPoint" />
            <Array as="points" />
          </mxGeometry>
        </mxCell>
        <mxCell id="avPWlsC1YsPm1SDDJ07k-44" value="Return album list" style="rounded=1;whiteSpace=wrap;html=1;" vertex="1" parent="1">
          <mxGeometry x="-440" y="280" width="160" height="80" as="geometry" />
        </mxCell>
      </root>
    </mxGraphModel>
  </diagram>
</mxfile>
